{"glyphs":{"0":{"ha":756,"x_min":31,"x_max":764,"o":"m 375 -66 q 493 -39 439 -66 q 631 104 585 10 q 764 642 762 357 q 739 886 764 766 l 731 926 q 705 1036 722 982 q 596 1127 680 1104 l 573 1135 q 431 1161 502 1161 q 294 1138 380 1161 q 130 977 208 1114 q 33 588 37 793 q 31 520 31 554 q 145 62 31 254 q 316 -60 217 -43 q 375 -66 347 -66 m 387 66 q 376 75 381 66 q 321 232 336 149 q 294 483 294 355 l 294 504 q 366 897 294 707 q 436 1010 389 960 q 473 1025 453 1025 q 498 1020 480 1025 q 527 985 517 1015 q 550 861 543 924 q 562 676 562 769 l 562 627 q 452 150 558 377 q 398 73 430 108 q 387 66 391 66 z "},"1":{"ha":756,"x_min":95,"x_max":581,"o":"m 465 -43 q 533 -28 499 -43 q 572 33 571 -12 q 573 163 573 98 l 574 278 q 581 836 581 557 l 581 896 q 568 1071 581 983 q 448 1151 553 1151 q 332 1104 385 1151 q 225 1012 279 1058 q 109 896 163 957 q 95 868 95 881 q 120 841 95 852 q 171 829 144 829 q 191 831 180 829 q 293 884 250 842 q 347 931 319 907 l 374 954 l 374 889 q 368 694 374 829 q 357 223 357 448 q 359 34 357 129 q 399 -29 359 -12 q 465 -43 432 -43 z "},"2":{"ha":756,"x_min":12,"x_max":808,"o":"m 176 -27 q 225 -22 201 -27 q 605 12 432 12 q 676 14 640 12 q 787 45 736 14 q 808 79 808 61 q 791 111 808 94 q 742 136 770 130 q 639 151 691 151 l 574 152 q 391 144 483 152 q 398 158 391 151 q 584 526 520 327 q 640 831 640 674 q 435 1142 640 1067 q 298 1164 368 1164 q 243 1160 271 1164 q 68 1098 148 1154 q 19 1041 35 1077 q 12 1004 12 1021 q 59 948 12 963 q 102 941 81 941 q 182 972 145 941 q 260 1024 216 1006 q 273 1027 267 1027 q 292 1020 283 1027 q 355 926 340 983 q 372 798 372 861 q 353 661 372 729 q 58 92 281 336 q 33 43 33 65 q 76 -6 33 14 q 176 -27 119 -27 z "},"3":{"ha":756,"x_min":12,"x_max":734,"o":"m 326 -47 q 519 -9 426 -47 q 724 215 676 52 q 734 305 734 260 q 694 477 734 393 q 538 632 648 587 q 526 641 526 636 q 534 652 526 645 q 663 879 627 749 q 673 957 673 921 q 525 1139 673 1088 q 390 1162 458 1162 l 361 1161 q 155 1118 254 1161 q 106 1089 128 1108 q 90 1056 90 1071 q 119 1022 90 1036 q 158 1014 138 1014 q 225 1025 176 1014 q 331 1042 278 1037 q 352 1043 342 1043 q 422 966 422 1043 q 396 859 422 912 q 195 631 324 718 l 189 627 q 156 580 156 607 q 172 547 156 560 q 201 530 185 537 l 203 529 q 282 514 239 514 q 350 526 317 514 q 372 530 361 530 q 411 509 393 530 q 446 454 434 485 q 470 333 470 396 l 470 317 q 370 113 470 191 q 295 79 325 79 q 277 80 293 79 q 226 107 260 81 l 214 115 q 151 149 185 136 q 108 167 128 155 q 65 179 87 179 q 35 174 50 179 q 12 148 12 167 q 14 134 12 142 l 15 131 q 16 123 16 127 l 16 120 q 15 109 15 114 q 35 64 15 88 q 104 5 65 28 q 277 -45 184 -41 q 326 -47 302 -47 z "},"4":{"ha":756,"x_min":7,"x_max":732,"o":"m 614 -40 q 677 -26 646 -40 q 707 12 702 -15 q 732 350 732 170 l 732 425 l 731 717 l 732 756 q 726 888 732 822 q 625 973 720 973 q 533 918 543 973 q 511 568 511 778 q 511 512 511 540 l 511 509 q 500 497 511 497 l 484 498 q 452 495 468 498 l 437 494 q 273 481 355 482 q 256 494 256 481 q 317 745 256 537 q 378 971 351 858 l 380 981 q 397 1097 397 1038 q 359 1160 397 1142 q 291 1174 332 1174 q 191 1098 214 1174 q 111 850 152 974 q 62 703 63 706 q 9 495 26 602 q 7 476 7 486 q 59 387 7 419 q 98 370 77 376 q 233 351 165 351 q 489 363 292 351 l 492 363 q 509 359 505 363 q 513 342 513 354 l 512 261 q 522 16 512 138 q 551 -26 524 -15 q 614 -40 583 -40 z "},"5":{"ha":756,"x_min":72,"x_max":764,"o":"m 455 -6 q 703 117 599 -6 q 764 285 764 193 q 754 373 764 305 q 648 511 745 441 q 413 580 538 580 q 351 576 382 580 l 345 576 q 333 579 337 576 q 330 625 330 583 q 336 740 330 683 q 335 761 336 751 q 359 1036 335 899 q 380 1055 361 1055 l 421 1055 q 543 1062 483 1055 q 645 1095 598 1067 q 666 1126 666 1111 q 641 1159 666 1143 q 581 1174 612 1174 l 558 1174 q 401 1184 460 1174 q 288 1193 345 1193 q 99 1049 132 1191 q 94 1027 96 1038 q 72 751 72 890 q 80 575 72 680 l 82 551 q 149 454 86 482 q 239 436 193 436 q 355 452 298 436 l 372 456 q 412 463 393 463 q 441 460 427 463 q 502 339 502 437 q 385 111 502 198 q 374 106 378 106 q 368 108 372 106 q 271 184 311 136 q 214 213 248 213 q 163 191 176 213 q 160 176 160 183 q 172 148 160 163 q 374 3 250 38 q 455 -6 416 -6 z "},"6":{"ha":756,"x_min":43,"x_max":766,"o":"m 412 -23 q 478 -18 445 -23 q 674 115 606 7 q 766 410 766 251 q 762 476 766 442 q 705 591 753 543 q 530 663 628 663 q 486 659 508 663 q 346 590 401 655 q 335 583 345 589 l 338 612 q 395 825 354 722 q 496 998 429 920 q 580 1043 530 1043 q 622 1035 600 1043 q 664 1027 643 1027 q 709 1037 686 1027 q 743 1080 743 1052 q 726 1116 743 1098 q 672 1149 703 1139 q 521 1176 595 1176 q 278 1096 394 1176 q 126 903 176 1020 q 43 553 43 736 q 56 366 43 459 q 144 121 73 235 q 294 -3 205 27 q 412 -23 351 -23 m 434 110 q 413 134 427 110 l 408 141 q 337 349 351 237 q 328 476 328 412 l 328 496 q 338 509 328 509 q 346 509 340 509 q 357 508 351 508 q 397 517 377 508 q 488 544 441 534 l 496 545 q 521 534 511 545 q 564 412 564 481 q 464 136 564 252 q 434 110 441 110 z "},"7":{"ha":756,"x_min":98,"x_max":673,"o":"m 282 -50 q 414 56 378 -50 l 456 187 q 604 680 534 432 q 671 991 650 833 q 673 1021 673 1007 q 581 1151 673 1120 q 479 1168 531 1168 q 444 1166 461 1168 q 208 1143 212 1143 q 127 1124 165 1142 q 98 1084 98 1107 q 125 1046 98 1064 q 199 1026 159 1027 l 235 1025 q 411 1039 323 1025 l 418 1040 q 427 1030 427 1040 l 426 1025 q 377 789 408 905 q 356 703 366 746 q 340 690 353 690 l 271 690 l 250 692 l 234 692 q 202 691 218 692 q 117 663 155 690 q 100 630 100 647 q 115 598 100 614 q 246 559 158 559 l 271 561 l 302 562 q 314 553 314 562 q 312 543 314 549 q 236 269 270 408 q 213 176 225 222 q 179 25 179 46 q 243 -45 179 -31 q 282 -50 263 -50 z "},"8":{"ha":756,"x_min":21,"x_max":752,"o":"m 338 -72 q 420 -64 379 -72 q 703 174 634 -32 q 720 291 720 233 q 669 484 720 390 q 664 503 664 493 q 665 513 664 508 q 736 801 711 654 l 738 812 q 752 939 752 875 q 749 994 752 966 q 594 1165 728 1131 q 519 1172 557 1172 q 423 1160 471 1172 q 178 1021 277 1133 q 127 892 127 958 q 225 703 127 796 q 315 617 270 660 l 311 611 l 298 607 q 168 540 224 589 q 21 214 21 405 q 189 -46 21 22 q 338 -72 263 -72 m 352 54 q 321 73 336 54 q 279 218 279 130 q 389 475 289 366 l 392 479 q 406 490 401 490 q 411 488 408 490 q 423 463 423 479 l 422 456 q 414 402 414 425 q 448 349 414 366 q 457 342 453 347 q 462 305 462 337 q 429 134 462 216 q 380 66 414 94 q 352 54 366 54 m 481 709 q 388 810 410 784 q 356 897 356 855 q 401 995 356 948 q 488 1049 439 1031 q 497 1051 494 1051 q 511 1041 505 1051 q 532 954 532 998 q 529 920 532 937 q 486 716 515 817 l 481 709 z "},"9":{"ha":756,"x_min":43,"x_max":704,"o":"m 315 -84 q 359 -81 336 -84 q 545 -16 452 -77 q 680 184 637 44 q 704 399 704 282 l 703 448 q 686 709 703 571 q 677 790 681 749 q 616 1021 668 911 q 396 1163 541 1163 q 281 1133 337 1163 q 45 783 78 1020 q 43 753 43 768 q 180 553 43 612 q 326 524 252 524 q 441 542 383 524 q 450 543 446 543 q 454 542 452 543 q 460 436 460 538 q 456 332 460 384 q 414 149 451 236 q 357 71 395 102 q 311 49 334 49 q 271 62 291 49 q 241 77 257 71 l 241 77 q 165 92 203 92 q 84 70 111 92 q 65 34 65 56 q 95 -10 65 11 q 98 -12 96 -12 q 315 -84 197 -84 m 346 646 q 286 683 309 646 q 260 784 260 726 q 373 1017 271 920 q 380 1021 377 1021 q 389 1012 385 1021 l 389 1010 q 431 870 423 944 q 441 773 437 822 q 449 704 445 738 l 449 701 q 433 679 449 686 q 410 667 422 673 q 346 646 370 646 z "},"\u0000":{"ha":0,"x_min":0,"x_max":0,"o":""}," ":{"ha":345,"x_min":0,"x_max":0,"o":""},"!":{"ha":369,"x_min":58,"x_max":312,"o":"m 180 55 q 269 78 233 55 q 296 125 296 95 l 296 130 q 292 199 292 164 q 277 644 280 473 l 278 737 l 277 817 l 277 876 l 277 889 q 271 1024 277 957 q 180 1086 264 1086 q 92 1031 102 1086 q 80 912 84 972 q 73 829 77 871 q 58 437 58 656 q 59 322 58 380 l 59 304 q 65 123 59 214 q 92 79 68 94 q 180 55 127 55 m 194 -345 q 256 -331 224 -345 q 302 -288 291 -316 q 312 -229 312 -262 l 312 -214 q 304 -159 312 -189 q 189 -79 283 -79 q 163 -81 176 -79 q 79 -153 94 -88 q 73 -210 73 -181 q 104 -312 73 -284 q 194 -345 147 -345 z "},"\"":{"ha":557,"x_min":-2,"x_max":566,"o":"m 81 678 q 178 737 144 678 q 203 816 195 775 l 207 832 q 252 1036 252 1019 q 211 1086 252 1072 q 167 1095 189 1095 l 157 1095 q 40 1000 65 1095 q 17 886 25 944 l 8 835 q -2 753 -1 795 q 60 680 -1 692 q 81 678 71 678 m 414 675 q 511 732 499 675 q 534 836 521 784 l 542 872 q 566 1018 560 944 l 566 1025 q 532 1075 566 1059 q 478 1086 505 1086 q 420 1074 450 1086 q 387 1039 396 1063 q 342 825 367 985 q 326 730 334 777 l 326 724 q 343 694 326 705 q 408 675 376 675 l 414 675 z "},"#":{"ha":1143,"x_min":-7,"x_max":1143,"o":"m 329 -71 q 389 -53 361 -71 q 424 2 418 -35 q 427 39 426 20 q 437 222 436 156 q 438 233 437 229 q 447 237 439 237 q 654 249 551 243 l 656 249 q 669 235 669 249 l 669 232 q 671 77 669 115 q 673 47 673 62 l 672 26 q 676 6 672 15 q 697 -11 680 -3 q 762 -26 729 -26 q 840 -4 819 -26 q 854 45 853 11 q 866 242 860 124 q 884 260 867 260 l 907 260 q 1069 285 1014 260 q 1111 336 1109 303 q 1098 366 1110 355 q 1046 393 1076 387 q 1042 395 1044 395 q 964 406 1003 406 q 923 403 943 406 l 886 401 q 874 413 874 401 l 874 456 q 873 536 874 496 l 873 538 q 890 555 873 555 l 1002 564 q 1114 593 1062 564 q 1143 636 1143 615 q 1112 680 1143 659 q 1017 706 1068 705 l 1000 706 q 940 703 970 706 q 887 698 904 698 q 873 701 877 698 q 870 723 870 705 q 859 849 869 787 q 770 916 848 916 q 685 855 698 916 q 671 705 671 781 q 665 684 671 689 q 644 679 659 679 q 562 677 604 679 q 467 675 514 675 q 451 691 451 675 l 451 714 q 444 834 451 774 q 404 885 440 872 q 361 892 382 892 q 274 830 283 892 q 259 671 259 736 q 248 656 259 659 l 142 642 q 105 637 129 640 q 26 621 64 636 q 6 608 15 616 q -3 586 -3 601 q 23 551 -3 565 q 176 522 79 522 q 233 525 205 522 l 236 526 l 243 526 q 250 517 250 525 l 250 515 q 248 441 248 478 l 248 417 q 245 357 248 360 q 235 352 243 353 q 131 337 182 346 l 121 336 q 21 305 68 330 q -7 265 -7 291 q 22 226 -6 241 q 108 207 60 207 q 188 213 148 207 q 235 220 229 220 q 244 210 244 220 l 244 100 l 243 100 l 244 50 q 243 14 244 31 l 243 7 q 262 -45 243 -26 q 329 -71 288 -71 m 456 375 l 454 375 q 444 385 444 375 l 450 524 q 463 538 450 536 l 536 541 l 557 541 l 603 541 q 655 543 630 541 l 659 544 q 669 530 669 544 q 667 395 667 463 q 654 383 665 383 q 456 375 555 380 z "},"$":{"ha":844,"x_min":16,"x_max":826,"o":"m 454 -367 q 509 -326 509 -367 l 508 -319 q 505 -241 505 -279 l 505 -200 l 505 -144 q 511 -127 505 -132 q 531 -119 517 -121 q 764 4 667 -96 q 826 167 826 77 q 810 272 826 195 q 691 403 795 349 q 526 457 611 440 q 510 463 515 458 q 505 480 505 468 q 505 905 505 643 l 505 923 q 586 877 559 917 q 667 837 614 837 q 736 856 708 837 q 764 907 764 875 l 764 912 q 720 987 758 960 q 524 1070 633 1055 q 509 1087 509 1072 l 509 1223 q 463 1257 509 1257 q 420 1224 422 1257 q 418 1156 418 1190 l 418 1127 q 418 1112 418 1120 q 419 1096 419 1104 q 414 1082 418 1088 q 395 1076 410 1076 l 372 1076 q 77 901 158 1047 q 16 675 16 793 q 24 594 16 635 q 220 372 52 441 q 382 334 296 343 q 414 315 414 334 q 412 301 414 309 q 410 286 410 293 l 410 39 q 405 25 410 25 q 389 30 400 25 q 285 120 321 58 q 153 180 241 180 q 68 159 103 180 q 42 116 42 141 q 47 92 42 105 q 184 -68 87 -12 q 389 -127 280 -121 q 404 -132 400 -127 q 408 -147 408 -136 q 404 -323 404 -278 l 404 -332 q 409 -349 404 -343 q 454 -367 422 -367 m 415 482 q 345 581 356 520 q 338 661 338 621 q 372 838 338 751 q 415 904 386 875 l 415 482 m 507 79 l 507 286 q 538 185 538 241 q 507 79 538 129 z "},"%":{"ha":762,"x_min":7,"x_max":742,"o":"m 160 -92 q 280 -20 241 -92 q 317 49 300 14 q 484 429 405 237 l 534 547 q 722 1026 639 783 q 726 1048 726 1038 q 693 1084 726 1074 q 653 1090 672 1090 q 562 1034 597 1090 q 506 925 532 980 q 464 843 486 884 q 134 127 281 493 l 115 81 q 64 -16 98 28 q 55 -40 55 -28 q 76 -72 55 -57 q 150 -92 111 -92 l 160 -92 m 91 780 q 152 795 123 780 q 184 843 180 811 l 185 844 q 193 950 193 897 q 191 1004 193 977 q 159 1055 190 1038 q 99 1068 129 1068 q 39 1054 69 1068 q 9 1010 12 1041 q 7 958 7 984 q 9 913 7 935 l 9 876 l 9 846 q 56 785 13 799 q 91 780 74 780 m 656 -71 q 708 -58 682 -71 q 737 -18 733 -46 q 742 81 742 31 q 739 156 742 118 q 726 199 738 186 q 660 218 707 218 q 614 210 636 218 q 582 168 586 199 q 578 115 578 142 l 578 106 q 577 63 578 84 l 577 -14 q 608 -60 577 -47 q 656 -71 632 -71 z "},"&":{"ha":800,"x_min":-81,"x_max":788,"o":"m -19 -298 q 49 -254 41 -298 q 83 -90 62 -186 l 83 -85 q 88 -77 85 -77 q 96 -81 91 -77 q 268 -131 175 -131 l 278 -131 q 624 -37 463 -131 q 764 116 718 17 q 788 227 788 174 q 690 414 788 332 q 568 477 634 455 q 559 479 564 478 q 537 488 547 481 q 608 572 576 528 q 660 673 641 619 q 672 740 672 709 q 651 813 672 774 q 580 880 630 852 q 402 923 494 923 q 267 904 338 923 l 253 901 l 257 932 q 267 999 262 966 q 277 1147 277 1071 q 227 1204 277 1198 q 200 1207 213 1207 q 121 1145 144 1207 l 119 1139 q 92 972 100 1080 q 87 884 87 941 q 91 811 87 848 q 118 756 96 768 q 166 746 136 746 q 235 767 205 746 q 378 815 301 806 l 390 816 q 452 767 437 816 q 456 737 456 752 q 439 676 456 705 q 319 538 395 593 q 270 500 294 519 q 234 473 252 487 q 210 435 210 453 q 239 397 210 415 q 330 374 279 374 q 371 378 350 374 q 395 380 383 380 q 469 354 433 380 q 512 264 512 322 l 512 258 q 356 36 500 102 q 220 -4 261 -4 q 117 42 164 -4 q 111 48 114 45 q 93 72 100 58 q 75 88 87 83 q 45 95 60 95 q -2 80 26 95 q -39 39 -31 66 q -71 -152 -62 -56 q -81 -251 -75 -213 l -81 -260 q -63 -288 -81 -280 q -19 -298 -41 -298 z "},"'":{"ha":313,"x_min":-45,"x_max":357,"o":"m 56 505 q 114 518 88 505 q 156 571 140 532 q 256 803 203 688 l 297 898 q 351 1031 330 967 q 357 1061 357 1048 q 308 1106 357 1098 q 271 1111 289 1111 q 172 1044 208 1111 q 105 898 136 972 q -39 576 41 752 q -45 551 -45 562 q -43 540 -45 548 q -24 522 -41 532 q 50 505 8 505 l 56 505 z "},"(":{"ha":592,"x_min":23,"x_max":661,"o":"m 514 -112 q 558 -111 536 -112 q 643 -85 605 -111 q 661 -54 661 -69 q 643 -23 661 -39 q 610 -7 628 -12 q 548 4 579 4 q 486 -7 517 4 q 473 -9 479 -9 q 452 -3 461 -9 q 346 119 381 43 q 281 409 281 259 q 290 519 281 463 q 424 853 311 705 q 587 964 485 939 q 631 983 611 968 q 646 1010 646 996 q 631 1036 646 1023 q 520 1062 596 1062 q 451 1055 486 1062 q 165 868 272 1016 q 23 414 23 671 q 58 196 23 303 q 215 -34 106 52 q 466 -112 315 -112 l 495 -111 l 514 -112 z "},")":{"ha":633,"x_min":-50,"x_max":587,"o":"m 97 -112 l 116 -111 l 144 -112 q 396 -34 296 -112 q 553 196 505 52 q 587 414 587 303 q 446 868 587 671 q 160 1055 339 1016 q 91 1062 125 1062 q -20 1036 14 1062 q -36 1010 -36 1023 q -20 983 -36 996 q 24 964 0 968 q 187 853 126 939 q 321 519 300 705 q 330 409 330 463 q 265 119 330 259 q 159 -3 230 43 q 138 -9 149 -9 q 125 -7 132 -9 q 62 4 94 4 q 1 -7 32 4 q -32 -23 -17 -12 q -50 -54 -50 -39 q -32 -85 -50 -69 q 53 -111 6 -111 q 97 -112 75 -112 z "},"*":{"ha":698,"x_min":-49,"x_max":709,"o":"m 492 35 q 517 37 505 35 q 570 79 570 47 q 553 120 570 96 q 482 279 524 163 q 429 410 458 346 q 427 419 427 416 q 439 425 427 425 q 612 427 498 425 l 615 427 q 681 441 649 427 q 709 475 709 454 q 680 507 707 496 q 623 519 654 519 l 465 519 l 526 673 q 551 785 551 733 q 524 836 551 818 q 462 854 494 854 q 419 847 449 854 q 362 802 389 841 q 313 705 345 773 l 300 680 l 252 789 q 168 840 231 840 q 126 833 146 840 q 94 795 94 823 q 96 779 94 787 q 126 688 106 732 q 205 514 205 517 q 204 511 205 513 q 156 509 203 509 l 96 509 q 39 507 68 509 q -25 493 5 506 q -49 464 -49 483 q -41 447 -48 452 q -25 437 -34 441 q 43 423 8 423 l 72 423 q 173 425 123 423 l 176 425 q 189 418 189 425 q 186 406 189 414 l 159 337 q 98 155 124 248 q 95 136 95 145 q 130 93 95 106 q 189 79 159 79 q 244 91 210 79 q 306 153 279 103 l 328 199 l 340 224 q 362 178 351 201 q 395 102 382 142 q 492 35 413 35 z "},"+":{"ha":514,"x_min":-75,"x_max":528,"o":"m 217 85 q 272 96 245 85 q 296 113 290 103 q 302 138 302 123 l 302 144 q 300 233 300 189 l 300 283 l 300 358 l 300 429 q 304 443 300 439 q 319 447 308 447 q 406 446 363 446 l 435 446 q 505 465 473 446 q 528 498 528 481 q 505 530 528 514 q 425 551 468 551 l 313 547 q 299 561 299 547 l 300 614 q 294 781 300 697 q 277 820 294 808 q 224 835 251 835 q 183 827 204 835 q 158 802 163 819 q 144 561 150 779 q 131 545 144 545 l 115 546 q 64 547 90 547 q 12 546 38 547 q -58 524 -26 545 q -75 497 -75 511 q -58 470 -75 484 q 62 445 -22 445 q 93 446 77 445 q 123 447 108 447 q 140 431 140 447 l 140 429 q 138 312 138 370 q 132 143 137 227 l 132 136 q 138 112 132 121 q 161 96 144 103 q 217 85 189 85 z "},",":{"ha":245,"x_min":-62,"x_max":268,"o":"m 76 -149 q 180 -117 119 -149 q 263 16 241 -85 q 268 64 268 41 q 137 233 268 186 q 43 250 92 250 q -42 230 -1 250 q -62 204 -62 220 q -54 186 -62 192 q 8 168 -31 168 l 21 168 q 33 170 27 170 q 75 140 55 170 q 100 56 100 98 q 96 13 100 45 q 61 -60 91 -20 q 41 -70 54 -70 q 31 -69 35 -70 q 20 -68 26 -68 q -25 -81 -8 -68 q -35 -101 -35 -89 q -13 -127 -35 -117 l -11 -127 q 76 -149 34 -149 z "},"-":{"ha":665,"x_min":-73,"x_max":678,"o":"m 370 418 l 526 419 q 631 445 582 419 q 678 503 677 466 q 633 561 677 538 q 510 592 575 590 q 344 596 427 596 q 188 593 266 596 l 144 593 q -52 545 8 593 q -73 504 -73 524 q -52 463 -73 484 q -16 441 -35 449 q 91 418 35 419 l 370 418 z "},".":{"ha":119,"x_min":-69,"x_max":151,"o":"m 42 -114 q 97 -105 70 -114 q 149 -41 145 -90 q 151 9 151 -16 q 149 57 151 33 q 35 157 140 157 l 30 157 q 1 154 16 157 q -67 81 -60 142 q -69 36 -69 59 q -64 -43 -69 -12 q 42 -114 -56 -114 z "},"/":{"ha":577,"x_min":-65,"x_max":602,"o":"m 43 -59 q 151 -1 117 -59 l 168 28 q 188 66 178 47 q 530 804 364 433 l 534 814 q 600 990 575 899 q 602 1005 602 998 q 585 1040 602 1025 q 506 1061 555 1061 q 469 1059 500 1061 q 404 1013 437 1058 l 395 998 q 130 454 325 890 q 75 334 102 394 q -58 33 4 185 q -65 1 -65 15 q -20 -50 -65 -35 q 26 -58 7 -58 l 43 -59 z "},":":{"ha":325,"x_min":33,"x_max":283,"o":"m 163 130 q 260 158 237 132 q 283 229 283 184 l 283 239 q 258 376 283 309 q 216 419 246 407 q 151 433 183 433 q 86 420 118 433 q 43 367 50 406 q 37 301 37 334 q 45 228 37 264 q 76 157 54 177 q 136 132 98 137 q 163 130 148 130 m 151 559 q 220 572 186 559 q 262 618 254 584 q 275 719 275 668 q 271 772 275 745 q 225 836 266 817 q 153 850 189 850 q 33 751 33 850 l 33 741 q 33 718 33 729 l 33 705 q 40 626 33 665 q 83 572 47 587 q 151 559 117 559 z "},";":{"ha":291,"x_min":12,"x_max":275,"o":"m 111 576 q 175 592 146 576 q 211 661 204 607 q 215 709 214 685 l 218 753 l 219 765 q 182 817 219 802 q 116 831 149 831 q 61 822 88 831 q 23 798 33 813 q 13 756 13 783 l 12 709 q 18 644 12 684 q 69 582 20 593 l 71 582 q 111 576 87 576 m 134 152 q 185 158 149 152 q 258 220 222 163 q 275 290 275 254 q 117 435 275 435 q 47 414 81 435 q 31 390 31 401 q 51 366 31 377 q 91 357 70 357 l 96 357 q 117 342 112 357 q 126 294 126 319 q 121 258 126 276 q 107 230 116 237 q 77 222 99 224 q 44 197 44 220 q 65 170 44 181 q 134 152 95 152 z "},"<":{"ha":642,"x_min":-52,"x_max":666,"o":"m 555 -31 q 647 -3 606 -31 q 666 28 666 11 q 654 56 666 41 l 637 76 q 262 467 477 289 q 190 535 190 531 q 199 545 190 539 q 245 579 223 560 q 572 921 425 734 q 619 1004 603 958 q 624 1030 624 1019 q 585 1078 624 1063 q 532 1088 557 1088 q 441 1052 484 1088 q 357 968 397 1013 q 54 664 217 804 q -29 582 9 627 q -52 534 -52 558 q -33 489 -52 511 q -11 465 -22 475 q 134 324 57 390 q 318 138 231 237 q 433 18 374 77 q 555 -31 484 -31 z "},"=":{"ha":713,"x_min":-8,"x_max":703,"o":"m 194 184 q 305 192 251 184 q 393 198 351 198 q 430 197 412 198 l 537 197 q 641 222 592 198 q 676 247 661 232 q 692 286 692 261 q 641 347 690 324 q 515 374 580 374 q 476 372 496 374 q 342 366 371 366 q 282 367 313 366 q 222 370 252 370 q 121 361 172 370 q 20 322 66 353 q -8 275 -8 298 q 22 228 -8 252 q 69 204 43 212 q 194 184 130 184 m 198 553 l 220 554 q 437 563 332 557 q 486 564 462 564 l 492 564 q 587 573 540 564 q 684 614 642 580 q 703 651 703 632 q 686 686 703 668 q 637 715 665 706 q 510 734 574 734 q 484 734 496 734 l 477 734 q 222 727 350 730 q 127 719 174 727 q 22 675 68 711 q 3 637 3 656 q 23 600 3 618 q 72 572 45 581 q 198 553 129 553 z "},">":{"ha":690,"x_min":-23,"x_max":694,"o":"m 87 -31 q 210 18 159 -31 q 325 138 269 77 q 509 324 412 237 q 654 465 586 390 q 675 489 665 475 q 694 534 694 511 q 672 582 694 558 q 589 664 634 627 q 286 968 426 804 q 201 1052 246 1013 q 111 1088 159 1088 q 58 1078 85 1088 q 19 1030 19 1063 q 24 1004 19 1019 q 71 921 40 958 q 398 579 218 734 q 444 545 420 560 q 453 535 453 539 q 380 467 453 531 q 6 76 166 289 l -11 56 q -23 28 -23 41 q -4 -3 -23 11 q 87 -31 37 -31 z "},"?":{"ha":740,"x_min":-26,"x_max":722,"o":"m 355 -91 q 471 9 471 -91 l 471 14 q 484 289 475 152 q 543 424 488 366 q 722 867 722 610 l 722 881 q 566 1100 718 1044 q 393 1130 477 1130 q 87 1020 231 1130 q -17 882 18 965 q -26 844 -26 861 q 7 790 -26 810 q 71 775 33 775 q 102 777 77 775 q 160 810 128 778 q 268 922 198 852 q 378 994 314 972 q 397 998 388 998 q 453 865 453 998 q 439 748 453 806 q 304 485 406 599 q 231 327 244 416 q 226 238 226 283 q 224 189 226 214 l 224 180 q 238 -7 224 85 q 297 -81 245 -62 q 355 -91 326 -91 m 349 -415 q 460 -316 460 -409 q 457 -283 460 -301 q 416 -230 451 -245 q 340 -214 378 -214 q 264 -231 302 -214 q 227 -288 227 -248 q 349 -415 227 -410 z "},"@":{"ha":1249,"x_min":16,"x_max":1215,"o":"m 572 -54 q 690 -43 629 -54 q 971 79 843 -13 q 1055 161 1020 114 q 1063 180 1063 172 q 1045 201 1063 193 q 1008 210 1027 210 q 975 203 991 210 l 934 187 q 838 143 884 170 q 770 108 805 123 q 770 107 770 108 q 613 58 696 68 l 593 58 q 380 155 465 58 q 243 498 243 305 q 250 591 243 543 q 444 941 283 802 q 644 1020 538 1020 q 779 989 709 1020 q 978 819 901 930 q 1046 614 1046 719 q 998 435 1046 526 l 995 429 q 970 401 983 401 l 968 401 q 953 439 955 407 l 951 446 q 944 564 944 504 l 945 605 q 944 676 945 650 q 882 797 944 752 q 803 840 844 823 q 647 876 724 876 q 450 814 545 876 q 281 534 308 710 q 279 492 279 512 q 361 296 279 381 q 543 220 433 220 q 625 230 582 220 q 785 344 724 261 q 795 352 791 352 q 805 346 800 352 q 950 284 865 284 q 1154 406 1086 284 q 1215 630 1215 510 l 1215 644 q 1123 891 1215 785 q 1081 939 1119 897 q 823 1104 965 1063 q 652 1128 741 1128 q 196 937 376 1128 q 16 502 16 751 q 165 119 16 281 q 406 -31 273 6 q 572 -54 486 -54 m 581 345 q 568 353 574 345 q 531 467 531 405 q 613 718 531 603 l 618 725 q 662 754 642 754 q 698 745 676 754 q 781 690 745 727 q 788 677 788 684 l 787 671 q 698 467 751 565 q 593 349 659 395 q 581 345 585 345 z "},"A":{"ha":859,"x_min":31,"x_max":806,"o":"m 717 -73 q 764 -62 742 -73 q 806 5 806 -44 q 803 33 806 18 q 786 214 792 123 q 735 720 767 484 q 678 941 722 833 q 542 1071 627 1048 q 465 1082 503 1082 q 382 1067 422 1082 q 220 940 281 1029 q 90 662 129 812 q 31 210 31 449 l 31 142 q 40 33 31 92 q 54 1 43 12 q 114 -20 82 -20 q 146 -14 130 -20 q 190 40 187 -3 l 221 309 q 309 728 242 524 q 439 949 347 854 q 454 958 448 958 l 457 958 q 467 946 460 958 q 564 479 529 831 l 577 361 q 621 4 610 124 q 642 -44 623 -24 q 717 -73 673 -73 m 370 415 q 469 425 421 417 l 481 426 q 539 449 513 429 q 553 475 553 462 q 538 501 553 488 q 493 521 518 517 q 429 526 461 526 q 399 525 414 526 q 370 524 385 524 q 284 502 325 524 q 258 467 260 489 q 285 432 260 445 q 361 415 323 415 l 370 415 z "},"B":{"ha":921,"x_min":61,"x_max":886,"o":"m 475 -50 l 496 -50 q 863 197 763 -37 q 886 311 886 254 q 869 412 886 361 q 699 555 820 526 q 652 568 692 558 l 701 621 q 812 865 798 724 q 814 893 814 880 q 697 1065 814 1013 q 578 1087 639 1087 q 530 1084 554 1087 q 282 935 377 1058 q 256 899 269 918 l 241 880 q 235 925 237 903 q 224 987 231 957 q 197 1021 218 1010 q 144 1033 171 1033 q 90 1021 117 1033 q 66 988 68 1011 q 62 837 62 956 l 61 584 l 62 330 q 77 155 64 242 q 130 98 82 106 q 155 94 148 94 l 166 94 q 186 98 177 98 q 236 60 212 98 l 248 43 q 475 -50 313 -50 m 441 77 q 380 99 416 77 q 328 139 352 117 q 296 166 313 153 q 261 231 261 191 q 263 250 261 240 q 277 439 277 344 q 275 511 277 475 l 275 523 q 288 608 275 567 q 417 876 326 755 q 536 978 467 939 q 557 985 548 985 q 567 983 561 985 q 584 965 574 981 q 597 916 597 941 q 594 892 597 904 q 486 666 574 763 q 321 526 417 580 q 317 524 319 525 q 315 523 316 523 q 285 481 285 503 l 285 479 q 326 437 288 451 q 393 425 359 425 q 471 441 433 425 q 543 459 513 459 q 614 388 606 459 l 614 365 q 500 111 604 216 q 441 77 470 77 z "},"C":{"ha":829,"x_min":17,"x_max":821,"o":"m 371 -5 q 459 2 391 -5 q 618 85 527 9 q 814 340 736 197 l 817 348 q 821 363 821 356 q 805 392 821 380 q 742 412 776 412 q 696 405 728 412 q 639 355 665 397 q 560 237 604 293 q 425 119 505 165 q 409 114 416 114 q 389 126 398 114 q 382 136 386 131 q 374 146 378 140 q 325 290 334 214 q 318 407 318 349 q 416 840 318 631 q 505 957 448 908 q 533 967 517 967 l 536 967 q 641 923 595 960 q 715 898 675 898 q 747 902 730 898 q 791 954 791 913 q 770 1010 791 986 q 699 1062 741 1045 q 505 1105 604 1105 q 378 1088 442 1105 q 125 871 207 1031 q 17 418 17 661 q 41 256 17 335 q 197 41 77 118 q 371 -5 278 -5 z "},"D":{"ha":970,"x_min":59,"x_max":912,"o":"m 176 -4 q 233 7 205 -4 q 263 38 256 16 q 271 48 266 48 q 279 46 275 48 q 481 10 382 10 q 555 15 517 10 q 802 184 713 47 q 912 579 912 355 q 867 827 912 705 q 648 1028 800 983 q 558 1042 603 1042 q 357 968 454 1042 q 283 895 316 936 l 276 897 l 276 1004 q 237 1061 275 1045 q 181 1072 210 1072 q 85 1010 97 1072 q 61 572 68 922 q 59 429 59 516 q 83 50 59 193 q 118 7 89 19 q 176 -4 146 -4 m 418 101 q 384 106 402 101 q 295 140 336 113 q 277 157 285 148 q 269 182 269 167 l 269 342 l 275 342 l 276 390 q 275 424 276 407 l 275 437 q 326 673 275 560 q 463 887 371 795 q 523 933 490 914 q 543 939 533 939 q 566 932 555 939 q 652 810 631 888 q 673 653 673 733 q 668 570 673 612 q 590 275 653 416 q 500 138 557 199 q 418 101 465 101 z "},"E":{"ha":837,"x_min":28,"x_max":868,"o":"m 376 -9 q 642 65 501 -9 q 721 101 681 84 q 840 156 773 123 q 868 185 868 167 q 852 210 868 203 q 828 216 841 214 q 819 218 824 218 l 812 218 q 748 205 779 218 q 667 176 708 191 q 440 116 558 132 q 419 115 429 115 q 379 124 395 115 q 353 172 363 134 l 351 183 q 334 363 334 273 q 342 454 334 450 q 352 456 345 456 q 517 460 389 456 q 604 486 564 460 q 633 527 633 506 q 604 568 633 547 q 498 594 559 594 q 409 589 453 594 q 359 586 368 586 q 341 602 341 586 l 342 608 q 344 648 344 629 l 345 709 q 347 770 347 740 q 336 920 347 846 l 336 925 q 347 932 336 932 l 526 936 q 681 980 631 938 q 698 1013 698 996 q 681 1045 698 1029 q 649 1065 667 1058 q 562 1086 607 1083 q 417 1090 490 1090 q 210 1081 314 1090 q 66 1045 135 1078 q 40 1028 52 1038 q 28 1000 28 1018 q 42 971 29 981 q 69 956 54 962 l 71 956 q 145 939 100 943 q 116 751 123 846 q 111 699 113 715 q 82 326 82 434 q 88 201 82 263 q 254 6 106 47 q 376 -9 315 -9 z "},"F":{"ha":713,"x_min":4,"x_max":715,"o":"m 262 -23 q 363 76 354 -18 q 367 186 367 132 q 364 289 367 255 l 361 436 q 371 448 361 448 l 395 448 q 505 453 450 448 l 542 456 q 650 485 600 456 q 671 517 671 501 q 650 550 671 534 q 597 571 626 566 q 391 590 495 590 l 378 590 q 361 595 366 590 q 354 740 354 601 l 355 855 q 351 896 355 875 q 332 938 348 917 q 493 943 414 943 l 552 944 q 680 977 620 944 q 715 1024 715 1000 q 681 1071 715 1047 q 591 1101 639 1095 q 487 1108 539 1108 l 435 1110 q 325 1114 380 1114 q 142 1105 233 1114 q 27 1066 79 1102 q 4 1027 4 1046 q 26 987 4 1007 q 85 959 53 967 q 176 942 120 949 q 155 900 160 922 q 132 545 132 808 l 132 526 l 132 437 q 132 237 132 337 q 148 66 133 151 q 262 -23 169 -23 z "},"G":{"ha":781,"x_min":14,"x_max":777,"o":"m 374 -21 q 556 51 473 -21 q 695 235 644 130 l 704 254 q 747 381 736 314 q 756 395 747 388 q 777 429 777 415 q 757 461 777 446 q 691 486 727 482 q 633 490 661 490 l 505 490 q 419 473 460 490 q 388 457 401 467 q 372 426 374 447 q 386 395 373 406 q 414 378 398 385 l 417 376 q 438 369 427 372 q 444 367 441 368 q 514 359 479 359 q 536 359 526 359 l 556 359 q 567 354 567 359 q 563 343 567 350 l 484 198 q 404 111 453 146 q 389 104 395 104 q 371 117 379 104 q 331 180 349 146 q 270 421 273 294 q 268 483 268 452 q 338 826 268 661 q 471 998 379 931 q 510 1013 492 1013 q 535 1007 522 1013 q 587 994 560 994 q 633 1004 610 994 q 661 1036 661 1017 q 646 1065 661 1049 q 488 1122 594 1122 q 345 1088 414 1122 q 100 845 180 1008 q 14 468 14 673 q 39 277 14 372 q 189 38 73 132 q 374 -21 268 -21 z "},"H":{"ha":998,"x_min":57,"x_max":917,"o":"m 192 -13 q 291 62 271 -13 q 296 230 296 87 q 288 574 296 402 q 289 1060 288 917 q 251 1115 288 1101 q 190 1126 221 1126 q 168 1125 179 1126 q 81 1041 88 1120 q 58 726 58 884 q 57 630 57 678 q 68 279 57 455 q 84 77 72 191 q 182 -13 96 -6 l 192 -13 m 817 -9 q 907 60 885 -4 q 917 124 917 92 q 907 433 917 255 q 899 655 902 545 q 888 919 896 787 l 886 954 q 876 1053 884 1004 q 838 1103 871 1089 q 783 1114 810 1114 q 692 1059 701 1114 q 677 672 682 988 l 677 671 q 700 153 677 428 q 719 54 702 102 q 817 -9 747 -9 m 481 545 q 578 559 530 545 q 627 609 626 573 q 612 642 627 631 q 578 659 597 652 q 503 671 541 671 q 479 670 491 671 q 456 671 468 671 q 380 659 417 671 q 347 642 361 652 q 331 610 332 631 q 378 562 332 574 q 481 545 430 545 z "},"I":{"ha":578,"x_min":-7,"x_max":569,"o":"m 182 -33 q 368 -25 275 -33 q 450 -20 409 -22 q 540 9 499 -18 q 569 54 569 32 q 541 98 569 76 q 387 133 488 133 l 381 133 q 401 184 397 158 q 404 229 404 207 l 404 476 q 406 673 404 574 q 410 745 410 709 q 378 970 410 858 l 389 970 q 516 994 461 970 q 547 1014 534 1002 q 561 1047 560 1026 q 517 1098 559 1080 q 399 1124 460 1124 l 160 1124 q 16 1083 74 1124 q -7 1042 -7 1063 q 14 1002 -7 1023 q 163 962 65 962 l 186 962 q 209 961 205 962 q 212 954 212 960 l 212 951 q 198 722 198 836 q 196 532 196 680 q 201 235 196 383 l 201 226 l 201 214 q 214 151 201 181 q 223 130 223 136 q 222 126 223 128 q 199 122 220 123 q 191 121 197 121 q 80 87 132 116 q 47 41 47 64 q 79 -4 47 19 q 182 -33 127 -32 z "},"J":{"ha":635,"x_min":-41,"x_max":642,"o":"m 245 -23 q 430 61 352 -23 q 484 151 463 102 q 525 368 525 256 q 516 667 525 521 q 508 848 511 758 l 508 854 q 494 978 508 917 q 492 988 492 984 q 509 998 492 998 l 516 998 q 618 1028 572 998 q 642 1067 642 1047 q 617 1105 642 1086 q 549 1131 587 1126 q 479 1136 515 1136 l 437 1135 l 397 1136 q 357 1135 378 1135 l 311 1136 q 241 1132 276 1136 q 141 1097 186 1128 q 119 1059 119 1078 q 140 1021 119 1040 q 191 997 163 1004 q 276 985 233 985 l 292 985 q 301 978 301 985 l 300 973 q 296 933 298 954 l 294 904 q 286 706 286 805 q 289 584 286 645 q 292 479 292 531 q 229 88 292 178 q 213 77 222 77 q 197 85 205 77 q 146 156 165 117 q 75 214 123 199 q 35 220 54 220 q -18 208 7 220 q -41 172 -41 193 q -22 130 -41 155 l -12 116 q 201 -20 64 -2 q 245 -23 224 -23 z "},"K":{"ha":785,"x_min":68,"x_max":776,"o":"m 678 -36 q 760 -14 728 -36 q 774 12 774 -1 q 773 20 774 16 q 688 219 742 117 q 640 318 663 269 q 541 507 596 416 q 481 577 518 548 q 476 584 476 581 q 481 594 476 589 q 601 781 538 689 l 641 839 q 766 1029 708 931 q 776 1060 776 1046 q 740 1097 776 1085 q 687 1107 715 1107 q 642 1101 673 1107 q 574 1050 612 1096 l 541 1008 q 342 733 438 877 q 277 637 311 685 l 269 820 q 258 1041 266 947 q 224 1099 258 1080 q 163 1113 194 1113 q 103 1099 134 1113 q 73 1061 78 1088 q 70 1019 70 1040 q 68 762 68 981 q 75 180 68 471 q 77 124 77 152 q 73 59 77 92 q 71 43 71 50 q 103 -4 71 11 q 185 -24 144 -24 q 267 -4 227 -24 q 299 43 299 12 q 296 65 299 54 q 286 335 293 77 l 286 372 q 292 387 286 384 q 317 404 304 395 q 349 425 332 416 q 358 427 355 427 q 366 419 362 427 q 433 283 399 351 q 469 210 452 247 q 557 45 509 125 q 598 -12 579 7 q 678 -36 627 -36 z "},"L":{"ha":780,"x_min":50,"x_max":801,"o":"m 349 -24 q 534 22 444 -24 q 705 140 625 73 q 745 172 724 157 q 801 253 801 214 q 745 296 801 296 l 737 296 q 583 243 652 296 q 413 122 503 175 q 376 107 389 107 q 367 110 374 107 q 350 146 360 113 q 322 300 326 221 q 315 513 315 406 q 319 672 315 593 l 319 1002 q 311 1069 318 1036 q 288 1103 307 1091 q 220 1124 254 1124 q 107 1036 132 1124 q 58 669 68 854 q 50 399 50 535 l 50 345 q 65 193 50 269 q 281 -18 100 12 q 349 -24 315 -24 z "},"M":{"ha":1228,"x_min":33,"x_max":1147,"o":"m 165 -8 q 239 39 231 -8 q 250 161 248 100 l 250 197 q 272 519 250 359 q 369 861 297 697 q 381 881 373 874 q 387 864 384 876 q 429 556 421 712 l 429 551 q 444 382 440 414 q 481 332 449 345 q 557 315 519 315 q 633 332 595 315 q 673 380 665 345 q 679 452 679 416 q 674 526 679 481 q 671 570 671 548 q 674 613 671 591 q 760 863 699 744 q 825 956 785 911 l 829 945 q 856 709 855 829 l 857 631 q 853 446 857 538 q 852 342 852 394 q 860 106 852 224 q 917 20 861 44 q 999 3 958 3 q 1083 20 1041 3 q 1137 92 1131 39 q 1147 349 1147 169 q 1118 837 1147 593 q 1067 1027 1108 936 q 859 1141 1013 1141 q 791 1133 825 1141 q 623 1021 688 1106 l 595 989 q 566 1036 582 1015 q 402 1107 506 1107 q 255 1063 315 1107 q 157 939 193 1010 q 35 422 38 694 q 33 363 33 393 q 83 43 33 193 q 165 -8 98 -8 z "},"N":{"ha":997,"x_min":60,"x_max":926,"o":"m 182 -33 q 273 28 261 -33 q 283 171 283 99 l 283 180 q 288 479 287 471 l 288 487 q 295 482 293 485 q 297 476 296 479 q 299 472 298 473 l 345 370 q 494 112 404 233 q 666 26 561 26 l 688 26 q 852 155 816 33 q 863 199 859 177 q 905 562 897 379 q 926 943 926 857 q 922 1038 926 990 q 807 1123 916 1123 q 695 1039 697 1123 q 690 963 694 1001 q 686 857 686 910 l 686 827 q 682 709 686 768 l 677 627 q 642 293 671 458 q 636 297 638 294 q 634 302 635 300 q 633 305 633 304 q 562 470 598 388 q 463 700 510 584 q 339 985 406 844 q 293 1037 325 1019 q 205 1058 249 1058 q 121 1039 163 1058 q 82 987 87 1025 q 60 622 60 821 l 60 439 q 83 37 60 129 q 182 -33 100 -33 z "},"O":{"ha":970,"x_min":23,"x_max":913,"o":"m 455 -48 q 677 21 577 -48 q 857 269 805 119 q 913 593 913 427 q 905 715 913 654 q 846 920 897 823 q 659 1095 769 1051 q 515 1121 591 1121 q 415 1110 467 1121 q 138 911 235 1069 q 23 505 23 724 l 23 495 q 26 441 25 468 q 111 144 32 283 q 455 -48 235 -48 m 484 77 q 465 83 474 77 q 393 168 420 119 q 323 421 330 288 q 320 483 320 458 q 412 865 321 686 q 509 987 448 936 q 538 1002 526 1002 q 568 988 549 1002 q 653 879 623 943 q 727 581 727 736 q 583 151 727 338 q 498 81 548 108 q 484 77 491 77 z "},"P":{"ha":880,"x_min":57,"x_max":848,"o":"m 176 -5 q 273 85 252 -5 q 285 231 285 158 q 286 273 285 252 q 294 288 286 288 q 303 286 298 288 q 382 274 342 274 q 443 281 412 274 q 665 404 572 311 q 847 743 819 539 q 848 777 848 760 q 795 968 848 873 q 639 1112 741 1063 q 445 1147 550 1147 q 288 1114 363 1147 q 273 1111 280 1111 q 260 1113 267 1111 q 201 1122 231 1122 q 127 1108 164 1122 q 83 1053 91 1095 q 62 804 63 929 q 60 722 62 762 q 57 562 57 639 q 58 467 57 513 q 60 376 60 420 q 65 172 62 271 q 81 62 67 116 q 176 -5 98 -5 m 349 390 q 315 414 339 390 l 303 425 q 291 454 291 437 q 294 600 291 522 l 311 978 q 317 1002 311 993 q 340 1013 323 1011 q 389 1029 347 1015 q 429 1036 410 1036 q 515 994 477 1036 q 589 795 589 902 q 573 695 589 747 q 395 420 528 528 q 349 390 359 390 z "},"Q":{"ha":901,"x_min":-7,"x_max":828,"o":"m 627 -28 q 666 -24 638 -28 q 721 22 694 -20 q 744 68 734 44 q 810 330 789 196 q 828 579 828 454 q 824 698 828 639 q 749 983 819 848 q 611 1114 703 1073 q 444 1150 528 1150 q 273 1111 359 1150 q 22 815 84 1018 q -7 658 -7 738 q -3 593 -7 625 q 214 353 37 412 q 342 333 277 333 q 568 391 463 333 q 567 347 568 371 q 559 214 566 280 l 554 153 q 550 113 553 133 q 545 44 545 78 l 545 35 q 574 -17 547 -3 q 627 -28 597 -28 m 379 464 l 376 464 q 350 475 365 464 q 277 618 281 531 l 277 644 q 374 946 277 809 q 438 1004 401 980 q 450 1008 444 1008 q 463 1002 457 1008 q 510 928 495 970 q 572 568 570 767 l 572 562 l 574 538 q 569 517 574 523 q 538 502 557 506 q 521 496 529 499 q 379 464 452 470 z "},"R":{"ha":930,"x_min":64,"x_max":885,"o":"m 189 -57 q 245 -43 218 -57 q 286 18 273 -29 q 305 260 305 94 q 304 317 305 289 q 321 336 304 335 q 505 365 413 347 l 513 366 q 525 362 520 366 q 532 345 530 358 q 637 18 566 176 q 655 -5 643 4 q 743 -27 688 -27 q 825 -5 792 -27 q 845 35 845 7 q 841 84 842 60 q 836 148 839 116 q 741 454 818 310 q 738 463 738 459 q 743 474 738 469 q 885 783 885 610 q 874 903 885 812 q 699 1096 863 994 q 486 1147 598 1147 l 467 1147 q 256 1101 350 1147 q 244 1098 250 1098 q 234 1100 239 1098 q 185 1108 210 1108 q 90 1046 104 1108 q 68 825 68 936 q 66 695 66 760 q 64 541 66 618 q 65 426 64 469 l 67 338 q 90 20 67 134 q 115 -34 98 -17 q 189 -57 138 -57 m 310 431 q 304 436 304 431 q 302 540 302 457 q 290 930 300 735 l 290 933 q 308 962 290 951 q 433 1009 367 996 q 450 1010 441 1010 q 505 990 479 1010 q 594 804 594 921 l 593 796 q 410 465 593 581 q 339 438 377 445 q 310 431 312 431 z "},"S":{"ha":926,"x_min":1,"x_max":894,"o":"m 449 -73 q 634 -45 542 -73 q 851 108 772 -10 q 894 245 894 176 q 879 346 894 281 q 764 471 863 410 q 584 535 680 519 q 513 547 548 542 q 427 562 469 554 q 355 643 355 574 l 355 660 q 503 965 355 844 q 562 987 532 987 q 622 964 591 987 l 624 961 q 658 929 644 947 q 758 890 690 890 q 834 914 802 890 q 866 966 866 938 q 852 1006 866 985 q 574 1131 777 1119 l 545 1132 q 484 1129 515 1132 q 262 1058 363 1125 q 41 696 75 923 q 38 661 38 671 q 214 454 38 523 q 450 407 328 414 q 577 364 556 403 q 596 298 596 331 l 596 292 q 524 150 591 209 q 383 96 461 96 q 290 143 321 96 l 276 164 q 231 225 257 197 q 102 278 174 278 q 52 272 78 278 q 1 213 1 257 q 31 128 1 179 q 41 107 36 119 q 171 -19 84 22 q 373 -70 266 -64 l 411 -72 q 449 -73 430 -73 z "},"T":{"ha":650,"x_min":-12,"x_max":730,"o":"m 347 -37 q 439 47 434 -28 q 448 512 447 279 l 450 744 q 452 819 452 795 q 443 928 452 873 l 443 932 q 449 937 443 937 l 454 937 l 503 937 l 564 937 q 692 970 632 937 q 725 1002 713 981 q 730 1025 730 1013 q 696 1076 730 1052 q 585 1110 645 1106 q 404 1118 495 1118 l 271 1117 q 165 1114 218 1117 q 20 1076 87 1113 q -12 1029 -12 1053 q 19 981 -12 1005 q 197 940 85 940 l 240 939 q 252 932 252 939 q 251 924 252 929 q 234 844 238 885 l 232 825 q 207 390 207 635 q 228 41 207 215 q 273 -23 233 -4 q 338 -37 304 -37 l 347 -37 z "},"U":{"ha":925,"x_min":53,"x_max":882,"o":"m 376 -41 q 450 -33 413 -41 q 657 119 583 3 q 740 273 707 191 q 869 787 840 522 q 882 1004 882 896 q 876 1067 882 1048 q 845 1097 869 1086 q 775 1112 810 1112 q 705 1097 741 1112 q 671 1052 675 1085 l 667 1029 q 663 1001 665 1015 q 632 723 651 845 q 521 312 602 511 q 419 141 484 218 q 408 133 412 133 q 397 144 401 133 q 348 321 361 230 q 311 779 314 549 q 310 787 311 783 l 310 817 q 311 907 310 862 q 314 977 314 958 q 311 1048 314 1013 q 271 1098 305 1084 q 212 1109 239 1109 q 98 1029 139 1109 q 87 994 91 1012 q 56 749 59 873 q 53 623 53 686 q 71 322 53 472 q 136 98 84 205 q 272 -24 180 10 q 376 -41 323 -41 z "},"V":{"ha":849,"x_min":5,"x_max":869,"o":"m 386 -58 q 444 -48 403 -58 q 515 20 486 -39 q 621 316 576 165 q 703 565 659 441 q 787 821 747 692 q 859 1010 816 918 q 869 1045 869 1029 q 831 1090 869 1075 q 761 1105 796 1105 q 686 1088 724 1105 q 646 1045 656 1076 l 629 991 l 602 910 q 526 654 562 783 q 472 471 500 563 l 425 318 l 420 319 l 418 326 q 322 734 374 531 q 208 1040 287 896 q 132 1100 179 1086 q 93 1106 113 1106 q 35 1093 64 1106 q 5 1057 5 1080 q 27 980 5 1048 q 140 549 81 817 q 203 289 170 418 q 226 198 215 243 q 273 24 247 110 q 302 -28 279 -7 q 386 -58 341 -58 z "},"W":{"ha":1289,"x_min":44,"x_max":1286,"o":"m 822 -45 q 846 -44 834 -45 q 959 23 919 -39 q 1012 134 990 77 q 1013 138 1012 136 q 1276 998 1128 439 q 1282 1022 1278 1010 q 1286 1044 1286 1034 q 1278 1072 1286 1059 q 1217 1122 1257 1109 q 1171 1128 1194 1128 q 1055 1082 1107 1128 q 1033 1045 1038 1067 l 1014 975 q 950 705 981 856 q 874 378 918 540 q 859 325 870 360 l 848 288 l 841 269 q 837 279 839 275 l 832 294 q 710 629 781 465 q 547 732 667 732 q 484 724 515 732 q 405 643 420 709 q 384 565 396 604 q 367 507 376 540 q 330 401 354 453 l 329 410 q 298 634 320 456 q 263 892 283 764 q 233 1049 254 971 q 134 1110 216 1110 q 44 1048 45 1110 l 44 1019 q 59 771 44 895 l 71 661 q 98 419 83 540 q 149 90 117 254 q 283 1 163 1 q 412 65 384 1 q 464 183 436 125 q 538 353 492 241 l 548 326 q 680 31 602 174 q 822 -45 720 -45 z "},"X":{"ha":806,"x_min":-3,"x_max":804,"o":"m 702 -94 q 787 -69 752 -94 q 804 -37 804 -56 q 788 7 804 -26 q 767 50 783 16 q 555 478 669 268 q 552 490 552 484 q 556 507 552 499 q 750 958 661 728 l 760 981 q 792 1088 783 1032 l 793 1099 q 766 1139 793 1126 q 705 1154 737 1154 q 661 1149 691 1154 q 600 1108 631 1143 q 444 847 535 1028 l 414 789 l 412 783 q 400 768 406 772 q 261 994 335 884 q 77 1140 170 1140 q 40 1135 59 1140 q -3 1094 -3 1126 q 3 1066 -3 1082 q 58 933 28 998 q 273 541 156 732 q 279 522 279 531 q 276 511 279 517 q 193 325 233 418 q 165 262 180 294 q 79 53 119 159 q 73 25 73 38 q 112 -25 73 -8 q 181 -39 146 -39 q 227 -33 204 -39 q 327 45 294 -16 l 344 74 q 433 241 392 152 l 456 197 q 590 -45 534 41 q 702 -94 628 -94 z "},"Y":{"ha":774,"x_min":12,"x_max":812,"o":"m 363 -83 q 436 -61 401 -83 q 479 15 471 -39 q 482 67 482 41 l 481 90 q 458 371 476 220 l 458 376 q 464 391 458 386 q 505 441 489 412 q 806 1009 666 720 q 812 1042 812 1026 q 793 1096 812 1066 q 734 1127 774 1125 q 582 1038 632 1125 q 495 864 534 954 q 380 649 444 747 q 342 747 361 699 q 273 941 303 843 l 271 947 q 214 1092 253 1023 q 180 1124 201 1114 q 113 1139 146 1139 q 46 1125 79 1139 q 12 1074 12 1111 l 12 1072 q 142 588 28 892 q 183 469 163 529 q 224 394 195 427 q 229 382 229 390 l 228 339 q 236 180 228 260 q 239 101 239 141 q 243 21 239 61 q 304 -71 247 -43 q 358 -83 330 -83 l 363 -83 z "},"Z":{"ha":861,"x_min":-3,"x_max":905,"o":"m 648 -62 q 768 -57 708 -62 q 885 -15 833 -54 q 905 22 905 3 q 886 58 905 40 q 850 82 870 74 q 642 113 768 113 l 576 112 l 520 113 l 478 112 q 415 113 447 112 q 338 115 377 115 q 326 122 326 115 q 328 132 326 126 q 338 152 334 142 q 359 192 349 172 q 680 777 528 480 l 684 785 q 760 958 729 868 q 766 994 766 977 q 714 1073 766 1044 q 603 1107 662 1101 q 437 1120 520 1117 q 331 1124 382 1124 q 94 1103 212 1124 q 19 1076 54 1097 q -3 1042 -3 1059 q 18 1008 -3 1025 q 148 981 59 981 l 235 981 l 283 981 q 454 974 369 981 q 469 964 469 972 q 467 954 469 960 l 452 918 q 433 870 444 894 q 252 509 351 685 q 41 71 41 130 q 87 -3 41 25 q 233 -45 155 -41 q 440 -55 336 -55 q 544 -59 492 -56 q 648 -62 595 -62 z "},"[":{"ha":638,"x_min":0,"x_max":638,"o":"m 174 -105 q 286 -98 230 -105 q 452 -90 369 -90 l 501 -90 q 610 -58 560 -90 q 638 -14 638 -36 q 595 39 638 14 q 490 61 549 61 q 317 51 404 61 l 275 47 q 268 48 271 47 q 264 57 264 49 q 260 104 262 81 q 254 172 256 138 q 242 728 242 450 l 242 776 q 260 909 242 844 q 265 921 262 917 q 277 925 269 924 q 475 952 377 931 q 567 987 525 960 q 588 1021 588 1005 q 563 1055 588 1038 q 506 1070 536 1069 l 460 1071 l 372 1071 q 197 1070 284 1071 q 72 1036 131 1069 q 7 942 16 1006 q 0 837 0 890 q 11 544 4 659 q 16 317 15 429 l 18 220 l 19 163 q 18 86 19 124 q 16 -3 16 41 q 64 -82 16 -59 q 174 -105 113 -105 z "},"\\":{"ha":555,"x_min":0,"x_max":555,"o":"m 460 -130 q 500 -125 480 -130 q 555 -66 555 -112 q 552 -41 555 -54 l 548 -23 q 525 68 538 23 q 310 711 425 392 l 300 738 q 187 998 256 873 q 86 1059 146 1059 q 30 1047 60 1059 q 0 1004 0 1035 q 12 922 0 966 q 141 474 71 696 q 345 -58 227 201 q 458 -130 380 -130 l 460 -130 z "},"]":{"ha":638,"x_min":0,"x_max":638,"o":"m 465 -105 q 574 -82 525 -105 q 623 -3 623 -59 q 621 86 623 41 q 618 163 618 124 l 620 220 l 622 317 q 627 544 623 429 q 638 837 634 659 q 631 942 638 890 q 566 1036 623 1006 q 441 1070 507 1069 q 266 1071 353 1071 l 178 1071 l 132 1070 q 75 1055 102 1069 q 50 1021 50 1038 q 71 987 50 1005 q 163 952 113 960 q 361 925 261 931 q 373 921 370 924 q 378 909 376 917 q 396 776 396 844 l 396 728 q 384 172 396 450 q 378 104 382 138 q 374 57 376 81 q 370 48 374 49 q 363 47 367 47 l 321 51 q 149 61 235 61 q 43 39 89 61 q 0 -14 0 14 q 28 -58 0 -36 q 137 -90 78 -90 l 186 -90 q 352 -98 269 -90 q 465 -105 408 -105 z "},"^":{"ha":449,"x_min":0,"x_max":449,"o":"m 372 600 q 431 620 409 600 q 449 663 449 637 l 448 675 q 377 953 420 823 q 327 1072 359 1015 q 216 1128 292 1128 q 156 1116 186 1128 q 106 1052 125 1103 q 65 929 85 991 l 42 859 l 39 849 q 1 706 14 779 l 0 693 q 1 677 0 686 q 14 659 3 667 q 79 640 45 640 q 118 646 98 640 q 169 705 155 656 q 212 844 189 774 l 218 844 q 256 726 233 784 l 276 671 q 370 600 300 606 l 372 600 z "},"_":{"ha":888,"x_min":0,"x_max":890,"o":"m 231 -155 q 317 -153 274 -155 q 389 -151 355 -151 q 429 -151 410 -151 l 679 -151 q 770 -144 725 -151 q 864 -107 822 -137 q 890 -63 890 -85 q 864 -18 890 -41 q 686 26 805 26 l 503 26 q 279 27 330 26 q 231 28 255 28 q 136 22 183 28 q 18 -25 70 16 q 0 -64 0 -44 q 18 -103 0 -83 q 58 -129 36 -119 q 195 -155 124 -155 l 231 -155 z "},"`":{"ha":377,"x_min":0,"x_max":377,"o":"m 283 481 q 341 494 317 481 q 377 545 377 513 q 203 963 377 582 q 143 1021 178 1013 q 92 1029 108 1029 q 24 1008 56 1029 q 0 959 0 987 q 1 946 0 953 q 168 544 17 838 q 218 496 187 509 q 283 481 250 484 z "},"a":{"ha":936,"x_min":28,"x_max":889,"o":"m 342 -54 q 463 -30 401 -54 q 625 113 566 16 q 628 118 626 115 q 632 124 629 121 q 639 130 634 127 l 642 105 q 651 50 647 78 q 675 3 655 22 q 773 -38 719 -38 q 811 -33 791 -38 q 889 61 889 -14 q 876 189 889 101 q 823 760 825 581 q 755 842 821 828 q 739 851 745 844 q 656 905 705 889 q 487 937 573 937 q 389 926 438 937 q 102 711 191 892 q 28 388 28 553 q 55 189 28 290 q 156 14 77 84 q 342 -54 245 -54 m 336 103 q 314 138 328 103 q 266 368 266 260 l 266 394 q 329 663 266 543 q 450 786 365 739 q 515 801 482 801 q 576 787 545 801 q 587 774 587 784 q 583 667 583 721 q 552 414 583 528 q 372 130 506 254 l 367 125 q 336 103 344 103 z "},"b":{"ha":915,"x_min":73,"x_max":888,"o":"m 472 -38 q 549 -31 510 -38 q 804 128 707 2 q 888 349 888 231 q 866 476 888 410 q 541 705 773 705 q 490 702 516 705 q 321 629 398 690 q 310 814 318 690 q 279 1030 304 923 q 214 1090 265 1082 q 181 1093 198 1093 q 80 1023 88 1093 q 76 954 76 988 l 76 753 q 75 568 76 661 q 73 429 73 498 q 83 88 73 258 q 198 1 86 1 q 258 11 229 1 q 273 14 266 14 q 292 8 283 14 q 472 -38 378 -38 m 395 78 q 359 87 378 78 q 329 102 338 96 q 317 134 317 110 l 318 153 l 319 161 q 327 324 325 243 q 331 349 327 337 q 479 564 374 478 q 525 589 511 589 q 533 588 526 589 q 566 548 541 587 q 614 373 614 471 q 534 174 612 261 q 395 78 441 78 z "},"c":{"ha":853,"x_min":28,"x_max":867,"o":"m 371 -22 q 464 -11 416 -22 q 706 147 610 28 q 792 260 752 201 q 852 342 821 302 q 867 378 867 362 q 830 416 867 401 q 774 424 805 424 q 733 419 758 424 q 682 382 707 414 l 605 280 q 425 125 533 181 q 405 118 412 118 l 399 119 q 372 153 389 121 q 325 359 325 239 l 325 366 q 430 726 333 573 q 488 790 453 764 q 522 802 504 802 q 578 787 543 802 q 655 769 625 769 q 727 786 692 769 q 756 826 756 803 q 741 863 756 843 q 686 901 718 888 q 499 943 596 943 q 158 772 279 943 q 86 629 113 705 q 28 327 28 481 q 31 249 28 288 q 176 30 49 103 q 371 -22 270 -22 z "},"d":{"ha":891,"x_min":12,"x_max":810,"o":"m 352 -39 q 559 20 457 -39 q 563 23 561 21 q 570 26 566 26 q 576 23 572 26 q 665 -7 616 -7 q 784 68 770 -7 q 799 211 795 139 q 810 602 810 406 q 806 833 810 717 q 789 1016 806 925 q 767 1064 783 1048 q 718 1086 750 1080 q 686 1090 702 1090 l 673 1089 q 604 1065 624 1084 q 566 802 566 1027 l 566 722 l 566 700 l 561 699 q 546 704 553 703 q 417 727 480 727 q 205 656 307 727 q 43 414 88 559 q 12 264 12 341 q 18 200 12 233 q 187 -4 50 54 q 352 -39 271 -39 m 396 98 q 370 111 381 98 q 311 277 311 182 l 311 281 q 398 555 320 427 q 435 590 418 590 q 476 574 450 590 q 551 512 518 549 q 558 494 558 505 l 558 491 q 553 304 553 398 l 554 180 q 545 162 554 168 q 410 100 481 124 q 396 98 403 98 z "},"e":{"ha":888,"x_min":19,"x_max":904,"o":"m 424 -36 q 641 9 533 -36 q 847 144 755 62 q 886 176 867 161 q 904 207 904 191 q 900 223 904 211 q 865 249 896 236 q 799 261 834 261 q 746 255 782 261 q 671 213 709 250 q 490 95 594 136 q 442 85 467 85 q 421 87 432 85 q 326 168 353 106 q 295 322 295 238 q 300 404 295 356 q 314 418 302 418 l 321 418 q 369 414 345 414 q 404 416 386 414 q 629 484 522 431 q 744 567 697 513 q 792 693 792 627 q 732 817 792 756 q 504 905 631 905 q 450 901 477 905 q 186 766 289 882 q 19 353 19 583 q 29 241 19 298 q 252 -9 64 55 q 424 -36 338 -36 m 358 518 q 336 526 346 518 q 334 531 334 528 q 337 542 334 534 l 341 548 q 494 766 395 699 q 506 770 500 770 q 519 764 513 770 q 562 688 558 736 q 501 576 558 620 q 366 519 439 536 l 358 518 z "},"f":{"ha":680,"x_min":-38,"x_max":741,"o":"m 262 -214 q 337 -197 300 -214 q 383 -133 378 -178 l 384 -124 q 386 -96 386 -111 l 385 -40 q 387 71 385 16 l 389 163 l 394 163 l 394 300 l 393 431 q 399 451 393 447 q 414 456 404 456 l 459 455 l 498 456 q 600 486 553 457 q 625 524 625 505 q 600 563 625 543 q 552 583 578 577 q 456 594 505 594 q 420 593 439 594 l 415 593 q 404 603 404 593 l 404 610 q 408 638 407 624 l 410 659 q 452 832 418 749 q 475 867 463 860 q 504 872 484 872 q 571 868 532 872 q 627 865 599 865 l 660 866 q 722 884 693 867 q 741 911 741 897 q 727 937 741 924 q 687 960 709 952 q 452 1004 572 1004 q 392 1002 422 1004 q 164 837 228 987 q 117 612 123 735 q 113 593 117 600 q 94 585 109 586 q 5 562 47 582 q -24 545 -12 555 q -38 513 -37 534 q -23 484 -37 494 q 7 467 -10 473 q 93 450 48 450 q 108 445 104 450 q 111 429 111 439 q 119 105 113 184 q 140 -113 132 -20 q 152 -163 142 -140 q 191 -198 162 -186 q 262 -214 227 -214 z "},"g":{"ha":804,"x_min":14,"x_max":728,"o":"m 353 -44 q 404 -41 378 -44 q 652 107 566 -30 q 713 323 707 209 q 728 659 728 491 q 718 945 728 802 q 646 1034 718 1025 q 541 1065 591 1044 q 428 1083 485 1083 q 342 1073 385 1083 q 136 956 215 1055 q 14 594 14 793 q 16 539 14 567 q 117 392 26 439 q 260 359 187 359 q 479 437 386 359 q 417 160 469 290 q 361 87 397 118 q 331 74 347 74 q 312 79 322 74 q 193 110 254 102 q 181 112 186 111 q 164 113 172 113 q 125 105 144 113 q 106 75 106 97 q 134 20 106 41 q 353 -44 229 -44 m 285 477 q 278 478 283 477 q 261 513 273 479 q 254 562 254 535 l 254 570 q 332 885 254 737 q 444 967 369 952 l 451 968 q 474 960 463 968 q 484 937 484 952 q 426 649 479 788 q 317 496 393 557 l 315 494 q 285 477 295 477 z "},"h":{"ha":904,"x_min":66,"x_max":857,"o":"m 725 -80 l 741 -79 q 846 21 838 -76 q 857 212 857 117 q 853 322 857 267 q 809 543 848 436 q 582 695 745 695 q 530 691 557 695 q 350 607 430 672 q 310 574 323 586 q 309 632 310 604 q 311 852 309 783 q 313 952 313 903 l 313 1012 q 273 1069 311 1055 q 209 1082 241 1082 q 104 1014 115 1082 q 77 728 81 871 q 73 559 75 644 q 66 229 66 378 q 69 22 66 125 q 114 -41 71 -25 q 178 -52 146 -52 q 241 -41 210 -52 q 289 16 283 -26 q 296 125 296 71 l 296 144 q 319 294 296 220 q 507 546 371 452 l 523 557 q 550 571 543 571 q 562 561 556 571 q 576 522 567 551 q 607 321 607 424 l 608 260 q 606 163 608 211 q 603 60 603 111 l 604 18 q 622 -46 604 -25 q 683 -76 640 -68 q 725 -80 704 -80 z "},"i":{"ha":380,"x_min":71,"x_max":301,"o":"m 184 -34 q 220 -30 202 -34 q 271 -7 254 -23 q 297 121 297 19 q 298 436 298 237 l 301 436 l 301 700 q 290 808 301 754 q 254 850 283 838 q 191 863 223 863 q 86 792 99 863 q 76 673 76 732 q 73 523 75 659 q 72 393 73 458 l 71 330 q 78 125 71 228 l 82 37 q 184 -34 85 -34 m 186 954 q 252 968 219 954 q 294 1033 294 987 q 248 1099 292 1081 q 183 1112 218 1112 q 127 1103 155 1112 q 75 1036 75 1088 q 115 971 75 991 q 186 954 151 954 z "},"j":{"ha":640,"x_min":-21,"x_max":568,"o":"m 234 -184 q 421 -117 338 -184 q 541 103 522 -29 q 563 369 561 235 l 568 472 l 568 590 l 568 652 q 553 799 567 726 q 401 894 533 894 q 363 891 382 894 q 193 878 279 880 q 121 867 154 878 q 90 854 100 860 q 77 826 77 845 q 118 785 77 799 q 201 772 159 772 q 273 776 219 772 q 308 779 306 778 q 318 778 315 779 q 322 768 321 777 q 330 606 330 680 q 319 364 330 485 q 288 137 311 250 q 200 -51 267 33 q 188 -58 194 -58 q 177 -52 183 -58 q 112 57 124 -10 q 54 112 102 112 q 1 92 24 112 q -21 35 -21 72 q 3 -47 -21 -9 q 206 -183 84 -174 q 234 -184 220 -184 z "},"k":{"ha":810,"x_min":58,"x_max":800,"o":"m 699 -56 q 766 -42 732 -56 q 800 -1 800 -28 q 793 26 800 12 q 760 103 776 64 q 696 239 731 172 q 618 399 676 279 q 596 474 596 441 q 640 568 596 530 q 767 691 701 632 q 788 728 788 710 q 760 765 788 747 q 741 773 751 770 q 681 783 710 783 q 397 574 571 783 q 305 455 351 520 l 302 477 l 281 848 q 267 1000 277 935 q 165 1073 256 1073 q 69 1013 82 1073 q 59 902 60 958 q 58 825 58 864 q 64 631 58 740 q 71 467 65 560 q 96 130 83 224 q 201 66 106 66 q 268 79 235 66 q 302 121 295 91 q 406 348 332 235 q 417 328 409 344 q 585 4 495 162 q 631 -41 600 -26 q 699 -56 665 -56 z "},"l":{"ha":689,"x_min":59,"x_max":705,"o":"m 288 -105 q 473 -40 389 -105 q 639 126 565 35 q 698 200 684 178 q 705 223 705 213 q 699 244 705 233 q 642 279 681 279 q 527 238 581 279 q 453 165 487 205 q 355 76 408 117 q 347 71 350 71 q 340 82 341 71 q 328 193 329 137 l 328 288 q 324 507 328 401 q 316 861 324 688 q 301 1001 314 933 q 199 1068 289 1068 q 101 999 113 1068 q 83 833 87 918 q 66 496 72 694 q 59 290 59 361 q 63 158 59 224 q 102 -3 68 74 q 222 -98 139 -81 q 288 -105 256 -105 z "},"m":{"ha":1256,"x_min":64,"x_max":1185,"o":"m 1033 -104 q 1116 -85 1075 -104 q 1147 -45 1142 -73 q 1183 453 1183 179 l 1185 514 q 1163 715 1185 615 q 1036 884 1140 830 q 928 907 983 907 q 838 891 883 907 q 694 785 751 858 q 682 775 688 775 q 671 785 677 775 q 608 843 648 822 q 496 870 559 870 q 432 865 480 870 q 315 791 383 861 l 290 764 q 284 793 287 779 q 241 843 277 830 q 182 854 212 854 q 125 843 154 854 q 83 794 90 831 q 69 600 73 739 q 64 363 64 460 q 72 68 64 216 q 111 12 74 27 q 180 -2 145 -2 q 244 11 212 -2 q 288 67 282 26 q 298 239 298 153 l 298 288 q 307 381 298 334 q 425 676 336 541 q 477 736 447 709 q 491 704 483 728 q 520 511 519 609 q 533 309 520 498 q 636 238 538 238 q 744 312 735 238 q 750 405 750 359 q 749 454 750 438 q 747 480 747 467 q 750 513 747 497 q 826 686 774 606 q 901 771 856 733 q 921 671 921 722 l 921 617 q 918 431 921 524 q 914 279 915 355 q 912 131 912 191 q 917 -35 912 48 q 948 -84 919 -70 q 1033 -104 991 -104 z "},"n":{"ha":992,"x_min":62,"x_max":939,"o":"m 816 -92 q 882 -81 848 -92 q 939 -7 939 -63 l 939 3 q 929 217 934 98 q 843 731 924 546 q 591 888 766 888 q 386 811 475 887 q 319 749 352 783 l 310 741 q 298 825 304 801 q 241 896 288 876 q 178 908 210 908 q 115 897 146 908 q 73 847 79 885 q 71 827 73 837 q 67 792 68 810 q 64 500 66 572 q 62 428 62 464 q 72 222 62 326 q 90 62 77 140 q 130 12 96 26 q 200 -2 164 -2 q 313 76 307 -2 q 323 304 323 190 l 322 361 q 340 455 322 410 l 360 500 q 551 739 425 644 q 564 745 558 745 q 577 733 572 745 q 620 603 608 671 q 650 394 639 499 q 690 -1 678 162 q 816 -92 692 -92 z "},"o":{"ha":964,"x_min":22,"x_max":921,"o":"m 529 -76 l 536 -75 q 838 126 737 -48 q 921 427 921 272 q 892 614 921 519 q 467 921 791 918 q 81 667 199 910 q 22 416 22 545 q 38 280 22 349 q 184 23 73 122 q 470 -76 296 -76 l 529 -76 m 487 65 q 458 76 472 65 q 357 204 389 126 q 311 425 311 315 q 379 687 311 557 q 472 785 412 749 q 498 794 485 794 q 525 785 511 794 q 648 623 612 723 q 683 439 683 530 q 594 146 683 274 q 511 72 561 100 q 487 65 498 65 z "},"p":{"ha":854,"x_min":42,"x_max":830,"o":"m 212 -111 q 242 -107 226 -111 q 290 -55 290 -100 l 290 27 q 287 210 290 117 q 291 224 287 220 q 307 227 294 227 q 419 243 366 227 q 699 418 591 279 q 798 602 761 503 q 830 764 830 680 q 680 991 830 942 q 565 1010 625 1010 l 543 1010 q 433 993 487 1010 q 168 803 279 943 q 42 417 42 645 q 64 173 42 281 q 112 -35 77 66 q 212 -111 140 -111 m 289 351 q 282 359 282 351 l 282 396 q 350 697 282 559 q 526 879 407 817 q 551 887 541 887 q 559 885 553 887 q 576 861 566 883 q 594 775 594 819 q 591 738 594 757 q 473 460 568 584 q 294 351 403 374 l 289 351 z "},"q":{"ha":899,"x_min":14,"x_max":843,"o":"m 676 -77 q 722 -68 693 -77 q 787 19 764 -54 q 843 446 843 229 l 842 484 q 794 724 841 608 q 399 987 679 987 q 201 914 286 987 q 14 502 14 749 q 90 293 14 375 q 351 189 186 189 q 547 233 452 189 l 601 258 l 602 193 l 601 161 q 597 56 597 109 q 599 -14 597 21 q 625 -64 600 -50 q 676 -77 651 -77 m 372 305 q 336 319 352 305 q 260 479 263 382 l 260 504 q 384 822 265 686 q 410 849 401 842 q 420 854 415 854 q 447 836 429 854 q 581 602 552 745 q 606 414 606 500 q 598 397 606 401 q 387 307 498 339 q 372 305 379 305 z "},"r":{"ha":850,"x_min":64,"x_max":861,"o":"m 182 -85 q 256 -68 219 -85 q 292 -22 286 -56 q 305 98 302 37 q 314 370 314 233 l 313 431 q 315 454 313 443 q 475 684 351 600 q 539 713 514 713 q 553 712 540 713 q 606 679 566 711 q 732 635 667 635 q 823 656 777 635 q 861 701 861 673 q 793 768 861 738 l 769 781 q 559 836 668 836 q 297 746 407 836 q 265 796 284 781 q 191 815 241 815 q 90 753 103 815 q 64 209 64 603 l 64 101 q 73 -16 66 31 q 111 -69 75 -54 q 182 -85 146 -85 z "},"s":{"ha":711,"x_min":22,"x_max":696,"o":"m 351 -57 q 417 -53 365 -57 q 643 38 547 -43 q 696 153 696 85 l 695 165 q 536 380 680 297 q 376 473 493 407 q 298 601 298 516 l 299 614 l 299 619 q 366 824 309 730 q 380 836 373 836 q 394 827 387 836 q 441 762 423 798 q 534 709 467 709 q 571 713 552 709 q 650 808 650 736 q 647 837 650 821 q 581 935 631 897 q 394 996 496 996 q 369 995 381 996 q 287 985 357 994 q 131 876 217 976 q 31 674 58 786 q 22 602 22 636 q 128 407 22 485 q 204 359 165 380 q 338 288 297 311 q 433 177 408 251 q 437 148 437 163 q 385 78 437 94 q 369 77 376 77 q 303 106 330 77 q 189 151 259 151 q 76 117 125 151 q 56 81 56 99 q 73 50 56 66 q 199 -27 130 2 q 351 -57 277 -57 z "},"t":{"ha":643,"x_min":-31,"x_max":652,"o":"m 286 -38 q 316 -35 300 -38 q 368 -12 352 -28 q 387 40 383 4 q 410 342 406 191 l 420 667 q 435 681 420 681 l 456 681 q 521 682 489 681 q 631 717 581 682 q 652 754 652 735 q 631 792 652 773 q 581 816 608 809 q 455 831 519 831 l 437 831 q 424 836 427 831 q 420 859 420 840 q 414 998 420 932 q 311 1095 408 1095 l 293 1095 q 192 1006 203 1095 q 176 850 178 928 q 160 831 176 831 l 143 831 q 94 828 119 831 q 90 827 92 827 q -7 796 37 824 q -31 760 -31 778 q -7 722 -31 741 q 41 701 15 707 q 151 686 98 686 q 168 671 168 685 q 164 542 164 574 q 167 332 164 437 q 190 23 167 204 q 224 -24 195 -11 q 286 -38 254 -38 z "},"u":{"ha":939,"x_min":50,"x_max":875,"o":"m 768 -109 q 801 -106 784 -109 q 856 -82 840 -100 q 872 -20 871 -64 q 875 129 875 57 q 871 304 875 216 q 853 587 863 446 q 834 780 848 702 q 801 836 828 821 q 706 861 753 861 q 612 836 659 861 q 586 800 590 825 l 551 581 q 361 169 515 347 q 348 157 351 157 q 338 174 343 157 q 289 446 290 306 l 281 730 q 269 814 280 772 q 172 876 252 876 q 81 813 96 876 q 50 510 50 678 q 128 115 50 288 q 322 6 181 6 q 445 32 385 6 q 595 163 537 79 l 633 214 q 665 -38 643 119 q 707 -97 669 -81 q 768 -109 736 -109 z "},"v":{"ha":873,"x_min":-2,"x_max":890,"o":"m 374 -39 q 418 -35 397 -39 q 498 27 474 -24 q 515 64 507 45 q 555 149 534 107 q 880 792 737 529 q 890 825 890 810 q 856 867 890 851 q 795 880 826 880 q 736 867 766 880 q 700 840 714 858 q 673 797 686 822 q 568 581 616 691 q 393 211 483 386 q 386 222 388 214 q 290 559 386 224 q 206 813 251 710 q 91 893 166 893 q 39 885 67 893 q -2 840 -2 874 q 34 695 -2 825 l 66 570 q 168 224 109 395 q 172 212 170 218 q 244 35 203 121 q 374 -39 280 -39 z "},"w":{"ha":1265,"x_min":43,"x_max":1246,"o":"m 813 -33 q 861 -32 817 -33 q 965 26 904 -31 q 1035 119 1006 68 q 1245 838 1161 348 q 1246 852 1246 845 q 1207 907 1246 890 q 1135 923 1171 923 q 1061 906 1098 923 q 1012 843 1020 887 q 930 491 977 666 q 836 197 896 340 q 825 181 831 184 q 800 407 802 294 l 796 623 q 785 673 796 651 q 744 706 774 695 q 683 717 713 717 q 618 704 650 717 q 579 667 589 694 q 543 552 555 595 q 458 294 511 419 q 395 182 434 234 q 386 174 390 174 q 377 183 382 174 q 290 574 312 313 q 274 703 283 639 l 269 737 q 248 856 262 798 q 146 920 231 920 q 50 860 61 920 q 43 739 43 819 q 132 178 43 379 q 369 25 200 25 q 572 129 494 25 q 595 164 592 158 l 604 136 q 622 82 612 108 q 813 -33 665 -33 z "},"x":{"ha":654,"x_min":14,"x_max":677,"o":"m 591 -55 q 649 -43 621 -55 q 677 -11 677 -32 q 668 16 677 1 q 590 163 622 88 q 449 452 530 313 q 443 475 443 463 q 447 494 443 484 q 576 879 524 682 q 579 898 579 889 q 559 930 579 919 q 485 948 531 948 q 449 946 479 948 q 384 903 418 945 q 340 825 357 867 l 311 758 l 298 726 q 275 765 286 745 q 227 842 254 805 q 109 900 181 900 q 45 885 76 900 q 14 838 14 869 l 14 833 q 45 743 20 785 q 194 500 111 616 q 202 478 202 490 q 199 463 202 471 q 159 360 178 412 l 98 200 q 37 45 71 121 q 29 12 29 28 q 43 -19 29 -5 q 133 -54 75 -54 q 269 46 229 -54 q 332 204 297 126 l 343 229 q 346 227 345 228 q 348 223 347 225 q 472 20 407 119 q 477 12 474 16 q 559 -52 513 -41 q 591 -55 576 -55 z "},"y":{"ha":816,"x_min":20,"x_max":743,"o":"m 374 -73 q 547 -34 467 -73 q 686 116 628 6 q 728 292 724 200 q 743 571 743 413 q 742 661 743 616 l 742 774 q 728 947 742 907 q 696 981 721 968 q 611 1002 654 1002 q 528 983 569 1002 q 494 937 500 969 q 477 814 483 876 q 355 570 460 669 q 318 546 330 546 q 310 547 317 546 q 287 583 303 549 q 258 715 258 646 q 272 889 258 781 q 276 930 276 920 q 242 979 276 964 q 174 994 208 994 q 140 990 157 994 q 56 919 76 982 q 20 702 20 812 q 23 637 20 670 q 147 446 35 510 q 292 412 218 412 q 499 486 410 412 q 498 443 499 467 q 479 222 494 332 q 401 59 469 127 q 359 37 381 37 q 321 54 340 37 l 278 90 q 186 140 236 122 q 161 144 174 144 q 104 87 104 144 q 117 46 104 67 q 259 -59 169 -33 q 374 -73 313 -73 z "},"z":{"ha":709,"x_min":19,"x_max":749,"o":"m 245 -43 q 420 -35 270 -43 q 634 -25 527 -28 q 721 1 681 -24 q 749 42 749 22 q 722 83 749 62 q 618 109 678 109 q 509 101 564 109 q 328 89 446 94 l 261 85 q 248 94 248 85 q 250 102 248 98 q 277 155 260 130 q 566 668 437 409 l 574 682 q 623 791 604 734 q 629 823 629 808 q 586 884 629 861 q 494 908 543 907 l 466 908 l 367 907 l 324 907 q 133 891 228 907 l 106 887 q 44 864 73 884 q 26 835 26 850 q 43 806 26 821 q 176 775 81 775 q 228 779 202 775 l 230 779 l 273 783 q 357 788 329 788 q 368 781 368 788 q 366 773 368 778 q 300 612 343 688 l 82 218 q 27 108 50 165 q 19 69 19 87 q 111 -22 19 8 q 245 -43 176 -43 z "},"{":{"ha":907,"x_min":0,"x_max":907,"o":"m 534 -100 q 767 14 687 -100 q 823 96 793 56 l 828 104 q 902 218 869 159 q 907 240 907 231 q 872 268 907 264 q 810 236 832 268 q 684 89 752 158 q 577 18 637 45 q 565 15 570 15 q 547 27 554 15 q 449 296 494 100 l 431 368 l 430 373 q 435 385 430 380 q 519 606 513 482 q 524 703 522 654 q 527 774 525 739 q 568 922 527 857 q 592 935 578 935 l 600 935 q 710 884 661 922 q 774 866 739 866 q 833 884 806 866 q 865 932 865 907 q 843 979 865 954 q 565 1082 748 1082 q 451 1069 509 1082 q 267 886 298 1040 q 261 796 261 841 q 264 734 261 766 q 265 657 265 713 q 179 672 222 672 q 41 617 90 672 q 0 509 0 572 l 1 493 q 58 372 9 424 q 177 307 107 319 q 201 297 193 304 q 212 274 209 290 q 299 35 239 149 q 459 -92 351 -64 q 534 -100 496 -100 z "},"|":{"ha":237,"x_min":0,"x_max":239,"o":"m 119 -109 q 210 -85 174 -109 q 231 -52 229 -73 q 238 56 237 2 l 239 209 q 232 761 239 610 q 227 918 229 840 q 220 994 225 956 q 178 1046 214 1031 q 120 1057 149 1057 q 16 975 17 1057 q 5 718 7 817 q 0 313 0 469 q 5 -42 0 136 q 28 -85 6 -71 q 119 -109 65 -109 z "},"}":{"ha":907,"x_min":0,"x_max":907,"o":"m 373 -100 q 448 -92 411 -100 q 608 35 556 -64 q 695 274 669 149 q 707 297 699 290 q 730 307 715 304 q 849 372 800 319 q 907 493 898 424 l 907 509 q 867 617 907 572 q 728 672 818 672 q 642 657 686 672 q 644 734 642 713 q 646 796 646 766 q 640 886 646 841 q 456 1069 610 1040 q 342 1082 399 1082 q 64 979 159 1082 q 42 932 42 954 q 74 884 42 907 q 133 866 101 866 q 197 884 169 866 q 308 935 247 922 l 315 935 q 339 922 330 935 q 380 774 380 857 q 384 703 382 739 q 389 606 385 654 q 472 385 394 482 q 477 373 477 380 l 477 368 l 458 296 q 361 27 414 100 q 342 15 353 15 q 330 18 337 15 q 223 89 271 45 q 98 236 155 158 q 35 268 75 268 q 0 240 0 264 q 5 218 0 231 q 79 104 38 159 l 85 96 q 140 14 114 56 q 373 -100 220 -100 z "},"~":{"ha":770,"x_min":0,"x_max":770,"o":"m 555 380 q 700 451 646 380 q 766 583 741 513 q 770 597 770 590 q 760 620 770 609 q 693 648 734 648 q 591 595 629 648 l 570 566 q 544 538 553 538 q 515 565 535 538 q 274 686 424 686 q 2 454 59 686 q 0 439 0 446 q 33 401 0 411 q 73 395 54 395 q 194 492 147 395 q 240 560 213 529 q 258 571 249 571 q 276 562 267 571 q 339 488 311 528 l 354 469 q 530 381 425 381 l 555 380 z "},"":{"ha":254,"x_min":-58,"x_max":197,"o":"m 74 295 q -15 272 21 295 q -41 224 -41 255 l -41 220 q -37 151 -38 186 q -23 -294 -26 -123 l -24 -387 l -23 -467 l -22 -526 l -22 -539 q -16 -674 -22 -607 q 74 -736 -10 -736 q 162 -681 153 -736 q 174 -562 170 -622 q 181 -479 177 -521 q 197 -87 197 -306 q 195 28 197 -30 l 195 46 q 189 227 195 136 q 163 271 186 256 q 74 295 127 295 m 60 694 q -2 681 30 694 q -48 637 -37 666 q -58 578 -58 612 l -58 564 q -50 509 -58 538 q 65 429 -29 429 q 91 431 78 429 q 175 503 161 438 q 181 560 181 531 q 150 662 181 634 q 60 694 107 694 z "},"":{"ha":607,"x_min":0,"x_max":607,"o":"m 334 -165 q 372 -158 353 -166 q 387 -142 387 -153 l 387 -137 q 387 -94 385 -115 q 387 -68 387 -81 q 391 165 385 95 q 403 183 392 177 q 493 273 460 216 q 559 378 517 313 q 585 429 583 416 q 565 455 586 446 q 545 460 555 460 q 492 438 513 463 q 408 347 444 377 q 395 338 402 338 q 399 629 394 484 l 402 755 l 408 755 q 473 663 456 722 q 479 646 475 653 q 526 621 490 623 q 544 621 530 621 q 575 632 557 621 q 606 684 604 653 q 604 710 607 696 q 540 819 589 774 q 416 886 486 867 q 402 900 401 890 l 404 916 q 407 1011 408 964 l 406 1065 q 406 1137 406 1101 q 371 1172 405 1169 l 358 1172 q 328 1137 331 1174 l 326 1101 q 319 919 318 1010 l 319 913 q 314 899 319 904 q 295 891 309 893 q 84 757 158 873 q 5 515 15 642 q 10 385 0 451 q 71 238 18 302 q 245 156 144 164 l 267 155 q 289 149 284 153 q 292 120 294 144 l 291 87 q 283 -112 288 -13 q 291 -150 281 -138 q 334 -165 300 -162 m 298 301 q 258 503 249 385 l 262 565 q 309 697 267 626 q 304 454 309 574 q 298 301 300 378 z "},"":{"ha":1022,"x_min":0,"x_max":1022,"o":"m 661 -117 q 863 -36 775 -117 q 970 79 907 9 q 1022 159 1022 134 q 995 184 1022 178 q 979 186 987 186 q 927 162 949 186 q 805 47 870 100 q 705 -9 766 8 q 679 -14 691 -14 q 630 2 653 -14 q 490 126 551 55 q 485 135 485 131 q 489 146 485 140 q 545 473 545 266 l 545 510 q 560 524 545 524 l 567 524 q 616 528 591 524 q 694 557 659 532 q 710 586 710 572 q 695 614 710 600 q 637 642 670 636 q 552 656 595 653 l 551 656 q 537 668 538 656 q 533 767 533 732 q 534 818 533 792 q 597 958 536 901 q 663 986 627 986 q 687 983 675 986 q 806 909 755 961 q 867 886 829 886 q 922 910 907 886 q 929 933 929 921 q 903 986 929 957 q 656 1086 809 1086 q 535 1067 595 1086 q 387 978 448 1044 q 317 800 326 911 q 315 718 315 759 l 315 697 q 315 668 315 683 q 302 652 315 654 q 239 646 270 650 q 152 619 191 644 q 131 585 131 602 q 151 551 131 568 q 193 532 170 538 q 275 519 233 519 q 297 520 286 519 l 300 520 q 318 503 318 520 l 316 422 q 310 298 315 361 q 301 301 304 299 q 183 334 245 334 q 153 332 168 334 q 31 254 72 326 q 0 130 0 195 q 115 -24 0 18 q 210 -39 163 -39 q 352 -3 283 -39 q 368 2 361 2 q 385 -7 375 2 q 661 -117 499 -117 m 194 45 q 163 62 178 45 q 138 123 138 87 q 164 211 138 168 q 175 221 169 220 q 184 214 178 221 q 259 130 222 170 q 265 118 265 123 q 260 106 265 114 q 224 59 245 80 q 194 45 209 45 z "},"":{"ha":880,"x_min":0,"x_max":880,"o":"m 115 -119 q 216 -76 174 -123 q 254 -12 239 -47 q 302 108 268 14 q 325 170 321 163 q 338 180 327 180 l 340 180 q 390 173 365 174 q 470 178 430 171 q 477 180 474 180 q 490 167 486 179 q 579 -28 529 66 q 682 -91 605 -87 q 726 -87 704 -92 q 777 -41 774 -79 q 772 -11 777 -28 q 694 229 739 112 q 684 258 688 244 q 672 281 680 272 q 665 296 664 290 q 671 309 665 302 q 760 496 740 391 q 764 529 764 513 q 728 665 768 601 q 719 675 724 671 q 710 684 713 680 q 707 691 706 688 q 710 701 707 696 q 718 711 713 706 q 726 723 723 717 q 874 1024 840 924 q 878 1045 878 1036 q 836 1097 880 1083 q 802 1103 819 1102 q 774 1101 788 1103 q 665 1025 703 1086 q 539 791 589 915 q 521 777 533 776 l 515 777 q 452 786 484 784 q 306 766 378 790 q 294 763 298 763 q 285 778 288 764 q 193 1038 254 913 q 99 1099 161 1095 l 87 1099 q 37 1092 61 1101 q 0 1050 2 1081 q 2 1034 0 1043 q 83 749 28 887 q 148 646 101 688 q 152 639 152 642 q 149 629 152 635 q 114 492 117 560 q 176 276 108 381 q 180 264 180 271 q 176 256 180 260 q 117 138 142 199 l 95 88 q 45 -38 64 28 l 44 -50 q 55 -90 43 -71 q 115 -119 71 -117 m 403 285 q 395 286 402 285 q 373 308 388 287 q 321 473 317 392 q 404 652 328 591 q 486 677 442 680 q 504 676 496 677 q 517 667 513 675 q 565 505 570 592 q 500 357 560 421 q 435 298 471 325 q 403 285 415 284 z "},"":{"ha":721,"x_min":0,"x_max":721,"o":"m 380 -101 q 441 -87 410 -101 q 469 -42 469 -73 l 469 -31 q 469 -9 469 -20 l 470 17 l 470 20 q 488 37 470 35 q 597 47 543 40 q 669 73 635 52 q 688 104 688 87 q 680 128 688 115 q 661 146 672 141 q 637 154 650 151 q 543 163 590 163 q 508 162 526 163 l 489 162 q 476 176 476 162 q 473 280 475 229 l 473 283 q 487 294 473 294 q 564 297 526 294 q 647 322 609 298 q 664 349 664 336 q 648 376 664 362 q 529 401 611 401 q 483 399 506 401 q 474 397 479 397 q 465 408 467 397 q 452 475 459 441 q 451 483 451 478 q 456 492 451 488 q 502 549 486 515 l 506 557 q 564 681 538 617 q 658 873 603 777 q 721 1009 721 983 q 676 1069 721 1051 q 650 1072 664 1072 q 583 1056 623 1072 q 526 1006 542 1040 q 460 867 508 965 l 388 710 l 383 719 q 378 731 380 726 q 202 1021 309 888 q 136 1078 175 1057 q 71 1096 104 1096 q 24 1087 47 1096 q 0 1062 0 1078 q 7 1040 0 1053 q 153 728 71 921 q 229 557 189 642 q 279 493 245 518 q 285 481 285 489 l 284 476 q 281 406 281 441 q 276 392 281 395 q 262 389 272 389 l 247 389 q 138 369 191 389 q 108 336 108 357 q 118 314 108 321 q 140 303 128 307 q 148 301 146 301 q 151 300 150 301 q 229 293 190 293 q 260 294 245 293 q 276 290 273 294 q 280 277 280 286 l 280 252 q 282 166 280 209 l 282 162 q 264 144 282 144 l 243 144 l 205 143 q 100 116 149 143 q 79 83 79 100 q 102 50 79 66 q 260 24 146 24 l 273 24 q 289 12 289 24 l 289 9 q 290 -16 289 -3 q 292 -43 292 -29 l 292 -44 q 319 -87 292 -75 q 380 -101 349 -101 z "},"":{"ha":201,"x_min":0,"x_max":201,"o":"m 102 -174 q 152 -165 127 -174 q 195 -117 186 -152 q 201 -56 201 -87 q 196 99 201 24 q 191 230 191 164 q 186 469 190 349 q 170 526 186 509 q 97 547 150 547 q 24 522 47 547 q 6 464 7 504 q 0 215 0 345 l 0 98 l 1 2 q 6 -98 1 -48 q 58 -167 9 -149 q 102 -174 80 -174 m 96 658 q 165 681 141 658 q 180 728 180 695 l 180 743 q 176 849 176 793 q 179 955 176 900 q 181 996 180 974 q 188 1133 188 1103 q 181 1210 188 1172 q 117 1261 173 1259 l 104 1262 q 25 1218 39 1262 q 24 1215 25 1217 q 22 1208 23 1213 q 10 1116 12 1163 q 9 975 9 1045 q 14 717 9 888 q 43 671 16 685 q 96 658 68 658 z "},"":{"ha":774,"x_min":0,"x_max":774,"o":"m 356 -108 q 593 -50 477 -108 q 757 136 711 12 q 774 216 774 178 q 715 346 774 287 q 709 356 709 351 l 709 359 q 720 454 720 406 q 718 497 720 476 q 717 536 717 517 q 600 709 714 661 q 407 749 528 739 q 331 758 369 753 q 281 794 286 758 q 275 806 280 802 q 256 857 256 822 q 269 964 256 915 q 390 1126 291 1074 q 412 1132 401 1132 q 423 1130 418 1132 q 519 1038 490 1104 q 583 1002 532 1002 q 636 1020 611 1002 q 654 1059 654 1037 q 650 1095 654 1077 q 568 1200 631 1164 q 393 1249 483 1249 q 276 1228 336 1249 q 71 1082 146 1194 q 3 884 16 990 q 0 844 0 864 q 64 701 0 762 q 71 690 71 697 l 71 688 q 62 584 64 618 l 60 551 q 58 490 58 521 q 61 422 58 456 q 156 317 77 342 q 291 292 222 292 l 342 294 q 434 285 389 294 q 486 227 486 272 q 484 207 486 217 q 385 42 460 109 q 331 20 358 20 q 267 64 286 20 q 256 88 261 73 q 159 144 237 144 q 110 136 134 144 q 56 54 56 119 q 87 -20 56 12 q 173 -75 123 -59 q 356 -108 266 -108 m 481 431 l 477 431 q 393 437 435 437 q 355 435 374 437 l 328 435 q 307 441 313 435 q 294 514 294 454 q 294 618 294 553 l 294 622 q 304 629 294 629 l 358 626 q 438 620 398 625 q 474 606 462 617 q 495 496 495 586 q 494 463 495 479 l 494 446 q 481 431 494 431 z "},"":{"ha":956,"x_min":0,"x_max":956,"o":"m 715 793 q 868 870 808 793 q 955 1089 937 970 l 956 1101 l 955 1112 q 939 1147 955 1135 q 882 1168 913 1168 q 839 1160 869 1168 q 796 1101 808 1151 q 792 1069 792 1074 q 728 914 781 986 q 711 978 711 947 l 704 1105 q 673 1159 703 1139 q 619 1173 646 1173 q 570 1163 602 1173 q 519 1105 538 1152 q 503 1015 503 1061 q 695 794 503 809 l 715 793 m 196 770 q 338 824 272 770 q 424 945 397 873 q 466 1105 452 1023 l 467 1113 q 446 1144 467 1134 q 394 1156 420 1156 q 348 1147 371 1156 q 317 1112 324 1137 l 305 1073 q 274 981 292 1026 q 214 888 253 929 q 201 881 206 881 q 190 894 195 881 q 174 955 176 924 q 169 1017 171 987 q 165 1083 168 1050 q 152 1121 163 1109 q 90 1141 134 1141 q 52 1135 71 1141 q 0 1031 0 1118 l 0 1019 q 31 863 0 932 q 111 786 55 807 q 196 770 155 770 z "},"":{"ha":1232,"x_min":26,"x_max":1176,"o":"m 581 -153 q 684 -146 631 -153 q 1037 94 913 -102 q 1176 561 1176 307 l 1176 576 q 1124 849 1176 717 q 869 1143 1050 1043 q 619 1206 750 1206 q 507 1195 564 1206 q 180 981 299 1152 q 26 500 26 759 q 130 100 26 269 q 581 -153 300 -153 m 616 -39 l 607 -39 q 490 -5 544 -39 q 326 164 387 58 q 220 554 220 342 q 293 869 220 720 q 529 1100 369 1027 q 605 1116 567 1116 q 677 1101 641 1116 q 799 1020 747 1076 q 985 519 985 813 q 942 271 985 393 q 739 7 886 105 q 616 -39 683 -32 m 565 222 l 589 222 q 667 231 628 222 q 902 382 807 271 q 912 406 912 394 q 891 437 912 422 q 814 458 857 458 q 777 455 807 458 q 711 422 747 453 q 637 365 678 390 q 606 351 616 351 q 598 353 604 351 q 578 382 592 355 q 549 507 549 441 l 549 513 q 548 545 548 529 q 597 735 548 646 q 663 795 621 774 q 678 800 671 800 q 699 788 690 800 q 746 698 737 750 q 806 660 750 660 l 817 661 q 895 716 871 669 q 907 764 907 740 q 895 815 907 789 q 797 900 862 876 q 675 922 736 922 q 588 911 632 922 q 355 751 437 883 q 300 545 300 652 q 394 288 300 387 q 565 222 468 222 z "},"":{"ha":546,"x_min":0,"x_max":546,"o":"m 155 347 q 285 377 216 347 l 307 385 l 308 386 q 317 389 313 388 q 328 385 322 389 q 407 363 365 363 q 429 365 418 363 q 523 441 502 369 q 545 631 545 535 l 546 665 q 534 781 546 724 q 364 967 507 928 q 286 974 325 974 q 159 956 222 974 q 62 913 106 945 q 45 883 45 897 q 69 853 45 867 q 121 842 94 842 q 207 862 157 842 q 271 880 254 880 q 301 862 290 880 q 328 760 328 814 q 328 752 328 756 q 327 746 328 747 q 323 745 326 745 q 319 745 321 745 q 316 746 317 746 q 261 751 288 751 q 222 749 241 751 q 0 479 0 701 l 0 464 q 52 375 3 407 q 155 347 101 347 m 229 449 q 220 452 222 449 q 214 484 214 457 q 258 613 214 550 q 271 622 264 622 q 283 613 277 622 q 315 528 315 576 q 267 458 315 465 q 229 449 241 449 z "},"":{"ha":1029,"x_min":0,"x_max":1029,"o":"m 536 -172 q 580 -163 558 -172 q 627 -92 627 -144 q 598 -18 627 -60 q 475 168 567 37 q 394 286 433 226 q 252 568 271 478 q 249 591 249 580 q 277 652 249 625 q 492 828 381 745 q 780 1094 648 949 q 818 1160 818 1135 q 793 1196 818 1181 q 717 1215 757 1215 q 580 1164 635 1215 q 462 1057 519 1112 q 77 724 322 920 q 1 612 18 683 q 0 591 0 602 q 9 536 0 564 q 40 450 20 492 q 348 -68 172 178 q 512 -170 412 -151 q 536 -172 524 -172 m 931 34 l 939 34 q 985 43 964 34 q 1029 100 1029 62 q 1022 134 1029 115 q 970 197 1004 171 q 703 416 856 304 q 641 469 669 439 q 629 488 629 481 q 643 507 629 495 l 712 574 q 899 764 810 663 q 957 859 957 830 q 927 896 957 882 q 857 911 891 911 q 763 882 809 911 q 741 864 751 873 l 657 784 q 438 566 543 680 q 405 494 405 530 q 434 424 405 459 q 568 290 495 351 q 749 117 663 208 q 931 34 825 40 z "},"":{"ha":916,"x_min":0,"x_max":916,"o":"m 805 608 q 821 608 813 608 q 880 630 862 613 q 905 725 905 652 l 905 733 q 910 818 907 776 q 916 935 916 876 q 913 1006 916 970 q 813 1136 907 1106 l 811 1137 q 739 1154 776 1148 q 422 1173 581 1173 l 375 1173 q 106 1150 239 1173 q 20 1110 57 1143 q 0 1070 0 1090 q 18 1031 0 1050 q 76 996 43 1006 q 218 972 145 972 q 258 975 237 972 q 374 979 356 979 q 440 977 408 979 l 680 977 q 702 974 698 977 q 705 958 705 970 l 705 926 q 709 794 705 860 q 713 686 712 740 q 805 608 713 608 z "},"":{"ha":1260,"x_min":0,"x_max":1260,"o":"m 611 -132 q 972 -12 804 -132 q 1260 545 1260 209 q 1249 684 1260 612 q 904 1137 1197 1000 q 660 1190 783 1190 l 632 1189 q 600 1190 615 1190 q 545 1187 575 1190 q 483 1162 515 1184 q 472 1158 477 1158 q 178 973 295 1112 q 0 499 0 762 q 7 391 0 446 q 170 52 32 195 q 611 -132 357 -132 m 620 -40 q 464 5 538 -40 q 239 278 306 104 q 187 569 187 397 q 247 815 191 697 q 424 1025 304 933 q 490 1065 455 1048 q 562 1087 534 1087 q 578 1086 570 1087 l 585 1086 q 612 1089 599 1086 q 637 1093 631 1093 q 836 1023 749 1093 q 1038 723 987 907 q 1069 519 1069 619 q 969 174 1069 340 q 680 -35 869 8 q 620 -40 649 -40 m 878 208 q 944 246 920 208 q 954 283 954 264 q 947 315 954 299 q 846 499 910 414 q 781 551 821 534 q 771 559 771 556 q 777 570 771 564 q 822 620 801 594 q 880 742 866 674 q 884 777 884 760 q 803 901 884 854 q 647 940 732 940 l 629 939 l 612 940 q 518 926 566 940 q 420 896 469 912 l 415 894 q 383 857 388 885 l 380 837 q 368 588 368 776 q 380 290 368 439 q 417 235 384 252 q 468 223 441 223 q 540 248 511 223 q 560 304 559 264 l 563 429 q 566 443 563 438 q 583 448 570 448 l 585 448 q 632 460 610 448 q 644 465 639 465 q 742 297 663 465 q 859 210 778 224 q 878 208 869 208 m 566 577 q 558 578 562 577 l 558 735 q 550 827 558 782 l 549 834 q 560 844 549 842 q 600 849 581 849 q 631 846 616 849 q 680 788 680 834 l 680 780 q 566 577 656 659 z "},"":{"ha":665,"x_min":-73,"x_max":678,"o":"m 370 809 l 526 810 q 631 836 582 810 q 678 894 677 857 q 633 951 677 929 q 510 983 575 981 q 344 987 427 987 q 188 984 266 987 l 144 984 q -52 935 8 984 q -73 895 -73 915 q -52 854 -73 874 q -16 831 -35 840 q 91 809 35 810 l 370 809 z "},"":{"ha":397,"x_min":0,"x_max":397,"o":"m 203 838 q 376 951 326 841 q 397 1048 397 998 q 393 1091 397 1069 q 260 1211 371 1202 q 233 1213 244 1211 q 191 1219 212 1219 q 110 1196 149 1219 q 4 1032 20 1137 q 0 1001 0 1016 q 24 930 0 963 q 203 838 94 843 m 202 941 q 191 948 196 941 q 166 1011 166 976 q 197 1126 166 1070 q 210 1138 203 1138 q 222 1130 215 1138 q 247 1057 247 1098 q 214 949 247 998 q 202 941 208 941 z "},"":{"ha":730,"x_min":0,"x_max":730,"o":"m 345 180 q 448 253 437 180 q 453 328 453 290 q 450 391 453 359 l 450 515 q 460 526 450 526 l 492 526 q 565 530 520 526 q 669 568 624 530 q 684 596 684 583 q 667 625 684 610 q 492 667 612 667 l 463 667 q 447 683 447 667 l 447 686 q 448 739 448 712 l 448 755 l 450 793 q 437 892 450 844 q 366 951 419 939 q 340 954 353 954 q 277 929 304 954 q 264 901 266 917 q 247 696 247 819 l 247 671 q 233 659 247 659 q 155 655 194 659 q 47 630 99 653 q 12 589 14 614 q 47 546 14 562 q 119 528 81 531 q 175 526 147 526 q 231 528 203 526 l 235 529 q 245 517 245 529 l 245 514 q 239 343 239 391 q 243 255 239 299 q 291 190 246 207 q 345 180 318 180 m 283 -35 q 390 -32 337 -35 l 441 -32 l 489 -33 q 561 -31 525 -33 l 568 -31 q 684 -7 628 -31 q 715 13 702 1 q 730 47 729 25 q 684 99 728 79 q 576 121 632 121 l 544 121 q 430 119 487 121 q 315 117 373 117 l 263 117 q 108 106 185 117 q 20 76 60 102 q 0 43 0 60 q 18 10 0 27 q 47 -7 31 -1 q 136 -28 91 -24 q 283 -35 210 -35 z "},"":{"ha":248,"x_min":0,"x_max":248,"o":"m 51 788 q 66 789 59 788 q 185 800 131 800 q 208 801 196 800 q 242 810 226 801 q 248 821 248 816 q 243 831 248 826 q 228 839 237 837 q 196 844 212 844 l 176 844 q 119 842 147 844 q 121 846 119 844 q 178 961 159 899 q 196 1057 196 1007 q 132 1154 196 1131 q 89 1160 111 1160 q 72 1159 81 1160 q 18 1140 42 1157 q 2 1122 7 1133 q 0 1110 0 1116 q 14 1093 0 1097 q 28 1090 22 1090 q 53 1101 41 1090 q 77 1116 64 1111 q 81 1118 79 1118 q 87 1116 85 1118 q 107 1086 102 1104 q 113 1046 113 1066 q 106 1003 113 1024 q 14 825 84 902 q 7 810 7 817 q 20 794 7 801 q 51 788 33 788 z "},"":{"ha":226,"x_min":0,"x_max":226,"o":"m 98 778 q 159 790 130 778 q 222 860 208 809 q 226 888 226 874 q 214 942 226 916 q 165 990 199 977 q 161 993 161 991 q 163 997 161 994 q 203 1067 192 1027 q 207 1092 207 1080 q 160 1149 207 1133 q 118 1156 140 1156 l 109 1156 q 45 1142 75 1156 q 30 1133 37 1139 q 24 1122 24 1127 q 34 1112 24 1116 q 45 1109 39 1109 q 66 1113 52 1109 q 100 1118 83 1117 q 106 1119 103 1119 q 128 1095 128 1119 q 120 1061 128 1078 q 57 990 98 1017 l 56 989 q 45 974 45 983 q 50 964 45 968 q 59 958 54 960 l 60 958 q 85 954 71 954 q 106 957 95 954 q 113 958 109 958 q 125 952 119 958 q 136 935 132 944 q 143 897 143 916 l 143 892 q 112 828 143 852 q 88 817 98 817 q 83 818 88 817 q 67 826 78 818 l 63 829 q 43 840 54 836 q 30 845 37 841 q 17 848 24 848 q 7 847 12 848 q 0 839 0 845 q 1 835 0 837 l 1 833 q 1 831 1 832 l 1 830 q 1 827 1 829 q 7 812 1 821 q 29 794 17 802 q 83 779 54 780 q 98 778 91 778 z "},"":{"ha":377,"x_min":0,"x_max":377,"o":"m 94 481 q 159 496 127 484 q 209 544 190 509 q 376 946 359 838 q 377 959 377 953 q 353 1008 377 987 q 285 1029 321 1029 q 234 1021 269 1029 q 174 963 199 1013 q 0 545 0 582 q 36 494 0 513 q 94 481 60 481 z "},"":{"ha":896,"x_min":0,"x_max":896,"o":"m 115 -56 q 176 -34 144 -56 q 209 50 209 -12 l 208 93 l 208 115 l 208 163 l 207 288 q 209 495 207 391 q 210 696 210 596 q 215 709 210 709 q 224 706 218 709 q 435 657 327 657 q 718 743 588 657 l 714 475 q 716 441 714 458 q 718 415 718 429 q 716 389 718 402 l 715 378 q 736 345 715 356 q 801 329 769 329 q 867 346 834 329 q 888 378 888 356 l 888 400 q 889 431 888 416 q 896 698 896 499 q 880 1043 896 951 q 810 1086 871 1086 q 741 1044 749 1086 l 735 1008 q 730 977 730 980 q 722 967 730 968 q 675 943 695 960 q 636 900 649 919 q 487 792 576 826 q 438 783 463 783 q 410 785 424 783 q 274 880 327 811 q 254 905 264 892 q 219 947 239 928 q 214 955 215 950 q 213 967 214 959 q 213 983 213 975 l 211 1041 q 175 1091 209 1077 q 121 1101 149 1101 q 96 1099 109 1101 q 44 1077 59 1093 q 25 1023 29 1061 q 7 760 10 892 q 0 338 0 518 q 11 34 0 186 q 68 -47 14 -24 q 115 -56 93 -56 z "},"":{"ha":1000,"x_min":0,"x_max":1000,"o":"m 484 -9 q 551 4 517 -9 q 592 62 592 21 q 591 76 592 68 q 585 164 585 120 q 587 337 585 251 l 588 488 q 589 564 589 526 q 574 836 589 700 l 574 840 q 586 848 574 848 l 587 847 q 744 844 665 847 q 754 845 749 844 q 762 846 759 846 q 770 845 766 846 q 779 842 775 845 q 782 834 782 839 q 779 821 782 828 q 776 808 777 814 q 753 421 753 625 l 753 230 q 751 179 751 205 q 759 53 751 116 q 783 16 762 27 q 859 -3 821 -3 q 937 17 899 -3 q 960 50 957 28 q 968 157 968 104 l 969 342 q 959 683 969 488 q 940 836 956 760 q 938 847 938 842 q 952 861 938 856 q 1000 912 999 877 q 985 945 1000 934 q 952 963 970 956 q 855 981 905 981 l 833 980 q 609 975 721 976 q 325 967 467 975 q 255 965 290 965 q 183 962 219 964 q 68 943 124 962 q 0 863 0 916 q 14 808 0 838 q 119 652 54 722 q 246 496 194 574 q 369 342 299 412 q 382 313 382 330 l 382 277 l 383 211 l 384 165 q 380 64 384 115 l 380 58 q 418 4 380 18 q 484 -9 451 -9 z "},"":{"ha":186,"x_min":-59,"x_max":127,"o":"m 35 371 q 82 379 59 371 q 126 433 123 392 q 127 475 127 455 q 126 516 127 496 q 29 602 119 602 l 25 602 q 0 599 13 602 q -58 537 -52 589 q -59 498 -59 518 q -55 432 -59 458 q 35 371 -48 371 z "},"":{"ha":206,"x_min":0,"x_max":206,"o":"m 115 -262 q 159 -250 139 -262 q 200 -195 191 -231 q 206 -153 206 -175 q 178 -37 206 -91 q 113 18 157 4 q 81 23 97 23 q 31 12 56 23 q 13 -1 20 7 q 7 -16 7 -7 q 19 -29 7 -26 q 27 -31 23 -31 q 46 -24 37 -31 q 73 -13 58 -14 l 74 -13 q 81 -15 77 -13 q 104 -45 96 -28 q 129 -156 129 -98 q 127 -186 129 -171 q 114 -223 125 -205 q 112 -226 113 -224 q 111 -228 111 -227 q 105 -231 109 -231 q 101 -230 104 -231 q 66 -199 81 -218 q 47 -170 56 -185 q 32 -157 40 -159 q 20 -155 24 -155 q 4 -160 12 -155 q 0 -168 0 -163 q 1 -172 0 -169 l 1 -174 q 52 -239 22 -210 q 93 -260 75 -258 q 115 -262 110 -262 m 33 -31 q 58 -22 50 -31 l 61 -17 q 66 -11 64 -14 q 144 106 106 47 l 145 108 q 160 136 154 121 q 160 138 160 137 q 156 144 160 142 q 138 147 150 147 q 130 147 137 147 q 115 140 123 146 l 113 137 q 53 51 97 120 q 40 32 47 41 q 10 -16 24 8 q 8 -22 8 -19 q 18 -30 8 -27 q 29 -31 24 -31 l 33 -31 z "},"":{"ha":152,"x_min":0,"x_max":152,"o":"m 116 782 q 137 787 126 782 q 149 806 149 792 q 149 846 149 826 l 150 882 q 152 1057 152 970 l 152 1076 q 148 1130 152 1103 q 110 1155 143 1155 q 74 1141 90 1155 q 41 1112 58 1126 q 4 1076 22 1095 q 0 1067 0 1071 q 8 1058 0 1062 q 24 1055 16 1055 q 30 1055 26 1055 q 62 1072 48 1059 q 79 1086 70 1079 l 87 1094 l 87 1074 q 85 1013 87 1055 q 82 865 82 935 q 83 806 82 836 q 95 787 83 792 q 116 782 105 782 z "},"":{"ha":397,"x_min":0,"x_max":397,"o":"m 203 838 q 376 951 326 841 q 397 1048 397 998 q 393 1091 397 1069 q 260 1211 371 1202 q 233 1213 244 1211 q 191 1219 212 1219 q 110 1196 149 1219 q 4 1032 20 1137 q 0 1001 0 1016 q 24 930 0 963 q 203 838 94 843 m 202 941 q 191 948 196 941 q 166 1011 166 976 q 197 1126 166 1070 q 210 1138 203 1138 q 222 1130 214 1138 q 247 1057 247 1098 q 214 949 247 998 q 202 941 208 941 z "},"":{"ha":1029,"x_min":0,"x_max":1029,"o":"m 494 -172 q 517 -170 505 -172 q 682 -68 618 -151 q 989 450 857 178 q 1021 536 1010 492 q 1029 591 1029 564 q 1028 612 1029 602 q 953 724 1012 683 q 568 1057 707 920 q 450 1164 510 1112 q 313 1215 394 1215 q 236 1196 273 1215 q 212 1160 212 1181 q 250 1094 212 1135 q 537 828 382 949 q 752 652 648 745 q 781 591 781 625 q 778 568 781 580 q 635 286 758 478 q 555 168 596 226 q 431 -18 463 37 q 402 -92 402 -60 q 450 -163 402 -144 q 494 -172 471 -172 m 98 34 q 281 117 205 40 q 461 290 367 208 q 595 424 534 351 q 625 494 625 459 q 591 566 625 530 q 372 784 486 680 l 289 864 q 267 882 279 873 q 173 911 220 911 q 102 896 138 911 q 73 859 73 882 q 131 764 73 830 q 317 574 219 663 l 387 507 q 400 488 400 495 q 389 469 400 481 q 326 416 360 439 q 59 197 174 304 q 7 134 26 171 q 0 100 0 115 q 44 43 0 62 q 91 34 65 34 l 98 34 z "},"":{"ha":747,"x_min":26,"x_max":773,"o":"m 393 370 q 276 271 276 370 l 276 265 q 264 -9 273 127 q 205 -144 260 -86 q 26 -588 26 -330 l 26 -602 q 181 -821 29 -765 q 355 -850 271 -850 q 660 -741 516 -850 q 764 -603 730 -686 q 773 -565 773 -582 q 741 -511 773 -531 q 677 -496 715 -496 q 645 -497 671 -496 q 587 -531 619 -498 q 479 -643 549 -573 q 370 -715 433 -692 q 351 -718 359 -718 q 294 -586 294 -718 q 308 -469 294 -527 q 444 -205 341 -319 q 516 -47 503 -137 q 522 41 522 -3 q 523 90 522 66 l 523 99 q 509 287 523 194 q 450 360 503 342 q 393 370 422 370 m 399 694 q 288 595 288 688 q 290 563 288 581 q 332 509 296 525 q 408 493 370 493 q 483 510 445 493 q 521 568 521 527 q 399 694 521 690 z "},"":{"ha":859,"x_min":31,"x_max":806,"o":"m 717 -73 q 764 -62 742 -73 q 806 5 806 -44 q 803 33 806 18 q 786 214 792 123 q 735 720 767 484 q 678 941 722 833 q 542 1071 627 1048 q 465 1082 503 1082 q 382 1067 422 1082 q 220 940 281 1029 q 90 662 129 812 q 31 210 31 449 l 31 142 q 40 33 31 92 q 54 1 43 12 q 114 -20 82 -20 q 146 -14 130 -20 q 190 40 187 -3 l 221 309 q 309 728 242 524 q 439 949 347 854 q 454 958 448 958 l 457 958 q 467 946 460 958 q 564 479 529 831 l 577 361 q 621 4 610 124 q 642 -44 623 -24 q 717 -73 673 -73 m 370 415 q 469 425 421 417 l 481 426 q 539 449 513 429 q 553 475 553 462 q 538 501 553 488 q 493 521 518 517 q 429 526 461 526 q 399 525 414 526 q 370 524 385 524 q 284 502 325 524 q 258 467 260 489 q 285 432 260 445 q 361 415 323 415 l 370 415 m 463 1157 q 521 1170 497 1157 q 557 1221 557 1189 q 383 1639 557 1258 q 322 1697 357 1689 q 272 1706 288 1706 q 203 1684 236 1706 q 180 1635 180 1664 q 181 1622 180 1629 q 348 1220 197 1514 q 398 1172 367 1185 q 463 1157 429 1160 z "},"":{"ha":859,"x_min":31,"x_max":806,"o":"m 717 -73 q 764 -62 742 -73 q 806 5 806 -44 q 803 33 806 18 q 786 214 792 123 q 735 720 767 484 q 678 941 722 833 q 542 1071 627 1048 q 465 1082 503 1082 q 382 1067 422 1082 q 220 940 281 1029 q 90 662 129 812 q 31 210 31 449 l 31 142 q 40 33 31 92 q 54 1 43 12 q 114 -20 82 -20 q 146 -14 130 -20 q 190 40 187 -3 l 221 309 q 309 728 242 524 q 439 949 347 854 q 454 958 448 958 l 457 958 q 467 946 460 958 q 564 479 529 831 l 577 361 q 621 4 610 124 q 642 -44 623 -24 q 717 -73 673 -73 m 370 415 q 469 425 421 417 l 481 426 q 539 449 513 429 q 553 475 553 462 q 538 501 553 488 q 493 521 518 517 q 429 526 461 526 q 399 525 414 526 q 370 524 385 524 q 284 502 325 524 q 258 467 260 489 q 285 432 260 445 q 361 415 323 415 l 370 415 m 425 1149 q 490 1164 458 1152 q 540 1212 521 1177 q 707 1614 690 1506 q 708 1627 708 1621 q 684 1676 708 1655 q 616 1697 652 1697 q 565 1689 600 1697 q 505 1631 530 1681 q 331 1213 331 1250 q 367 1162 331 1181 q 425 1149 391 1149 z "},"":{"ha":859,"x_min":31,"x_max":806,"o":"m 717 -73 q 764 -62 742 -73 q 806 5 806 -44 q 803 33 806 18 q 786 214 792 123 q 735 720 767 484 q 678 941 722 833 q 542 1071 627 1048 q 465 1082 503 1082 q 382 1067 422 1082 q 220 940 281 1029 q 90 662 129 812 q 31 210 31 449 l 31 142 q 40 33 31 92 q 54 1 43 12 q 114 -20 82 -20 q 146 -14 130 -20 q 190 40 187 -3 l 221 309 q 309 728 242 524 q 439 949 347 854 q 454 958 448 958 l 457 958 q 467 946 460 958 q 564 479 529 831 l 577 361 q 621 4 610 124 q 642 -44 623 -24 q 717 -73 673 -73 m 370 415 q 469 425 421 417 l 481 426 q 539 449 513 429 q 553 475 553 462 q 538 501 553 488 q 493 521 518 517 q 429 526 461 526 q 399 525 414 526 q 370 524 385 524 q 284 502 325 524 q 258 467 260 489 q 285 432 260 445 q 361 415 323 415 l 370 415 m 602 1101 q 661 1122 639 1101 q 679 1165 679 1139 l 678 1177 q 607 1455 650 1324 q 557 1573 589 1517 q 446 1630 522 1630 q 386 1617 416 1630 q 336 1554 355 1605 q 295 1431 315 1493 l 272 1361 l 269 1351 q 231 1208 243 1281 l 229 1195 q 231 1179 229 1188 q 244 1161 233 1169 q 309 1142 275 1142 q 348 1148 328 1142 q 399 1207 385 1158 q 442 1345 418 1276 l 448 1346 q 486 1227 463 1286 l 506 1173 q 600 1101 530 1107 l 602 1101 z "},"":{"ha":859,"x_min":31,"x_max":806,"o":"m 717 -73 q 764 -62 742 -73 q 806 5 806 -44 q 803 33 806 18 q 786 214 792 123 q 735 720 767 484 q 678 941 722 833 q 542 1071 627 1048 q 465 1082 503 1082 q 382 1067 422 1082 q 220 940 281 1029 q 90 662 129 812 q 31 210 31 449 l 31 142 q 40 33 31 92 q 54 1 43 12 q 114 -20 82 -20 q 146 -14 130 -20 q 190 40 187 -3 l 221 309 q 309 728 242 524 q 439 949 347 854 q 454 958 448 958 l 457 958 q 467 946 460 958 q 564 479 529 831 l 577 361 q 621 4 610 124 q 642 -44 623 -24 q 717 -73 673 -73 m 370 415 q 469 425 421 417 l 481 426 q 539 449 513 429 q 553 475 553 462 q 538 501 553 488 q 493 521 518 517 q 429 526 461 526 q 399 525 414 526 q 370 524 385 524 q 284 502 325 524 q 258 467 260 489 q 285 432 260 445 q 361 415 323 415 l 370 415 m 520 1164 q 585 1195 560 1164 q 614 1254 603 1223 q 616 1261 616 1257 q 612 1271 616 1266 q 582 1283 600 1283 q 536 1259 553 1283 l 527 1246 q 515 1234 519 1234 q 503 1246 511 1234 q 395 1300 461 1300 q 273 1196 298 1300 q 272 1190 272 1193 q 287 1173 272 1177 q 304 1170 296 1170 q 359 1214 338 1170 q 379 1244 367 1230 q 387 1249 383 1249 q 395 1245 391 1249 q 423 1212 411 1230 l 430 1204 q 509 1164 462 1164 l 520 1164 z "},"":{"ha":859,"x_min":-76,"x_max":880,"o":"m 717 -73 q 764 -62 742 -73 q 806 5 806 -44 q 803 33 806 18 q 786 214 792 123 q 735 720 767 484 q 678 941 722 833 q 542 1071 627 1048 q 465 1082 503 1082 q 382 1067 422 1082 q 220 940 281 1029 q 90 662 129 812 q 31 210 31 449 l 31 142 q 40 33 31 92 q 54 1 43 12 q 114 -20 82 -20 q 146 -14 130 -20 q 190 40 187 -3 l 221 309 q 309 728 242 524 q 439 949 347 854 q 454 958 448 958 l 457 958 q 467 946 460 958 q 564 479 529 831 l 577 361 q 621 4 610 124 q 642 -44 623 -24 q 717 -73 673 -73 m 370 415 q 469 425 421 417 l 481 426 q 539 449 513 429 q 553 475 553 462 q 538 501 553 488 q 493 521 518 517 q 429 526 461 526 q 399 525 414 526 q 370 524 385 524 q 284 502 325 524 q 258 467 260 489 q 285 432 260 445 q 361 415 323 415 l 370 415 m 640 1145 q 793 1221 732 1145 q 880 1440 861 1321 l 880 1452 l 880 1463 q 864 1499 880 1486 q 807 1520 838 1520 q 763 1511 793 1520 q 721 1453 733 1502 q 717 1421 717 1426 q 653 1265 706 1337 q 636 1329 636 1298 l 629 1456 q 598 1510 628 1491 q 544 1525 571 1525 q 495 1514 526 1525 q 444 1457 463 1503 q 428 1366 428 1412 q 620 1145 428 1160 l 640 1145 m 121 1121 q 263 1175 197 1121 q 349 1297 321 1225 q 391 1456 376 1375 l 391 1464 q 371 1495 391 1485 q 319 1508 345 1508 q 272 1498 296 1508 q 241 1463 249 1489 l 230 1424 q 199 1333 217 1377 q 138 1240 178 1280 q 126 1232 131 1232 q 115 1245 119 1232 q 98 1306 101 1275 q 94 1368 96 1338 q 90 1434 92 1401 q 77 1472 87 1460 q 15 1492 58 1492 q -23 1486 -5 1492 q -75 1383 -75 1470 l -75 1371 q -44 1214 -75 1284 q 35 1137 -20 1158 q 121 1121 79 1121 z "},"":{"ha":859,"x_min":31,"x_max":806,"o":"m 717 -73 q 764 -62 742 -73 q 806 5 806 -44 q 803 33 806 18 q 786 214 792 123 q 735 720 767 484 q 678 941 722 833 q 542 1071 627 1048 q 465 1082 503 1082 q 382 1067 422 1082 q 220 940 281 1029 q 90 662 129 812 q 31 210 31 449 l 31 142 q 40 33 31 92 q 54 1 43 12 q 114 -20 82 -20 q 146 -14 130 -20 q 190 40 187 -3 l 221 309 q 309 728 242 524 q 439 949 347 854 q 454 958 448 958 l 457 958 q 467 946 460 958 q 564 479 529 831 l 577 361 q 621 4 610 124 q 642 -44 623 -24 q 717 -73 673 -73 m 370 415 q 469 425 421 417 l 481 426 q 539 449 513 429 q 553 475 553 462 q 538 501 553 488 q 493 521 518 517 q 429 526 461 526 q 399 525 414 526 q 370 524 385 524 q 284 502 325 524 q 258 467 260 489 q 285 432 260 445 q 361 415 323 415 l 370 415 m 428 1137 q 602 1251 551 1141 q 622 1348 622 1297 q 618 1391 622 1369 q 485 1511 596 1501 q 458 1513 469 1511 q 416 1518 437 1518 q 335 1495 374 1518 q 229 1332 245 1437 q 225 1301 225 1316 q 250 1230 225 1263 q 428 1137 319 1143 m 427 1240 q 416 1248 421 1240 q 391 1311 391 1276 q 422 1426 391 1370 q 435 1438 428 1438 q 447 1430 439 1438 q 472 1357 472 1398 q 439 1249 472 1297 q 427 1240 433 1240 z "},"":{"ha":1385,"x_min":45,"x_max":1437,"o":"m 731 -73 q 779 -62 756 -73 q 820 5 820 -44 q 817 33 820 18 q 800 214 806 123 q 749 720 781 484 q 692 941 736 833 q 556 1071 641 1048 q 479 1082 517 1082 q 396 1067 437 1082 q 234 940 296 1029 q 104 662 143 812 q 45 210 45 449 l 45 142 q 54 33 45 92 q 68 1 58 12 q 128 -20 96 -20 q 161 -14 144 -20 q 204 40 201 -3 l 235 309 q 323 728 256 524 q 454 949 361 854 q 468 958 462 958 l 471 958 q 481 946 475 958 q 578 479 543 831 l 591 361 q 635 4 625 124 q 656 -44 637 -24 q 731 -73 687 -73 m 384 415 q 483 425 435 417 l 495 426 q 553 449 528 429 q 567 475 567 462 q 552 501 567 488 q 507 521 532 517 q 443 526 475 526 q 413 525 428 526 q 385 524 399 524 q 298 502 339 524 q 273 467 274 489 q 299 432 274 445 q 376 415 337 415 l 384 415 m 945 -68 q 1211 7 1070 -68 q 1290 43 1250 26 q 1409 98 1342 64 q 1437 127 1437 109 q 1421 151 1437 144 q 1397 158 1410 156 q 1388 159 1393 159 l 1381 159 q 1317 146 1348 159 q 1236 118 1277 133 q 1009 58 1127 74 q 988 56 998 56 q 948 66 964 56 q 922 114 932 76 l 920 125 q 903 304 903 214 q 911 396 903 392 q 921 397 914 397 q 1086 401 958 397 q 1173 427 1133 402 q 1202 469 1202 448 q 1173 510 1202 489 q 1067 536 1128 536 q 978 531 1022 536 q 928 528 937 528 q 910 543 910 528 l 911 550 q 913 590 913 570 l 914 651 q 916 712 916 682 q 905 862 916 787 l 905 867 q 916 874 905 874 l 1095 878 q 1250 922 1200 880 q 1267 954 1267 938 q 1250 987 1267 970 q 1218 1007 1236 1000 q 1131 1027 1176 1025 q 986 1032 1059 1032 q 779 1023 883 1032 q 635 987 704 1019 q 609 970 621 980 q 597 941 597 960 q 611 913 598 922 q 638 897 623 903 l 640 897 q 714 880 669 885 q 685 692 692 787 q 680 640 682 657 q 651 267 651 376 q 657 142 651 205 q 823 -52 675 -12 q 945 -68 884 -68 z "},"":{"ha":829,"x_min":17,"x_max":821,"o":"m 371 -5 q 459 2 391 -5 q 618 85 527 9 q 814 340 736 197 l 817 348 q 821 363 821 356 q 805 392 821 380 q 742 412 776 412 q 696 405 728 412 q 639 355 665 397 q 560 237 604 293 q 425 119 505 165 q 409 114 416 114 q 389 126 398 114 q 382 136 386 131 q 374 146 378 140 q 325 290 334 214 q 318 407 318 349 q 416 840 318 631 q 505 957 448 908 q 533 967 517 967 l 536 967 q 641 923 595 960 q 715 898 675 898 q 747 902 730 898 q 791 954 791 913 q 770 1010 791 986 q 699 1062 741 1045 q 505 1105 604 1105 q 378 1088 442 1105 q 125 871 207 1031 q 17 418 17 661 q 41 256 17 335 q 197 41 77 118 q 371 -5 278 -5 m 391 -354 q 435 -342 414 -354 q 475 -287 466 -323 q 481 -245 481 -267 q 454 -130 481 -183 q 389 -74 433 -88 q 356 -69 372 -69 q 307 -81 331 -69 q 288 -94 296 -85 q 283 -108 283 -100 q 294 -121 283 -119 q 302 -123 298 -123 q 321 -116 313 -123 q 348 -105 333 -106 l 349 -105 q 356 -107 353 -105 q 379 -138 371 -120 q 404 -248 404 -191 q 402 -278 404 -263 q 389 -315 400 -298 q 388 -318 389 -317 q 386 -320 387 -319 q 380 -323 384 -323 q 376 -322 379 -323 q 342 -292 356 -311 q 322 -262 331 -277 q 307 -249 315 -251 q 296 -248 299 -248 q 279 -252 287 -248 q 275 -260 275 -255 q 276 -264 275 -261 l 277 -266 q 327 -331 297 -302 q 368 -352 351 -351 q 391 -354 385 -354 m 309 -123 q 333 -114 325 -123 l 336 -109 q 341 -103 339 -106 q 419 14 381 -45 l 420 16 q 435 44 429 29 q 435 46 435 45 q 431 52 435 50 q 414 55 425 55 q 405 55 412 55 q 391 47 398 54 l 389 45 q 328 -41 372 28 q 315 -60 322 -51 q 286 -109 300 -84 q 283 -114 283 -111 q 294 -122 283 -119 q 304 -123 300 -123 l 309 -123 z "},"":{"ha":837,"x_min":28,"x_max":868,"o":"m 376 -9 q 642 65 501 -9 q 721 101 681 84 q 840 156 773 123 q 868 185 868 167 q 852 210 868 203 q 828 216 841 214 q 819 218 824 218 l 812 218 q 748 205 779 218 q 667 176 708 191 q 440 116 558 132 q 419 115 429 115 q 379 124 395 115 q 353 172 363 134 l 351 183 q 334 363 334 273 q 342 454 334 450 q 352 456 345 456 q 517 460 389 456 q 604 486 564 460 q 633 527 633 506 q 604 568 633 547 q 498 594 559 594 q 409 589 453 594 q 359 586 368 586 q 341 602 341 586 l 342 608 q 344 648 344 629 l 345 709 q 347 770 347 740 q 336 920 347 846 l 336 925 q 347 932 336 932 l 526 936 q 681 980 631 938 q 698 1013 698 996 q 681 1045 698 1029 q 649 1065 667 1058 q 562 1086 607 1083 q 417 1090 490 1090 q 210 1081 314 1090 q 66 1045 135 1078 q 40 1028 52 1038 q 28 1000 28 1018 q 42 971 29 981 q 69 956 54 962 l 71 956 q 145 939 100 943 q 116 751 123 846 q 111 699 113 715 q 82 326 82 434 q 88 201 82 263 q 254 6 106 47 q 376 -9 315 -9 m 418 1156 q 476 1168 452 1156 q 512 1220 512 1187 q 338 1638 512 1257 q 278 1696 313 1687 q 227 1704 243 1704 q 159 1683 191 1704 q 135 1634 135 1662 q 136 1621 135 1628 q 303 1219 152 1513 q 353 1171 322 1183 q 418 1156 385 1158 z "},"":{"ha":837,"x_min":28,"x_max":868,"o":"m 376 -9 q 642 65 501 -9 q 721 101 681 84 q 840 156 773 123 q 868 185 868 167 q 852 210 868 203 q 828 216 841 214 q 819 218 824 218 l 812 218 q 748 205 779 218 q 667 176 708 191 q 440 116 558 132 q 419 115 429 115 q 379 124 395 115 q 353 172 363 134 l 351 183 q 334 363 334 273 q 342 454 334 450 q 352 456 345 456 q 517 460 389 456 q 604 486 564 460 q 633 527 633 506 q 604 568 633 547 q 498 594 559 594 q 409 589 453 594 q 359 586 368 586 q 341 602 341 586 l 342 608 q 344 648 344 629 l 345 709 q 347 770 347 740 q 336 920 347 846 l 336 925 q 347 932 336 932 l 526 936 q 681 980 631 938 q 698 1013 698 996 q 681 1045 698 1029 q 649 1065 667 1058 q 562 1086 607 1083 q 417 1090 490 1090 q 210 1081 314 1090 q 66 1045 135 1078 q 40 1028 52 1038 q 28 1000 28 1018 q 42 971 29 981 q 69 956 54 962 l 71 956 q 145 939 100 943 q 116 751 123 846 q 111 699 113 715 q 82 326 82 434 q 88 201 82 263 q 254 6 106 47 q 376 -9 315 -9 m 393 1168 q 457 1183 426 1171 q 507 1231 488 1196 q 674 1633 658 1525 q 675 1646 675 1640 q 652 1695 675 1674 q 583 1716 619 1716 q 533 1708 568 1716 q 472 1650 498 1699 q 298 1232 298 1269 q 334 1181 298 1200 q 393 1168 358 1168 z "},"":{"ha":837,"x_min":28,"x_max":868,"o":"m 376 -9 q 642 65 501 -9 q 721 101 681 84 q 840 156 773 123 q 868 185 868 167 q 852 210 868 203 q 828 216 841 214 q 819 218 824 218 l 812 218 q 748 205 779 218 q 667 176 708 191 q 440 116 558 132 q 419 115 429 115 q 379 124 395 115 q 353 172 363 134 l 351 183 q 334 363 334 273 q 342 454 334 450 q 352 456 345 456 q 517 460 389 456 q 604 486 564 460 q 633 527 633 506 q 604 568 633 547 q 498 594 559 594 q 409 589 453 594 q 359 586 368 586 q 341 602 341 586 l 342 608 q 344 648 344 629 l 345 709 q 347 770 347 740 q 336 920 347 846 l 336 925 q 347 932 336 932 l 526 936 q 681 980 631 938 q 698 1013 698 996 q 681 1045 698 1029 q 649 1065 667 1058 q 562 1086 607 1083 q 417 1090 490 1090 q 210 1081 314 1090 q 66 1045 135 1078 q 40 1028 52 1038 q 28 1000 28 1018 q 42 971 29 981 q 69 956 54 962 l 71 956 q 145 939 100 943 q 116 751 123 846 q 111 699 113 715 q 82 326 82 434 q 88 201 82 263 q 254 6 106 47 q 376 -9 315 -9 m 524 1149 q 583 1169 562 1149 q 602 1213 602 1187 l 601 1224 q 530 1502 572 1372 q 479 1621 512 1565 q 368 1677 444 1677 q 308 1665 338 1677 q 258 1601 278 1653 q 218 1478 237 1540 l 195 1409 l 192 1398 q 153 1255 166 1329 l 152 1242 q 154 1226 152 1236 q 167 1208 155 1217 q 231 1190 197 1190 q 271 1196 250 1190 q 321 1255 307 1206 q 365 1393 341 1324 l 370 1394 q 409 1275 386 1333 l 429 1220 q 522 1149 453 1155 l 524 1149 z "},"":{"ha":837,"x_min":-47,"x_max":909,"o":"m 376 -9 q 642 65 501 -9 q 721 101 681 84 q 840 156 773 123 q 868 185 868 167 q 852 210 868 203 q 828 216 841 214 q 819 218 824 218 l 812 218 q 748 205 779 218 q 667 176 708 191 q 440 116 558 132 q 419 115 429 115 q 379 124 395 115 q 353 172 363 134 l 351 183 q 334 363 334 273 q 342 454 334 450 q 352 456 345 456 q 517 460 389 456 q 604 486 564 460 q 633 527 633 506 q 604 568 633 547 q 498 594 559 594 q 409 589 453 594 q 359 586 368 586 q 341 602 341 586 l 342 608 q 344 648 344 629 l 345 709 q 347 770 347 740 q 336 920 347 846 l 336 925 q 347 932 336 932 l 526 936 q 681 980 631 938 q 698 1013 698 996 q 681 1045 698 1029 q 649 1065 667 1058 q 562 1086 607 1083 q 417 1090 490 1090 q 210 1081 314 1090 q 66 1045 135 1078 q 40 1028 52 1038 q 28 1000 28 1018 q 42 971 29 981 q 69 956 54 962 l 71 956 q 145 939 100 943 q 116 751 123 846 q 111 699 113 715 q 82 326 82 434 q 88 201 82 263 q 254 6 106 47 q 376 -9 315 -9 m 668 1185 q 821 1262 761 1185 q 908 1481 890 1362 l 909 1493 l 908 1503 q 892 1539 908 1527 q 836 1560 866 1560 q 792 1552 822 1560 q 749 1493 762 1543 q 745 1461 745 1466 q 682 1306 734 1378 q 665 1370 665 1339 l 657 1497 q 627 1551 656 1531 q 572 1565 600 1565 q 523 1555 555 1565 q 472 1497 492 1544 q 456 1407 456 1453 q 648 1186 456 1201 l 668 1185 m 149 1162 q 292 1216 225 1162 q 377 1337 350 1265 q 419 1497 405 1415 l 420 1505 q 399 1536 420 1526 q 347 1548 374 1548 q 301 1539 324 1548 q 270 1504 277 1529 l 258 1465 q 227 1373 245 1418 q 167 1280 206 1321 q 155 1273 159 1273 q 143 1286 148 1273 q 127 1347 130 1316 q 122 1409 124 1379 q 118 1475 121 1442 q 105 1513 116 1501 q 43 1533 87 1533 q 5 1527 24 1533 q -47 1423 -47 1510 l -47 1411 q -16 1255 -47 1324 q 64 1178 8 1199 q 149 1162 108 1162 z "},"":{"ha":578,"x_min":-7,"x_max":569,"o":"m 182 -33 q 368 -25 275 -33 q 450 -20 409 -22 q 540 9 499 -18 q 569 54 569 32 q 541 98 569 76 q 387 133 488 133 l 381 133 q 401 184 397 158 q 404 229 404 207 l 404 476 q 406 673 404 574 q 410 745 410 709 q 378 970 410 858 l 389 970 q 516 994 461 970 q 547 1014 534 1002 q 561 1047 560 1026 q 517 1098 559 1080 q 399 1124 460 1124 l 160 1124 q 16 1083 74 1124 q -7 1042 -7 1063 q 14 1002 -7 1023 q 163 962 65 962 l 186 962 q 209 961 205 962 q 212 954 212 960 l 212 951 q 198 722 198 836 q 196 532 196 680 q 201 235 196 383 l 201 226 l 201 214 q 214 151 201 181 q 223 130 223 136 q 222 126 223 128 q 199 122 220 123 q 191 121 197 121 q 80 87 132 116 q 47 41 47 64 q 79 -4 47 19 q 182 -33 127 -32 m 346 1202 q 404 1215 380 1202 q 440 1267 440 1234 q 267 1685 440 1303 q 206 1743 241 1734 q 155 1751 171 1751 q 87 1729 119 1751 q 63 1681 63 1709 q 64 1668 63 1674 q 231 1265 80 1560 q 281 1218 250 1230 q 346 1202 313 1205 z "},"":{"ha":578,"x_min":-7,"x_max":569,"o":"m 182 -33 q 368 -25 275 -33 q 450 -20 409 -22 q 540 9 499 -18 q 569 54 569 32 q 541 98 569 76 q 387 133 488 133 l 381 133 q 401 184 397 158 q 404 229 404 207 l 404 476 q 406 673 404 574 q 410 745 410 709 q 378 970 410 858 l 389 970 q 516 994 461 970 q 547 1014 534 1002 q 561 1047 560 1026 q 517 1098 559 1080 q 399 1124 460 1124 l 160 1124 q 16 1083 74 1124 q -7 1042 -7 1063 q 14 1002 -7 1023 q 163 962 65 962 l 186 962 q 209 961 205 962 q 212 954 212 960 l 212 951 q 198 722 198 836 q 196 532 196 680 q 201 235 196 383 l 201 226 l 201 214 q 214 151 201 181 q 223 130 223 136 q 222 126 223 128 q 199 122 220 123 q 191 121 197 121 q 80 87 132 116 q 47 41 47 64 q 79 -4 47 19 q 182 -33 127 -32 m 281 1222 q 345 1237 314 1225 q 395 1285 376 1250 q 562 1687 546 1579 q 564 1700 564 1694 q 540 1749 564 1729 q 471 1771 507 1771 q 421 1762 456 1771 q 360 1704 386 1754 q 186 1286 186 1323 q 222 1235 186 1254 q 281 1222 246 1222 z "},"":{"ha":578,"x_min":-7,"x_max":569,"o":"m 182 -33 q 368 -25 275 -33 q 450 -20 409 -22 q 540 9 499 -18 q 569 54 569 32 q 541 98 569 76 q 387 133 488 133 l 381 133 q 401 184 397 158 q 404 229 404 207 l 404 476 q 406 673 404 574 q 410 745 410 709 q 378 970 410 858 l 389 970 q 516 994 461 970 q 547 1014 534 1002 q 561 1047 560 1026 q 517 1098 559 1080 q 399 1124 460 1124 l 160 1124 q 16 1083 74 1124 q -7 1042 -7 1063 q 14 1002 -7 1023 q 163 962 65 962 l 186 962 q 209 961 205 962 q 212 954 212 960 l 212 951 q 198 722 198 836 q 196 532 196 680 q 201 235 196 383 l 201 226 l 201 214 q 214 151 201 181 q 223 130 223 136 q 222 126 223 128 q 199 122 220 123 q 191 121 197 121 q 80 87 132 116 q 47 41 47 64 q 79 -4 47 19 q 182 -33 127 -32 m 458 1181 q 517 1202 495 1181 q 535 1245 535 1219 l 534 1257 q 463 1535 506 1404 q 413 1653 446 1597 q 302 1710 378 1710 q 242 1697 272 1710 q 192 1634 212 1685 q 151 1511 171 1573 l 128 1441 l 125 1431 q 87 1288 100 1361 l 85 1275 q 87 1259 85 1268 q 100 1241 89 1249 q 165 1222 131 1222 q 204 1228 184 1222 q 255 1287 241 1238 q 298 1426 275 1356 l 304 1426 q 342 1308 319 1366 l 362 1253 q 456 1181 387 1187 l 458 1181 z "},"":{"ha":578,"x_min":-177,"x_max":779,"o":"m 182 -33 q 368 -25 275 -33 q 450 -20 409 -22 q 540 9 499 -18 q 569 54 569 32 q 541 98 569 76 q 387 133 488 133 l 381 133 q 401 184 397 158 q 404 229 404 207 l 404 476 q 406 673 404 574 q 410 745 410 709 q 378 970 410 858 l 389 970 q 516 994 461 970 q 547 1014 534 1002 q 561 1047 560 1026 q 517 1098 559 1080 q 399 1124 460 1124 l 160 1124 q 16 1083 74 1124 q -7 1042 -7 1063 q 14 1002 -7 1023 q 163 962 65 962 l 186 962 q 209 961 205 962 q 212 954 212 960 l 212 951 q 198 722 198 836 q 196 532 196 680 q 201 235 196 383 l 201 226 l 201 214 q 214 151 201 181 q 223 130 223 136 q 222 126 223 128 q 199 122 220 123 q 191 121 197 121 q 80 87 132 116 q 47 41 47 64 q 79 -4 47 19 q 182 -33 127 -32 m 538 1209 q 692 1286 631 1209 q 779 1505 760 1385 l 779 1516 l 779 1527 q 763 1563 779 1550 q 706 1584 736 1584 q 662 1575 692 1584 q 620 1517 632 1567 q 616 1485 616 1490 q 552 1330 605 1402 q 535 1394 535 1362 l 528 1520 q 497 1575 527 1555 q 443 1589 470 1589 q 394 1578 425 1589 q 342 1521 362 1568 q 327 1430 327 1476 q 519 1210 327 1225 l 538 1209 m 20 1185 q 162 1240 96 1185 q 248 1361 220 1289 q 290 1520 275 1439 l 290 1529 q 270 1560 290 1550 q 218 1572 244 1572 q 171 1563 195 1572 q 140 1528 148 1553 l 129 1489 q 98 1397 116 1442 q 37 1304 77 1345 q 25 1297 30 1297 q 14 1310 18 1297 q -3 1371 0 1339 q -7 1432 -5 1402 q -12 1499 -9 1466 q -24 1537 -14 1525 q -86 1556 -43 1556 q -124 1550 -106 1556 q -176 1447 -176 1534 l -176 1435 q -145 1278 -176 1348 q -66 1202 -121 1223 q 20 1185 -22 1185 z "},"":{"ha":970,"x_min":-403,"x_max":912,"o":"m 176 -4 q 233 7 205 -4 q 263 38 256 16 q 271 48 266 48 q 279 46 275 48 q 481 10 382 10 q 555 15 517 10 q 802 184 713 47 q 912 579 912 355 q 867 827 912 705 q 648 1028 800 983 q 558 1042 603 1042 q 357 968 454 1042 q 283 895 316 936 l 276 897 l 276 1004 q 237 1061 275 1045 q 181 1072 210 1072 q 85 1010 97 1072 q 61 572 68 922 q 59 429 59 516 q 83 50 59 193 q 118 7 89 19 q 176 -4 146 -4 m 418 101 q 384 106 402 101 q 295 140 336 113 q 277 157 285 148 q 269 182 269 167 l 269 342 l 275 342 l 276 390 q 275 424 276 407 l 275 437 q 326 673 275 560 q 463 887 371 795 q 523 933 490 914 q 543 939 533 939 q 566 932 555 939 q 652 810 631 888 q 673 653 673 733 q 668 570 673 612 q 590 275 653 416 q 500 138 557 199 q 418 101 465 101 m -172 412 q -86 414 -129 412 q -14 416 -48 416 q 26 416 7 416 l 276 416 q 368 423 322 416 q 461 460 419 430 q 487 504 487 482 q 461 549 487 526 q 283 593 402 593 l 100 593 q -124 594 -73 593 q -172 595 -148 595 q -267 589 -220 595 q -385 542 -333 583 q -403 503 -403 523 q -385 464 -403 484 q -345 438 -367 448 q -208 412 -279 412 l -172 412 z "},"":{"ha":997,"x_min":60,"x_max":926,"o":"m 182 -33 q 273 28 261 -33 q 283 171 283 99 l 283 180 q 288 479 287 471 l 288 487 q 295 482 293 485 q 297 476 296 479 q 299 472 298 473 l 345 370 q 494 112 404 233 q 666 26 561 26 l 688 26 q 852 155 816 33 q 863 199 859 177 q 905 562 897 379 q 926 943 926 857 q 922 1038 926 990 q 807 1123 916 1123 q 695 1039 697 1123 q 690 963 694 1001 q 686 857 686 910 l 686 827 q 682 709 686 768 l 677 627 q 642 293 671 458 q 636 297 638 294 q 634 302 635 300 q 633 305 633 304 q 562 470 598 388 q 463 700 510 584 q 339 985 406 844 q 293 1037 325 1019 q 205 1058 249 1058 q 121 1039 163 1058 q 82 987 87 1025 q 60 622 60 821 l 60 439 q 83 37 60 129 q 182 -33 100 -33 m 528 1165 q 593 1196 568 1165 q 623 1255 611 1224 q 624 1262 624 1259 q 620 1272 624 1267 q 590 1284 608 1284 q 544 1261 561 1284 l 535 1248 q 524 1236 527 1236 q 511 1248 519 1236 q 403 1301 469 1301 q 281 1198 307 1301 q 280 1192 280 1194 q 295 1174 280 1179 q 313 1171 304 1171 q 367 1215 346 1171 q 387 1245 375 1232 q 395 1251 391 1251 q 404 1246 399 1251 q 431 1213 419 1231 l 438 1205 q 517 1165 470 1165 l 528 1165 z "},"":{"ha":970,"x_min":23,"x_max":913,"o":"m 455 -48 q 677 21 577 -48 q 857 269 805 119 q 913 593 913 427 q 905 715 913 654 q 846 920 897 823 q 659 1095 769 1051 q 515 1121 591 1121 q 415 1110 467 1121 q 138 911 235 1069 q 23 505 23 724 l 23 495 q 26 441 25 468 q 111 144 32 283 q 455 -48 235 -48 m 484 77 q 465 83 474 77 q 393 168 420 119 q 323 421 330 288 q 320 483 320 458 q 412 865 321 686 q 509 987 448 936 q 538 1002 526 1002 q 568 988 549 1002 q 653 879 623 943 q 727 581 727 736 q 583 151 727 338 q 498 81 548 108 q 484 77 491 77 m 504 1222 q 562 1235 538 1222 q 598 1286 598 1254 q 425 1704 598 1323 q 364 1762 399 1754 q 313 1771 329 1771 q 245 1749 277 1771 q 221 1700 221 1729 q 222 1687 221 1694 q 389 1285 238 1579 q 439 1237 408 1250 q 504 1222 471 1225 z "},"":{"ha":970,"x_min":23,"x_max":913,"o":"m 455 -48 q 677 21 577 -48 q 857 269 805 119 q 913 593 913 427 q 905 715 913 654 q 846 920 897 823 q 659 1095 769 1051 q 515 1121 591 1121 q 415 1110 467 1121 q 138 911 235 1069 q 23 505 23 724 l 23 495 q 26 441 25 468 q 111 144 32 283 q 455 -48 235 -48 m 484 77 q 465 83 474 77 q 393 168 420 119 q 323 421 330 288 q 320 483 320 458 q 412 865 321 686 q 509 987 448 936 q 538 1002 526 1002 q 568 988 549 1002 q 653 879 623 943 q 727 581 727 736 q 583 151 727 338 q 498 81 548 108 q 484 77 491 77 m 486 1181 q 551 1197 519 1184 q 601 1244 582 1209 q 768 1647 751 1539 q 769 1659 769 1653 q 745 1708 769 1688 q 677 1730 713 1730 q 626 1722 661 1730 q 566 1664 591 1713 q 392 1246 392 1282 q 428 1194 392 1213 q 486 1181 452 1181 z "},"":{"ha":970,"x_min":23,"x_max":913,"o":"m 455 -48 q 677 21 577 -48 q 857 269 805 119 q 913 593 913 427 q 905 715 913 654 q 846 920 897 823 q 659 1095 769 1051 q 515 1121 591 1121 q 415 1110 467 1121 q 138 911 235 1069 q 23 505 23 724 l 23 495 q 26 441 25 468 q 111 144 32 283 q 455 -48 235 -48 m 484 77 q 465 83 474 77 q 393 168 420 119 q 323 421 330 288 q 320 483 320 458 q 412 865 321 686 q 509 987 448 936 q 538 1002 526 1002 q 568 988 549 1002 q 653 879 623 943 q 727 581 727 736 q 583 151 727 338 q 498 81 548 108 q 484 77 491 77 m 641 1152 q 700 1173 678 1152 q 718 1216 718 1190 l 718 1227 q 646 1506 689 1375 q 596 1624 629 1568 q 485 1681 561 1681 q 425 1668 455 1681 q 375 1605 395 1656 q 334 1482 354 1544 l 311 1412 l 309 1402 q 270 1259 283 1332 l 269 1246 q 270 1230 269 1239 q 283 1212 272 1220 q 348 1193 314 1193 q 387 1199 367 1193 q 438 1258 424 1209 q 481 1396 458 1327 l 487 1397 q 526 1278 503 1337 l 545 1223 q 639 1152 570 1158 l 641 1152 z "},"":{"ha":970,"x_min":23,"x_max":913,"o":"m 455 -48 q 677 21 577 -48 q 857 269 805 119 q 913 593 913 427 q 905 715 913 654 q 846 920 897 823 q 659 1095 769 1051 q 515 1121 591 1121 q 415 1110 467 1121 q 138 911 235 1069 q 23 505 23 724 l 23 495 q 26 441 25 468 q 111 144 32 283 q 455 -48 235 -48 m 484 77 q 465 83 474 77 q 393 168 420 119 q 323 421 330 288 q 320 483 320 458 q 412 865 321 686 q 509 987 448 936 q 538 1002 526 1002 q 568 988 549 1002 q 653 879 623 943 q 727 581 727 736 q 583 151 727 338 q 498 81 548 108 q 484 77 491 77 m 562 1225 q 627 1256 602 1225 q 656 1315 645 1284 q 658 1322 658 1318 q 654 1332 658 1327 q 624 1344 642 1344 q 578 1320 595 1344 l 569 1308 q 557 1295 561 1295 q 545 1308 553 1295 q 437 1361 503 1361 q 315 1257 340 1361 q 314 1251 314 1254 q 329 1234 314 1238 q 347 1231 338 1231 q 401 1275 380 1231 q 421 1305 409 1291 q 429 1310 425 1310 q 437 1306 433 1310 q 465 1273 453 1291 l 472 1265 q 551 1225 504 1225 l 562 1225 z "},"":{"ha":970,"x_min":-14,"x_max":942,"o":"m 455 -48 q 677 21 577 -48 q 857 269 805 119 q 913 593 913 427 q 905 715 913 654 q 846 920 897 823 q 659 1095 769 1051 q 515 1121 591 1121 q 415 1110 467 1121 q 138 911 235 1069 q 23 505 23 724 l 23 495 q 26 441 25 468 q 111 144 32 283 q 455 -48 235 -48 m 484 77 q 465 83 474 77 q 393 168 420 119 q 323 421 330 288 q 320 483 320 458 q 412 865 321 686 q 509 987 448 936 q 538 1002 526 1002 q 568 988 549 1002 q 653 879 623 943 q 727 581 727 736 q 583 151 727 338 q 498 81 548 108 q 484 77 491 77 m 701 1193 q 854 1270 794 1193 q 941 1489 923 1369 l 942 1500 l 941 1511 q 926 1547 941 1534 q 869 1568 899 1568 q 825 1559 855 1568 q 783 1501 795 1550 q 779 1469 779 1474 q 715 1314 768 1385 q 698 1377 698 1346 l 690 1504 q 660 1558 690 1539 q 606 1573 633 1573 q 556 1562 588 1573 q 505 1505 525 1552 q 490 1414 490 1460 q 682 1194 490 1208 l 701 1193 m 182 1169 q 325 1223 258 1169 q 410 1345 383 1273 q 452 1504 438 1423 l 453 1512 q 433 1544 453 1533 q 380 1556 407 1556 q 334 1546 357 1556 q 303 1512 311 1537 l 292 1472 q 260 1381 279 1426 q 200 1288 239 1329 q 188 1280 193 1280 q 176 1293 181 1280 q 160 1355 163 1323 q 155 1416 157 1386 q 151 1482 154 1449 q 138 1520 149 1508 q 77 1540 120 1540 q 39 1534 57 1540 q -14 1431 -14 1518 l -14 1419 q 18 1262 -14 1332 q 97 1185 41 1206 q 182 1169 141 1169 z "},"":{"ha":602,"x_min":0,"x_max":602,"o":"m 511 34 q 568 46 539 34 q 602 90 602 60 q 589 130 602 108 l 572 165 l 389 543 q 385 557 385 549 q 387 570 385 564 q 428 675 400 600 q 490 882 469 775 q 492 899 492 890 q 453 948 492 935 q 401 958 425 958 q 296 892 337 958 q 258 810 281 866 l 248 790 q 238 800 241 792 q 207 842 235 802 l 162 901 q 76 945 126 945 q 40 939 59 945 q 0 901 0 931 q 5 876 0 889 q 52 781 24 826 q 150 598 104 692 q 161 566 161 576 q 159 554 161 560 q 105 396 140 502 q 41 191 68 296 q 39 172 39 181 q 79 118 39 134 q 124 110 98 110 q 248 189 210 110 q 294 296 271 245 l 309 269 q 395 104 334 218 q 470 41 422 57 q 511 34 490 34 z "},"":{"ha":970,"x_min":23,"x_max":913,"o":"m 455 -48 q 677 21 577 -48 q 857 269 805 119 q 913 593 913 427 q 905 715 913 654 q 846 920 897 823 q 659 1095 769 1051 q 515 1121 591 1121 q 415 1110 467 1121 q 138 911 235 1069 q 23 505 23 724 l 23 495 q 26 441 25 468 q 111 144 32 283 q 455 -48 235 -48 m 484 77 q 465 83 474 77 q 393 168 420 119 q 323 421 330 288 q 320 483 320 458 q 412 865 321 686 q 509 987 448 936 q 538 1002 526 1002 q 568 988 549 1002 q 653 879 623 943 q 727 581 727 736 q 583 151 727 338 q 498 81 548 108 q 484 77 491 77 m 165 -32 q 273 26 239 -32 l 290 56 q 310 94 300 75 q 652 831 486 460 l 656 842 q 722 1017 697 926 q 724 1032 724 1025 q 707 1067 724 1053 q 628 1088 677 1088 q 591 1086 623 1088 q 526 1040 559 1085 l 517 1025 q 252 481 447 917 q 197 361 224 421 q 64 60 126 212 q 57 28 57 42 q 102 -22 57 -8 q 149 -31 129 -31 l 165 -32 z "},"":{"ha":925,"x_min":53,"x_max":882,"o":"m 376 -41 q 450 -33 413 -41 q 657 119 583 3 q 740 273 707 191 q 869 787 840 522 q 882 1004 882 896 q 876 1067 882 1048 q 845 1097 869 1086 q 775 1112 810 1112 q 705 1097 741 1112 q 671 1052 675 1085 l 667 1029 q 663 1001 665 1015 q 632 723 651 845 q 521 312 602 511 q 419 141 484 218 q 408 133 412 133 q 397 144 401 133 q 348 321 361 230 q 311 779 314 549 q 310 787 311 783 l 310 817 q 311 907 310 862 q 314 977 314 958 q 311 1048 314 1013 q 271 1098 305 1084 q 212 1109 239 1109 q 98 1029 139 1109 q 87 994 91 1012 q 56 749 59 873 q 53 623 53 686 q 71 322 53 472 q 136 98 84 205 q 272 -24 180 10 q 376 -41 323 -41 m 476 1203 q 534 1216 511 1203 q 570 1267 570 1235 q 397 1685 570 1304 q 336 1743 371 1735 q 286 1752 301 1752 q 217 1730 250 1752 q 193 1681 193 1710 q 195 1668 193 1675 q 361 1266 210 1560 q 412 1218 380 1231 q 476 1203 443 1206 z "},"":{"ha":925,"x_min":53,"x_max":882,"o":"m 376 -41 q 450 -33 413 -41 q 657 119 583 3 q 740 273 707 191 q 869 787 840 522 q 882 1004 882 896 q 876 1067 882 1048 q 845 1097 869 1086 q 775 1112 810 1112 q 705 1097 741 1112 q 671 1052 675 1085 l 667 1029 q 663 1001 665 1015 q 632 723 651 845 q 521 312 602 511 q 419 141 484 218 q 408 133 412 133 q 397 144 401 133 q 348 321 361 230 q 311 779 314 549 q 310 787 311 783 l 310 817 q 311 907 310 862 q 314 977 314 958 q 311 1048 314 1013 q 271 1098 305 1084 q 212 1109 239 1109 q 98 1029 139 1109 q 87 994 91 1012 q 56 749 59 873 q 53 623 53 686 q 71 322 53 472 q 136 98 84 205 q 272 -24 180 10 q 376 -41 323 -41 m 448 1187 q 513 1202 481 1190 q 563 1250 544 1215 q 730 1652 713 1544 q 731 1665 731 1659 q 707 1714 731 1693 q 639 1735 675 1735 q 588 1727 623 1735 q 528 1669 553 1718 q 354 1251 354 1288 q 390 1200 354 1219 q 448 1187 414 1187 z "},"":{"ha":925,"x_min":53,"x_max":882,"o":"m 376 -41 q 450 -33 413 -41 q 657 119 583 3 q 740 273 707 191 q 869 787 840 522 q 882 1004 882 896 q 876 1067 882 1048 q 845 1097 869 1086 q 775 1112 810 1112 q 705 1097 741 1112 q 671 1052 675 1085 l 667 1029 q 663 1001 665 1015 q 632 723 651 845 q 521 312 602 511 q 419 141 484 218 q 408 133 412 133 q 397 144 401 133 q 348 321 361 230 q 311 779 314 549 q 310 787 311 783 l 310 817 q 311 907 310 862 q 314 977 314 958 q 311 1048 314 1013 q 271 1098 305 1084 q 212 1109 239 1109 q 98 1029 139 1109 q 87 994 91 1012 q 56 749 59 873 q 53 623 53 686 q 71 322 53 472 q 136 98 84 205 q 272 -24 180 10 q 376 -41 323 -41 m 600 1158 q 659 1178 637 1158 q 677 1221 677 1196 l 677 1233 q 606 1511 648 1381 q 555 1630 588 1573 q 444 1686 520 1686 q 384 1674 414 1686 q 334 1610 354 1662 q 294 1487 313 1549 l 271 1417 l 268 1407 q 229 1264 242 1337 l 228 1251 q 230 1235 228 1244 q 243 1217 231 1225 q 307 1198 273 1198 q 347 1204 326 1198 q 397 1263 383 1215 q 441 1402 417 1333 l 446 1402 q 485 1284 462 1342 l 505 1229 q 598 1158 529 1164 l 600 1158 z "},"":{"ha":925,"x_min":-44,"x_max":911,"o":"m 376 -41 q 450 -33 413 -41 q 657 119 583 3 q 740 273 707 191 q 869 787 840 522 q 882 1004 882 896 q 876 1067 882 1048 q 845 1097 869 1086 q 775 1112 810 1112 q 705 1097 741 1112 q 671 1052 675 1085 l 667 1029 q 663 1001 665 1015 q 632 723 651 845 q 521 312 602 511 q 419 141 484 218 q 408 133 412 133 q 397 144 401 133 q 348 321 361 230 q 311 779 314 549 q 310 787 311 783 l 310 817 q 311 907 310 862 q 314 977 314 958 q 311 1048 314 1013 q 271 1098 305 1084 q 212 1109 239 1109 q 98 1029 139 1109 q 87 994 91 1012 q 56 749 59 873 q 53 623 53 686 q 71 322 53 472 q 136 98 84 205 q 272 -24 180 10 q 376 -41 323 -41 m 671 1198 q 824 1274 764 1198 q 911 1493 892 1374 l 911 1505 l 911 1516 q 895 1552 911 1539 q 838 1573 869 1573 q 794 1564 825 1573 q 752 1506 764 1555 q 748 1474 748 1478 q 684 1318 737 1390 q 667 1382 667 1351 l 660 1509 q 629 1563 659 1544 q 575 1577 602 1577 q 526 1567 557 1577 q 475 1510 494 1556 q 459 1419 459 1465 q 651 1198 459 1213 l 671 1198 m 152 1174 q 294 1228 228 1174 q 380 1350 353 1278 q 422 1509 408 1428 l 422 1517 q 402 1548 422 1538 q 350 1560 376 1560 q 303 1551 327 1560 q 273 1516 280 1541 l 261 1477 q 230 1385 248 1430 q 170 1293 209 1333 q 157 1285 162 1285 q 146 1298 151 1285 q 130 1359 132 1328 q 125 1421 127 1391 q 121 1487 123 1454 q 108 1525 119 1513 q 46 1545 90 1545 q 8 1539 26 1545 q -44 1436 -44 1522 l -44 1423 q -13 1267 -44 1337 q 66 1190 11 1211 q 152 1174 111 1174 z "},"":{"ha":774,"x_min":12,"x_max":812,"o":"m 363 -83 q 436 -61 401 -83 q 479 15 471 -39 q 482 67 482 41 l 481 90 q 458 371 476 220 l 458 376 q 464 391 458 386 q 505 441 489 412 q 806 1009 666 720 q 812 1042 812 1026 q 793 1096 812 1066 q 734 1127 774 1125 q 582 1038 632 1125 q 495 864 534 954 q 380 649 444 747 q 342 747 361 699 q 273 941 303 843 l 271 947 q 214 1092 253 1023 q 180 1124 201 1114 q 113 1139 146 1139 q 46 1125 79 1139 q 12 1074 12 1111 l 12 1072 q 142 588 28 892 q 183 469 163 529 q 224 394 195 427 q 229 382 229 390 l 228 339 q 236 180 228 260 q 239 101 239 141 q 243 21 239 61 q 304 -71 247 -43 q 358 -83 330 -83 l 363 -83 m 399 1171 q 463 1186 432 1173 q 513 1234 494 1198 q 680 1636 664 1528 q 682 1649 682 1643 q 658 1697 682 1677 q 589 1719 625 1719 q 539 1711 574 1719 q 478 1653 504 1702 q 304 1235 304 1272 q 340 1183 304 1202 q 399 1171 364 1171 z "},"":{"ha":880,"x_min":4,"x_max":848,"o":"m 176 -140 q 273 -50 252 -140 q 285 95 285 22 q 286 138 285 116 q 294 153 286 153 q 303 151 298 153 q 382 138 342 138 q 443 145 412 138 q 665 268 572 176 q 847 607 819 404 q 848 642 848 625 q 795 833 848 738 q 639 976 741 928 q 445 1012 550 1012 q 288 979 363 1012 q 273 975 280 975 q 260 977 267 975 q 201 987 231 987 q 127 973 164 987 q 83 918 91 959 q 62 668 63 793 q 60 586 62 627 q 57 426 57 503 q 58 331 57 378 q 60 240 60 285 q 65 37 62 135 q 81 -73 67 -20 q 176 -140 98 -140 m 349 254 q 315 278 339 254 l 303 290 q 291 319 291 302 q 294 465 291 387 l 311 842 q 317 866 311 857 q 340 878 323 876 q 389 894 347 879 q 429 901 410 901 q 515 858 477 901 q 589 660 589 766 q 573 559 589 611 q 395 284 528 392 q 349 254 359 254 m 123 103 q 214 127 178 103 q 235 159 233 138 q 242 268 241 214 l 243 420 q 236 972 243 821 q 231 1130 233 1051 q 224 1205 229 1167 q 182 1257 218 1243 q 124 1268 153 1268 q 20 1186 21 1268 q 9 930 11 1029 q 4 525 4 681 q 9 170 4 347 q 33 126 10 141 q 123 103 69 103 z "},"":{"ha":926,"x_min":67,"x_max":894,"o":"m 482 -50 l 503 -50 q 871 197 770 -37 q 894 311 894 254 q 876 412 894 361 q 707 555 827 526 q 660 568 699 558 l 708 621 q 820 865 806 724 q 821 893 821 880 q 705 1065 821 1013 q 586 1087 646 1087 q 537 1084 562 1087 q 290 935 385 1058 q 263 899 276 918 l 249 880 q 242 925 245 903 q 231 987 238 957 q 205 1021 226 1010 q 151 1033 178 1033 q 97 1021 124 1033 q 73 988 76 1011 q 69 837 69 956 l 68 584 l 69 330 q 85 155 71 242 q 138 98 90 106 q 163 94 155 94 l 174 94 q 194 98 184 98 q 243 60 220 98 l 256 43 q 482 -50 320 -50 m 448 77 q 387 99 424 77 q 336 139 359 117 q 303 166 320 153 q 269 231 269 191 q 271 250 269 240 q 285 439 285 344 q 283 511 285 475 l 283 523 q 295 608 283 567 q 425 876 334 755 q 543 978 474 939 q 565 985 555 985 q 575 983 568 985 q 591 965 581 981 q 604 916 604 941 q 602 892 604 904 q 493 666 581 763 q 329 526 425 580 q 325 524 326 525 q 322 523 323 523 q 292 481 292 503 l 292 479 q 333 437 296 451 q 401 425 367 425 q 479 441 440 425 q 551 459 521 459 q 622 388 614 459 l 622 365 q 507 111 612 216 q 448 77 477 77 m 176 -295 q 258 -271 225 -295 q 277 -239 275 -260 q 283 -130 283 -184 l 284 22 q 278 574 284 423 q 273 732 275 653 q 267 807 272 769 q 229 859 262 845 q 176 870 203 870 q 82 788 83 870 q 72 532 73 631 q 67 127 67 283 q 72 -229 67 -51 q 93 -272 73 -257 q 176 -295 126 -295 z "},"":{"ha":936,"x_min":28,"x_max":889,"o":"m 342 -54 q 463 -30 401 -54 q 625 113 566 16 q 628 118 626 115 q 632 124 629 121 q 639 130 634 127 l 642 105 q 651 50 647 78 q 675 3 655 22 q 773 -38 719 -38 q 811 -33 791 -38 q 889 61 889 -14 q 876 189 889 101 q 823 760 825 581 q 755 842 821 828 q 739 851 745 844 q 656 905 705 889 q 487 937 573 937 q 389 926 438 937 q 102 711 191 892 q 28 388 28 553 q 55 189 28 290 q 156 14 77 84 q 342 -54 245 -54 m 336 103 q 314 138 328 103 q 266 368 266 260 l 266 394 q 329 663 266 543 q 450 786 365 739 q 515 801 482 801 q 576 787 545 801 q 587 774 587 784 q 583 667 583 721 q 552 414 583 528 q 372 130 506 254 l 367 125 q 336 103 344 103 m 469 1034 q 527 1046 503 1034 q 563 1098 563 1065 q 389 1516 563 1135 q 329 1574 363 1565 q 278 1582 294 1582 q 210 1560 242 1582 q 186 1512 186 1540 q 187 1499 186 1506 q 354 1097 203 1391 q 404 1049 373 1061 q 469 1034 435 1036 z "},"":{"ha":936,"x_min":28,"x_max":889,"o":"m 342 -54 q 463 -30 401 -54 q 625 113 566 16 q 628 118 626 115 q 632 124 629 121 q 639 130 634 127 l 642 105 q 651 50 647 78 q 675 3 655 22 q 773 -38 719 -38 q 811 -33 791 -38 q 889 61 889 -14 q 876 189 889 101 q 823 760 825 581 q 755 842 821 828 q 739 851 745 844 q 656 905 705 889 q 487 937 573 937 q 389 926 438 937 q 102 711 191 892 q 28 388 28 553 q 55 189 28 290 q 156 14 77 84 q 342 -54 245 -54 m 336 103 q 314 138 328 103 q 266 368 266 260 l 266 394 q 329 663 266 543 q 450 786 365 739 q 515 801 482 801 q 576 787 545 801 q 587 774 587 784 q 583 667 583 721 q 552 414 583 528 q 372 130 506 254 l 367 125 q 336 103 344 103 m 419 1034 q 484 1049 452 1036 q 534 1097 515 1061 q 701 1499 684 1391 q 702 1512 702 1506 q 678 1560 702 1540 q 610 1582 646 1582 q 559 1574 594 1582 q 498 1516 524 1565 q 325 1098 325 1135 q 361 1046 325 1065 q 419 1034 385 1034 z "},"":{"ha":936,"x_min":28,"x_max":889,"o":"m 342 -54 q 463 -30 401 -54 q 625 113 566 16 q 628 118 626 115 q 632 124 629 121 q 639 130 634 127 l 642 105 q 651 50 647 78 q 675 3 655 22 q 773 -38 719 -38 q 811 -33 791 -38 q 889 61 889 -14 q 876 189 889 101 q 823 760 825 581 q 755 842 821 828 q 739 851 745 844 q 656 905 705 889 q 487 937 573 937 q 389 926 438 937 q 102 711 191 892 q 28 388 28 553 q 55 189 28 290 q 156 14 77 84 q 342 -54 245 -54 m 336 103 q 314 138 328 103 q 266 368 266 260 l 266 394 q 329 663 266 543 q 450 786 365 739 q 515 801 482 801 q 576 787 545 801 q 587 774 587 784 q 583 667 583 721 q 552 414 583 528 q 372 130 506 254 l 367 125 q 336 103 344 103 m 620 994 q 679 1014 657 994 q 697 1057 697 1031 l 696 1069 q 625 1347 668 1217 q 575 1466 608 1409 q 464 1522 540 1522 q 404 1510 434 1522 q 354 1446 374 1497 q 313 1323 333 1385 l 290 1253 l 288 1243 q 249 1100 262 1173 l 248 1087 q 249 1071 248 1080 q 262 1053 251 1061 q 327 1034 293 1034 q 366 1040 346 1034 q 417 1099 403 1050 q 460 1238 437 1168 l 466 1238 q 505 1120 481 1178 l 524 1065 q 618 994 549 1000 l 620 994 z "},"":{"ha":936,"x_min":28,"x_max":889,"o":"m 342 -54 q 463 -30 401 -54 q 625 113 566 16 q 628 118 626 115 q 632 124 629 121 q 639 130 634 127 l 642 105 q 651 50 647 78 q 675 3 655 22 q 773 -38 719 -38 q 811 -33 791 -38 q 889 61 889 -14 q 876 189 889 101 q 823 760 825 581 q 755 842 821 828 q 739 851 745 844 q 656 905 705 889 q 487 937 573 937 q 389 926 438 937 q 102 711 191 892 q 28 388 28 553 q 55 189 28 290 q 156 14 77 84 q 342 -54 245 -54 m 336 103 q 314 138 328 103 q 266 368 266 260 l 266 394 q 329 663 266 543 q 450 786 365 739 q 515 801 482 801 q 576 787 545 801 q 587 774 587 784 q 583 667 583 721 q 552 414 583 528 q 372 130 506 254 l 367 125 q 336 103 344 103 m 518 1029 q 583 1060 558 1029 q 612 1119 601 1088 q 614 1126 614 1122 q 610 1136 614 1131 q 580 1148 598 1148 q 534 1124 551 1148 l 525 1112 q 513 1099 517 1099 q 500 1112 509 1099 q 393 1165 459 1165 q 271 1061 296 1165 q 270 1055 270 1058 q 285 1038 270 1042 q 302 1035 294 1035 q 357 1079 336 1035 q 377 1109 365 1095 q 385 1114 381 1114 q 393 1110 389 1114 q 421 1077 409 1095 l 428 1069 q 507 1029 460 1029 l 518 1029 z "},"":{"ha":936,"x_min":7,"x_max":964,"o":"m 342 -54 q 463 -30 401 -54 q 625 113 566 16 q 628 118 626 115 q 632 124 629 121 q 639 130 634 127 l 642 105 q 651 50 647 78 q 675 3 655 22 q 773 -38 719 -38 q 811 -33 791 -38 q 889 61 889 -14 q 876 189 889 101 q 823 760 825 581 q 755 842 821 828 q 739 851 745 844 q 656 905 705 889 q 487 937 573 937 q 389 926 438 937 q 102 711 191 892 q 28 388 28 553 q 55 189 28 290 q 156 14 77 84 q 342 -54 245 -54 m 336 103 q 314 138 328 103 q 266 368 266 260 l 266 394 q 329 663 266 543 q 450 786 365 739 q 515 801 482 801 q 576 787 545 801 q 587 774 587 784 q 583 667 583 721 q 552 414 583 528 q 372 130 506 254 l 367 125 q 336 103 344 103 m 723 1048 q 876 1125 816 1048 q 963 1344 945 1225 l 964 1356 l 963 1367 q 947 1402 963 1390 q 890 1423 921 1423 q 847 1415 877 1423 q 804 1356 817 1406 q 800 1324 800 1329 q 736 1169 789 1241 q 720 1233 720 1202 l 712 1360 q 682 1414 711 1394 q 627 1428 654 1428 q 578 1418 610 1428 q 527 1360 547 1407 q 511 1270 511 1316 q 703 1049 511 1064 l 723 1048 m 204 1025 q 347 1079 280 1025 q 432 1200 405 1128 q 474 1360 460 1278 l 475 1368 q 454 1399 475 1389 q 402 1411 429 1411 q 356 1402 379 1411 q 325 1367 332 1392 l 313 1328 q 282 1236 300 1281 q 222 1143 261 1184 q 210 1136 214 1136 q 198 1149 203 1136 q 182 1210 184 1179 q 177 1272 179 1242 q 173 1338 176 1305 q 160 1376 171 1364 q 98 1396 142 1396 q 60 1390 79 1396 q 8 1286 8 1373 l 8 1274 q 39 1118 8 1187 q 119 1041 63 1062 q 204 1025 163 1025 z "},"":{"ha":936,"x_min":28,"x_max":889,"o":"m 342 -54 q 463 -30 401 -54 q 625 113 566 16 q 628 118 626 115 q 632 124 629 121 q 639 130 634 127 l 642 105 q 651 50 647 78 q 675 3 655 22 q 773 -38 719 -38 q 811 -33 791 -38 q 889 61 889 -14 q 876 189 889 101 q 823 760 825 581 q 755 842 821 828 q 739 851 745 844 q 656 905 705 889 q 487 937 573 937 q 389 926 438 937 q 102 711 191 892 q 28 388 28 553 q 55 189 28 290 q 156 14 77 84 q 342 -54 245 -54 m 336 103 q 314 138 328 103 q 266 368 266 260 l 266 394 q 329 663 266 543 q 450 786 365 739 q 515 801 482 801 q 576 787 545 801 q 587 774 587 784 q 583 667 583 721 q 552 414 583 528 q 372 130 506 254 l 367 125 q 336 103 344 103 m 481 992 q 655 1105 605 996 q 675 1202 675 1152 q 672 1246 675 1223 q 538 1366 650 1356 q 512 1368 523 1366 q 469 1373 490 1373 q 389 1350 427 1373 q 283 1187 299 1292 q 279 1156 279 1171 q 303 1084 279 1118 q 481 992 372 998 m 481 1095 q 469 1103 475 1095 q 445 1166 445 1131 q 476 1281 445 1225 q 488 1293 481 1293 q 500 1284 493 1293 q 526 1212 526 1253 q 493 1103 526 1152 q 481 1095 487 1095 z "},"":{"ha":1548,"x_min":33,"x_max":1580,"o":"m 347 -54 q 467 -30 406 -54 q 629 113 570 16 q 632 118 630 115 q 636 124 633 121 q 643 130 638 127 l 646 105 q 655 50 651 78 q 679 3 659 22 q 777 -38 723 -38 q 815 -33 795 -38 q 893 61 893 -14 q 880 189 893 101 q 827 760 829 581 q 759 842 825 828 q 743 851 749 844 q 661 905 709 889 q 491 937 577 937 q 393 926 442 937 q 106 711 195 892 q 33 388 33 553 q 59 189 33 290 q 160 14 81 84 q 347 -54 249 -54 m 340 103 q 318 138 332 103 q 270 368 270 260 l 270 394 q 333 663 270 543 q 454 786 369 739 q 519 801 486 801 q 581 787 549 801 q 591 774 591 784 q 587 667 587 721 q 556 414 587 528 q 376 130 510 254 l 371 125 q 340 103 348 103 m 1100 -31 q 1317 14 1209 -31 q 1523 150 1431 67 q 1562 181 1544 166 q 1580 212 1580 196 q 1576 229 1580 216 q 1541 254 1572 241 q 1475 267 1510 267 q 1422 261 1458 267 q 1347 218 1385 255 q 1166 100 1270 141 q 1118 90 1143 90 q 1097 92 1108 90 q 1002 174 1029 111 q 971 328 971 243 q 976 410 971 361 q 990 424 978 424 l 997 423 q 1045 419 1021 419 q 1080 421 1062 419 q 1305 490 1198 437 q 1420 572 1373 518 q 1468 699 1468 633 q 1408 822 1468 762 q 1180 911 1308 911 q 1126 907 1154 911 q 863 772 965 888 q 695 359 695 589 q 705 246 695 304 q 928 -3 740 60 q 1100 -31 1015 -31 m 1034 524 q 1013 531 1022 524 q 1010 536 1010 534 q 1013 547 1010 540 l 1017 553 q 1170 771 1071 704 q 1182 776 1176 776 q 1195 770 1189 776 q 1238 693 1234 742 q 1177 581 1234 625 q 1042 524 1116 541 l 1034 524 z "},"":{"ha":853,"x_min":28,"x_max":867,"o":"m 371 -22 q 464 -11 416 -22 q 706 147 610 28 q 792 260 752 201 q 852 342 821 302 q 867 378 867 362 q 830 416 867 401 q 774 424 805 424 q 733 419 758 424 q 682 382 707 414 l 605 280 q 425 125 533 181 q 405 118 412 118 l 399 119 q 372 153 389 121 q 325 359 325 239 l 325 366 q 430 726 333 573 q 488 790 453 764 q 522 802 504 802 q 578 787 543 802 q 655 769 625 769 q 727 786 692 769 q 756 826 756 803 q 741 863 756 843 q 686 901 718 888 q 499 943 596 943 q 158 772 279 943 q 86 629 113 705 q 28 327 28 481 q 31 249 28 288 q 176 30 49 103 q 371 -22 270 -22 m 383 -354 q 427 -342 407 -354 q 468 -287 458 -323 q 474 -245 474 -267 q 446 -130 474 -183 q 381 -74 425 -88 q 349 -69 365 -69 q 299 -81 323 -69 q 281 -94 288 -85 q 275 -108 275 -100 q 287 -121 275 -119 q 295 -123 291 -123 q 314 -116 305 -123 q 340 -105 326 -106 l 342 -105 q 349 -107 345 -105 q 372 -138 363 -120 q 397 -248 397 -191 q 395 -278 397 -263 q 382 -315 393 -298 q 380 -318 381 -317 q 378 -320 379 -319 q 373 -323 376 -323 q 369 -322 372 -323 q 334 -292 349 -311 q 315 -262 323 -277 q 300 -249 308 -251 q 288 -248 292 -248 q 272 -252 279 -248 q 268 -260 268 -255 q 269 -264 268 -261 l 269 -266 q 319 -331 290 -302 q 360 -352 343 -351 q 383 -354 378 -354 m 301 -123 q 326 -114 317 -123 l 329 -109 q 334 -103 332 -106 q 412 14 374 -45 l 413 16 q 428 44 422 29 q 428 46 428 45 q 424 52 428 50 q 406 55 418 55 q 398 55 405 55 q 383 47 391 54 l 381 45 q 321 -41 365 28 q 308 -60 315 -51 q 278 -109 292 -84 q 276 -114 276 -111 q 286 -122 276 -119 q 297 -123 292 -123 l 301 -123 z "},"":{"ha":888,"x_min":19,"x_max":904,"o":"m 424 -36 q 641 9 533 -36 q 847 144 755 62 q 886 176 867 161 q 904 207 904 191 q 900 223 904 211 q 865 249 896 236 q 799 261 834 261 q 746 255 782 261 q 671 213 709 250 q 490 95 594 136 q 442 85 467 85 q 421 87 432 85 q 326 168 353 106 q 295 322 295 238 q 300 404 295 356 q 314 418 302 418 l 321 418 q 369 414 345 414 q 404 416 386 414 q 629 484 522 431 q 744 567 697 513 q 792 693 792 627 q 732 817 792 756 q 504 905 631 905 q 450 901 477 905 q 186 766 289 882 q 19 353 19 583 q 29 241 19 298 q 252 -9 64 55 q 424 -36 338 -36 m 358 518 q 336 526 346 518 q 334 531 334 528 q 337 542 334 534 l 341 548 q 494 766 395 699 q 506 770 500 770 q 519 764 513 770 q 562 688 558 736 q 501 576 558 620 q 366 519 439 536 l 358 518 m 482 977 q 541 989 517 977 q 576 1041 576 1008 q 403 1459 576 1078 q 342 1517 377 1508 q 292 1525 307 1525 q 223 1503 256 1525 q 199 1455 199 1483 q 201 1442 199 1449 q 368 1040 216 1334 q 418 992 387 1004 q 482 977 449 979 z "},"":{"ha":888,"x_min":19,"x_max":904,"o":"m 424 -36 q 641 9 533 -36 q 847 144 755 62 q 886 176 867 161 q 904 207 904 191 q 900 223 904 211 q 865 249 896 236 q 799 261 834 261 q 746 255 782 261 q 671 213 709 250 q 490 95 594 136 q 442 85 467 85 q 421 87 432 85 q 326 168 353 106 q 295 322 295 238 q 300 404 295 356 q 314 418 302 418 l 321 418 q 369 414 345 414 q 404 416 386 414 q 629 484 522 431 q 744 567 697 513 q 792 693 792 627 q 732 817 792 756 q 504 905 631 905 q 450 901 477 905 q 186 766 289 882 q 19 353 19 583 q 29 241 19 298 q 252 -9 64 55 q 424 -36 338 -36 m 358 518 q 336 526 346 518 q 334 531 334 528 q 337 542 334 534 l 341 548 q 494 766 395 699 q 506 770 500 770 q 519 764 513 770 q 562 688 558 736 q 501 576 558 620 q 366 519 439 536 l 358 518 m 472 981 q 536 996 505 983 q 587 1044 568 1008 q 753 1446 737 1338 q 755 1459 755 1453 q 731 1508 755 1487 q 663 1529 699 1529 q 612 1521 647 1529 q 551 1463 577 1512 q 378 1045 378 1082 q 414 994 378 1013 q 472 981 437 981 z "},"":{"ha":888,"x_min":19,"x_max":904,"o":"m 424 -36 q 641 9 533 -36 q 847 144 755 62 q 886 176 867 161 q 904 207 904 191 q 900 223 904 211 q 865 249 896 236 q 799 261 834 261 q 746 255 782 261 q 671 213 709 250 q 490 95 594 136 q 442 85 467 85 q 421 87 432 85 q 326 168 353 106 q 295 322 295 238 q 300 404 295 356 q 314 418 302 418 l 321 418 q 369 414 345 414 q 404 416 386 414 q 629 484 522 431 q 744 567 697 513 q 792 693 792 627 q 732 817 792 756 q 504 905 631 905 q 450 901 477 905 q 186 766 289 882 q 19 353 19 583 q 29 241 19 298 q 252 -9 64 55 q 424 -36 338 -36 m 358 518 q 336 526 346 518 q 334 531 334 528 q 337 542 334 534 l 341 548 q 494 766 395 699 q 506 770 500 770 q 519 764 513 770 q 562 688 558 736 q 501 576 558 620 q 366 519 439 536 l 358 518 m 629 962 q 688 982 667 962 q 707 1025 707 1000 l 706 1037 q 635 1315 677 1185 q 585 1434 617 1377 q 473 1490 549 1490 q 413 1478 444 1490 q 363 1414 383 1466 q 323 1291 342 1353 l 300 1221 l 297 1211 q 258 1068 271 1141 l 257 1055 q 259 1039 257 1048 q 272 1021 260 1029 q 336 1002 302 1002 q 376 1008 355 1002 q 427 1067 412 1019 q 470 1206 446 1137 l 475 1206 q 514 1088 491 1146 l 534 1033 q 627 962 558 968 l 629 962 z "},"":{"ha":888,"x_min":-12,"x_max":944,"o":"m 424 -36 q 641 9 533 -36 q 847 144 755 62 q 886 176 867 161 q 904 207 904 191 q 900 223 904 211 q 865 249 896 236 q 799 261 834 261 q 746 255 782 261 q 671 213 709 250 q 490 95 594 136 q 442 85 467 85 q 421 87 432 85 q 326 168 353 106 q 295 322 295 238 q 300 404 295 356 q 314 418 302 418 l 321 418 q 369 414 345 414 q 404 416 386 414 q 629 484 522 431 q 744 567 697 513 q 792 693 792 627 q 732 817 792 756 q 504 905 631 905 q 450 901 477 905 q 186 766 289 882 q 19 353 19 583 q 29 241 19 298 q 252 -9 64 55 q 424 -36 338 -36 m 358 518 q 336 526 346 518 q 334 531 334 528 q 337 542 334 534 l 341 548 q 494 766 395 699 q 506 770 500 770 q 519 764 513 770 q 562 688 558 736 q 501 576 558 620 q 366 519 439 536 l 358 518 m 703 1023 q 857 1099 796 1023 q 943 1318 925 1199 l 944 1330 l 943 1341 q 928 1377 943 1364 q 871 1398 901 1398 q 827 1389 857 1398 q 785 1331 797 1380 q 781 1299 781 1303 q 717 1143 770 1215 q 700 1207 700 1176 l 692 1334 q 662 1388 692 1369 q 608 1402 635 1402 q 558 1392 590 1402 q 507 1335 527 1381 q 492 1244 492 1290 q 684 1023 492 1038 l 703 1023 m 184 999 q 327 1053 260 999 q 412 1175 385 1103 q 454 1334 440 1253 l 455 1342 q 435 1373 455 1363 q 382 1385 409 1385 q 336 1376 359 1385 q 305 1341 313 1367 l 294 1302 q 262 1211 281 1255 q 202 1118 241 1158 q 190 1110 195 1110 q 178 1123 183 1110 q 162 1184 165 1153 q 157 1246 159 1216 q 153 1312 156 1279 q 140 1350 151 1338 q 79 1370 122 1370 q 41 1364 59 1370 q -12 1261 -12 1348 l -12 1249 q 20 1092 -12 1162 q 99 1015 43 1036 q 184 999 143 999 z "},"":{"ha":390,"x_min":-122,"x_max":313,"o":"m 202 -64 q 231 -62 216 -64 q 296 -33 279 -54 q 313 34 313 -12 l 313 82 q 304 393 313 238 l 300 502 q 289 751 296 627 l 287 787 q 237 1128 275 1093 q 168 1146 216 1146 q 75 1086 85 1146 l 74 1076 q 67 895 67 1027 q 69 753 67 865 q 91 119 71 480 l 97 7 q 134 -49 98 -31 q 202 -64 167 -64 m 161 1321 q 219 1334 195 1321 q 255 1385 255 1353 q 81 1803 255 1422 q 21 1861 56 1853 q -30 1870 -14 1870 q -98 1848 -66 1870 q -122 1799 -122 1828 q -121 1786 -122 1793 q 46 1384 -105 1678 q 96 1336 65 1349 q 161 1321 127 1324 z "},"":{"ha":390,"x_min":19,"x_max":396,"o":"m 202 -64 q 231 -62 216 -64 q 296 -33 279 -54 q 313 34 313 -12 l 313 82 q 304 393 313 238 l 300 502 q 289 751 296 627 l 287 787 q 237 1128 275 1093 q 168 1146 216 1146 q 75 1086 85 1146 l 74 1076 q 67 895 67 1027 q 69 753 67 865 q 91 119 71 480 l 97 7 q 134 -49 98 -31 q 202 -64 167 -64 m 113 1314 q 178 1329 146 1316 q 228 1377 209 1341 q 395 1779 378 1671 q 396 1792 396 1786 q 372 1841 396 1820 q 304 1862 340 1862 q 253 1854 288 1862 q 193 1796 218 1845 q 19 1378 19 1415 q 55 1326 19 1345 q 113 1314 79 1314 z "},"":{"ha":390,"x_min":-88,"x_max":361,"o":"m 202 -64 q 231 -62 216 -64 q 296 -33 279 -54 q 313 34 313 -12 l 313 82 q 304 393 313 238 l 300 502 q 289 751 296 627 l 287 787 q 237 1128 275 1093 q 168 1146 216 1146 q 75 1086 85 1146 l 74 1076 q 67 895 67 1027 q 69 753 67 865 q 91 119 71 480 l 97 7 q 134 -49 98 -31 q 202 -64 167 -64 m 284 1289 q 343 1310 321 1289 q 361 1353 361 1327 l 361 1364 q 290 1643 332 1512 q 239 1761 272 1705 q 128 1817 204 1817 q 68 1805 98 1817 q 18 1742 38 1793 q -22 1619 -3 1681 l -45 1549 l -48 1539 q -87 1396 -74 1469 l -88 1383 q -86 1367 -88 1376 q -73 1349 -85 1357 q -9 1330 -43 1330 q 31 1336 10 1330 q 81 1395 67 1346 q 125 1533 101 1464 l 130 1534 q 169 1415 146 1474 l 189 1360 q 282 1289 213 1295 l 284 1289 z "},"":{"ha":390,"x_min":-367,"x_max":589,"o":"m 202 -64 q 231 -62 216 -64 q 296 -33 279 -54 q 313 34 313 -12 l 313 82 q 304 393 313 238 l 300 502 q 289 751 296 627 l 287 787 q 237 1128 275 1093 q 168 1146 216 1146 q 75 1086 85 1146 l 74 1076 q 67 895 67 1027 q 69 753 67 865 q 91 119 71 480 l 97 7 q 134 -49 98 -31 q 202 -64 167 -64 m 349 1295 q 502 1371 441 1295 q 589 1590 570 1471 l 589 1602 l 589 1613 q 573 1649 589 1636 q 516 1670 547 1670 q 472 1661 503 1670 q 430 1603 442 1652 q 426 1571 426 1575 q 362 1415 415 1487 q 345 1479 345 1448 l 338 1606 q 307 1660 337 1640 q 253 1674 280 1674 q 204 1664 235 1674 q 153 1607 172 1653 q 137 1516 137 1562 q 329 1295 137 1310 l 349 1295 m -170 1271 q -28 1325 -94 1271 q 58 1447 31 1375 q 100 1606 85 1525 l 100 1614 q 80 1645 100 1635 q 28 1657 54 1657 q -19 1648 5 1657 q -50 1613 -42 1638 l -61 1574 q -92 1482 -74 1527 q -153 1390 -113 1430 q -165 1382 -160 1382 q -176 1395 -172 1382 q -193 1456 -190 1425 q -197 1518 -195 1488 q -201 1584 -199 1551 q -214 1622 -203 1610 q -276 1642 -233 1642 q -314 1636 -296 1642 q -366 1533 -366 1619 l -366 1520 q -335 1364 -366 1434 q -256 1287 -311 1308 q -170 1271 -212 1271 z "},"":{"ha":904,"x_min":-1,"x_max":992,"o":"m 338 -39 q 546 20 444 -39 q 550 23 548 21 q 556 26 552 26 q 563 23 559 26 q 651 -7 603 -7 q 771 68 758 -7 q 786 211 782 139 q 798 602 798 406 q 793 833 798 717 q 777 1016 793 925 q 754 1064 770 1048 q 705 1086 737 1080 q 673 1090 688 1090 q 591 1065 613 1087 q 553 802 553 1027 l 553 700 l 548 699 q 533 704 540 703 q 404 727 467 727 q 193 656 293 727 q 30 414 75 559 q -1 264 -1 341 q 5 200 -1 233 q 174 -4 37 54 q 338 -39 257 -39 m 383 98 q 357 111 368 98 q 298 277 298 182 l 298 281 q 385 555 307 427 q 422 590 406 590 q 463 574 437 590 q 538 512 505 549 q 545 493 545 505 q 541 304 541 398 l 541 180 q 532 162 541 168 q 397 100 468 124 q 383 98 390 98 m 414 753 q 471 768 427 753 q 979 963 903 920 q 992 985 992 972 q 970 1026 992 1004 l 956 1040 q 929 1048 946 1048 q 597 938 884 1048 l 530 913 q 365 848 446 882 q 342 821 342 838 q 363 781 342 801 q 414 753 387 753 z "},"":{"ha":992,"x_min":62,"x_max":939,"o":"m 816 -92 q 882 -81 848 -92 q 939 -7 939 -63 l 939 3 q 929 217 934 98 q 843 731 924 546 q 591 888 766 888 q 386 811 475 887 q 319 749 352 783 l 310 741 q 298 825 304 801 q 241 896 288 876 q 178 908 210 908 q 115 897 146 908 q 73 847 79 885 q 71 827 73 837 q 67 792 68 810 q 64 500 66 572 q 62 428 62 464 q 72 222 62 326 q 90 62 77 140 q 130 12 96 26 q 200 -2 164 -2 q 313 76 307 -2 q 323 304 323 190 l 322 361 q 340 455 322 410 l 360 500 q 551 739 425 644 q 564 745 558 745 q 577 733 572 745 q 620 603 608 671 q 650 394 639 499 q 690 -1 678 162 q 816 -92 692 -92 m 515 1019 q 579 1050 555 1019 q 609 1109 597 1078 q 610 1116 610 1113 q 606 1126 610 1122 q 576 1139 595 1139 q 530 1115 547 1139 l 522 1102 q 510 1090 513 1090 q 497 1102 506 1090 q 389 1156 456 1156 q 267 1052 293 1156 q 267 1046 267 1048 q 281 1028 267 1033 q 299 1025 290 1025 q 353 1069 332 1025 q 374 1099 361 1086 q 382 1105 378 1105 q 390 1101 386 1105 q 418 1067 406 1085 l 425 1059 q 503 1019 456 1019 l 515 1019 z "},"":{"ha":964,"x_min":22,"x_max":921,"o":"m 529 -76 l 536 -75 q 838 126 737 -48 q 921 427 921 272 q 892 614 921 519 q 467 921 791 918 q 81 667 199 910 q 22 416 22 545 q 38 280 22 349 q 184 23 73 122 q 470 -76 296 -76 l 529 -76 m 487 65 q 458 76 472 65 q 357 204 389 126 q 311 425 311 315 q 379 687 311 557 q 472 785 412 749 q 498 794 485 794 q 525 785 511 794 q 648 623 612 723 q 683 439 683 530 q 594 146 683 274 q 511 72 561 100 q 487 65 498 65 m 491 997 q 549 1010 526 997 q 585 1061 585 1029 q 412 1479 585 1098 q 351 1537 386 1529 q 300 1546 316 1546 q 232 1524 264 1546 q 208 1475 208 1503 q 210 1462 208 1469 q 376 1060 225 1354 q 427 1012 395 1025 q 491 997 458 1000 z "},"":{"ha":964,"x_min":22,"x_max":921,"o":"m 529 -76 l 536 -75 q 838 126 737 -48 q 921 427 921 272 q 892 614 921 519 q 467 921 791 918 q 81 667 199 910 q 22 416 22 545 q 38 280 22 349 q 184 23 73 122 q 470 -76 296 -76 l 529 -76 m 487 65 q 458 76 472 65 q 357 204 389 126 q 311 425 311 315 q 379 687 311 557 q 472 785 412 749 q 498 794 485 794 q 525 785 511 794 q 648 623 612 723 q 683 439 683 530 q 594 146 683 274 q 511 72 561 100 q 487 65 498 65 m 418 1017 q 483 1032 452 1019 q 533 1080 514 1044 q 700 1482 684 1374 q 701 1495 701 1489 q 677 1544 701 1523 q 609 1565 645 1565 q 558 1557 593 1565 q 498 1499 524 1548 q 324 1081 324 1118 q 360 1029 324 1048 q 418 1017 384 1017 z "},"":{"ha":964,"x_min":22,"x_max":921,"o":"m 529 -76 l 536 -75 q 838 126 737 -48 q 921 427 921 272 q 892 614 921 519 q 467 921 791 918 q 81 667 199 910 q 22 416 22 545 q 38 280 22 349 q 184 23 73 122 q 470 -76 296 -76 l 529 -76 m 487 65 q 458 76 472 65 q 357 204 389 126 q 311 425 311 315 q 379 687 311 557 q 472 785 412 749 q 498 794 485 794 q 525 785 511 794 q 648 623 612 723 q 683 439 683 530 q 594 146 683 274 q 511 72 561 100 q 487 65 498 65 m 635 972 q 694 993 673 972 q 713 1036 713 1010 l 712 1048 q 641 1326 684 1196 q 591 1444 623 1388 q 479 1501 555 1501 q 419 1489 450 1501 q 370 1425 389 1476 q 329 1302 349 1364 l 306 1232 l 303 1222 q 264 1079 277 1152 l 263 1066 q 265 1050 263 1059 q 278 1032 267 1040 q 342 1013 309 1013 q 382 1019 361 1013 q 433 1078 418 1029 q 476 1217 452 1147 l 481 1217 q 520 1099 497 1157 l 540 1044 q 633 972 564 979 l 635 972 z "},"":{"ha":964,"x_min":22,"x_max":921,"o":"m 529 -76 l 536 -75 q 838 126 737 -48 q 921 427 921 272 q 892 614 921 519 q 467 921 791 918 q 81 667 199 910 q 22 416 22 545 q 38 280 22 349 q 184 23 73 122 q 470 -76 296 -76 l 529 -76 m 487 65 q 458 76 472 65 q 357 204 389 126 q 311 425 311 315 q 379 687 311 557 q 472 785 412 749 q 498 794 485 794 q 525 785 511 794 q 648 623 612 723 q 683 439 683 530 q 594 146 683 274 q 511 72 561 100 q 487 65 498 65 m 526 1019 q 591 1050 566 1019 q 621 1109 609 1078 q 622 1116 622 1113 q 618 1126 622 1122 q 588 1139 606 1139 q 542 1115 559 1139 l 533 1102 q 522 1090 525 1090 q 509 1102 517 1090 q 401 1156 467 1156 q 279 1052 304 1156 q 278 1046 278 1048 q 293 1028 278 1033 q 311 1025 302 1025 q 365 1069 344 1025 q 385 1099 373 1086 q 393 1105 389 1105 q 401 1101 397 1105 q 429 1067 417 1085 l 436 1059 q 515 1019 468 1019 l 526 1019 z "},"":{"ha":964,"x_min":-4,"x_max":951,"o":"m 529 -76 l 536 -75 q 838 126 737 -48 q 921 427 921 272 q 892 614 921 519 q 467 921 791 918 q 81 667 199 910 q 22 416 22 545 q 38 280 22 349 q 184 23 73 122 q 470 -76 296 -76 l 529 -76 m 487 65 q 458 76 472 65 q 357 204 389 126 q 311 425 311 315 q 379 687 311 557 q 472 785 412 749 q 498 794 485 794 q 525 785 511 794 q 648 623 612 723 q 683 439 683 530 q 594 146 683 274 q 511 72 561 100 q 487 65 498 65 m 711 970 q 864 1047 804 970 q 951 1266 932 1147 l 951 1278 l 951 1289 q 935 1324 951 1312 q 878 1345 909 1345 q 834 1337 865 1345 q 792 1278 804 1328 q 788 1246 788 1251 q 724 1091 777 1163 q 707 1155 707 1124 l 700 1282 q 669 1336 699 1316 q 615 1350 642 1350 q 566 1340 597 1350 q 515 1282 534 1329 q 499 1192 499 1238 q 691 971 499 986 l 711 970 m 192 947 q 334 1001 268 947 q 420 1122 393 1050 q 462 1282 448 1200 l 463 1290 q 442 1321 463 1311 q 390 1333 416 1333 q 343 1324 367 1333 q 313 1289 320 1314 l 301 1250 q 270 1158 288 1203 q 210 1065 249 1106 q 197 1058 202 1058 q 186 1071 191 1058 q 170 1132 172 1101 q 165 1194 167 1164 q 161 1260 163 1227 q 148 1298 159 1286 q 86 1318 130 1318 q 48 1312 66 1318 q -4 1208 -4 1295 l -4 1196 q 27 1040 -4 1109 q 106 963 51 984 q 192 947 151 947 z "},"":{"ha":812,"x_min":0,"x_max":812,"o":"m 374 679 q 539 761 477 683 q 587 899 587 821 q 518 1055 587 1004 q 387 1097 457 1090 l 379 1097 q 330 1084 353 1097 q 313 1076 321 1080 q 225 1000 254 1054 q 197 878 197 941 l 197 854 q 374 679 211 684 m 391 775 q 381 784 386 775 q 355 878 357 829 q 389 994 360 940 q 397 1002 394 1002 q 408 995 402 1002 q 442 886 442 949 q 401 781 442 828 q 391 775 395 775 m 393 -104 q 517 -67 458 -104 q 606 36 576 -31 q 620 99 620 66 q 613 150 620 115 q 557 218 606 185 q 511 256 532 235 l 501 264 q 464 281 485 281 q 439 281 452 281 q 406 282 422 281 q 367 284 387 284 l 357 284 q 193 153 231 273 q 185 92 185 123 l 185 60 q 293 -87 189 -50 q 393 -104 344 -104 m 411 -14 q 390 -1 399 -14 q 366 80 366 39 l 366 90 q 392 184 366 144 q 408 195 399 195 q 416 194 412 195 q 423 192 420 193 q 430 190 426 191 q 439 189 435 189 l 449 190 q 463 183 458 190 q 496 117 489 157 l 496 109 q 478 42 496 76 q 427 -9 460 8 q 411 -14 418 -14 m 144 362 q 161 363 153 362 q 178 363 170 363 q 289 367 233 363 l 353 370 q 701 395 527 377 q 787 422 747 397 q 812 458 812 437 q 798 494 812 477 q 675 517 776 517 q 633 516 654 517 l 621 515 l 381 495 q 241 488 311 490 q 107 483 174 488 q 20 457 60 481 q 0 425 0 441 q 19 393 0 410 q 144 362 63 362 z "},"":{"ha":964,"x_min":22,"x_max":921,"o":"m 529 -76 l 536 -75 q 838 126 737 -48 q 921 427 921 272 q 892 614 921 519 q 467 921 791 918 q 81 667 199 910 q 22 416 22 545 q 38 280 22 349 q 184 23 73 122 q 470 -76 296 -76 l 529 -76 m 487 65 q 458 76 472 65 q 357 204 389 126 q 311 425 311 315 q 379 687 311 557 q 472 785 412 749 q 498 794 485 794 q 525 785 511 794 q 648 623 612 723 q 683 439 683 530 q 594 146 683 274 q 511 72 561 100 q 487 65 498 65 m 159 -140 q 267 -82 233 -140 l 283 -53 q 304 -15 294 -34 q 646 723 480 351 l 650 733 q 716 909 691 818 q 718 924 718 916 q 701 958 718 944 q 622 979 671 979 q 585 978 616 979 q 520 932 553 977 l 511 917 q 245 373 441 808 q 191 253 218 313 q 58 -49 120 104 q 51 -81 51 -66 q 96 -131 51 -117 q 142 -140 123 -140 l 159 -140 z "},"":{"ha":939,"x_min":50,"x_max":875,"o":"m 768 -109 q 801 -106 784 -109 q 856 -82 840 -100 q 872 -20 871 -64 q 875 129 875 57 q 871 304 875 216 q 853 587 863 446 q 834 780 848 702 q 801 836 828 821 q 706 861 753 861 q 612 836 659 861 q 586 800 590 825 l 551 581 q 361 169 515 347 q 348 157 351 157 q 338 174 343 157 q 289 446 290 306 l 281 730 q 269 814 280 772 q 172 876 252 876 q 81 813 96 876 q 50 510 50 678 q 128 115 50 288 q 322 6 181 6 q 445 32 385 6 q 595 163 537 79 l 633 214 q 665 -38 643 119 q 707 -97 669 -81 q 768 -109 736 -109 m 430 968 q 488 981 465 968 q 524 1033 524 1000 q 351 1451 524 1069 q 290 1509 325 1500 q 239 1517 255 1517 q 171 1495 203 1517 q 147 1447 147 1475 q 149 1434 147 1440 q 315 1031 164 1326 q 366 984 334 996 q 430 968 397 971 z "},"":{"ha":939,"x_min":50,"x_max":875,"o":"m 768 -109 q 801 -106 784 -109 q 856 -82 840 -100 q 872 -20 871 -64 q 875 129 875 57 q 871 304 875 216 q 853 587 863 446 q 834 780 848 702 q 801 836 828 821 q 706 861 753 861 q 612 836 659 861 q 586 800 590 825 l 551 581 q 361 169 515 347 q 348 157 351 157 q 338 174 343 157 q 289 446 290 306 l 281 730 q 269 814 280 772 q 172 876 252 876 q 81 813 96 876 q 50 510 50 678 q 128 115 50 288 q 322 6 181 6 q 445 32 385 6 q 595 163 537 79 l 633 214 q 665 -38 643 119 q 707 -97 669 -81 q 768 -109 736 -109 m 405 887 q 469 902 438 890 q 519 950 500 915 q 686 1352 670 1244 q 688 1365 688 1359 q 664 1414 688 1394 q 595 1436 631 1436 q 545 1427 580 1436 q 484 1369 510 1419 q 311 951 311 988 q 347 900 311 919 q 405 887 370 887 z "},"":{"ha":939,"x_min":50,"x_max":875,"o":"m 768 -109 q 801 -106 784 -109 q 856 -82 840 -100 q 872 -20 871 -64 q 875 129 875 57 q 871 304 875 216 q 853 587 863 446 q 834 780 848 702 q 801 836 828 821 q 706 861 753 861 q 612 836 659 861 q 586 800 590 825 l 551 581 q 361 169 515 347 q 348 157 351 157 q 338 174 343 157 q 289 446 290 306 l 281 730 q 269 814 280 772 q 172 876 252 876 q 81 813 96 876 q 50 510 50 678 q 128 115 50 288 q 322 6 181 6 q 445 32 385 6 q 595 163 537 79 l 633 214 q 665 -38 643 119 q 707 -97 669 -81 q 768 -109 736 -109 m 560 935 q 619 955 597 935 q 637 998 637 972 l 637 1010 q 566 1288 608 1158 q 515 1407 548 1350 q 404 1463 480 1463 q 344 1451 374 1463 q 294 1387 314 1438 q 254 1264 273 1326 l 231 1194 l 228 1184 q 189 1041 202 1114 l 188 1028 q 190 1012 188 1021 q 203 994 191 1002 q 267 975 233 975 q 307 981 286 975 q 357 1040 343 991 q 401 1179 377 1109 l 406 1179 q 445 1061 422 1119 l 465 1006 q 558 935 489 941 l 560 935 z "},"":{"ha":939,"x_min":-46,"x_max":909,"o":"m 768 -109 q 801 -106 784 -109 q 856 -82 840 -100 q 872 -20 871 -64 q 875 129 875 57 q 871 304 875 216 q 853 587 863 446 q 834 780 848 702 q 801 836 828 821 q 706 861 753 861 q 612 836 659 861 q 586 800 590 825 l 551 581 q 361 169 515 347 q 348 157 351 157 q 338 174 343 157 q 289 446 290 306 l 281 730 q 269 814 280 772 q 172 876 252 876 q 81 813 96 876 q 50 510 50 678 q 128 115 50 288 q 322 6 181 6 q 445 32 385 6 q 595 163 537 79 l 633 214 q 665 -38 643 119 q 707 -97 669 -81 q 768 -109 736 -109 m 669 975 q 822 1052 762 975 q 909 1271 890 1152 l 909 1282 l 909 1293 q 893 1329 909 1316 q 836 1350 867 1350 q 792 1341 823 1350 q 750 1283 762 1333 q 746 1251 746 1256 q 682 1096 735 1168 q 665 1160 665 1128 l 658 1286 q 627 1341 657 1321 q 573 1355 600 1355 q 524 1344 555 1355 q 473 1287 492 1334 q 457 1196 457 1242 q 649 976 457 991 l 669 975 m 150 951 q 292 1006 226 951 q 378 1127 351 1055 q 420 1286 406 1205 l 420 1295 q 400 1326 420 1316 q 348 1338 374 1338 q 301 1329 325 1338 q 271 1294 278 1319 l 259 1255 q 228 1163 246 1208 q 168 1070 207 1111 q 155 1063 160 1063 q 144 1076 149 1063 q 127 1137 130 1105 q 123 1198 125 1168 q 119 1265 121 1232 q 106 1303 117 1291 q 44 1322 87 1322 q 6 1316 24 1322 q -46 1213 -46 1300 l -46 1201 q -15 1044 -46 1114 q 64 968 9 989 q 150 951 109 951 z "},"":{"ha":816,"x_min":20,"x_max":743,"o":"m 374 -73 q 547 -34 467 -73 q 686 116 628 6 q 728 292 724 200 q 743 571 743 413 q 742 661 743 616 l 742 774 q 728 947 742 907 q 696 981 721 968 q 611 1002 654 1002 q 528 983 569 1002 q 494 937 500 969 q 477 814 483 876 q 355 570 460 669 q 318 546 330 546 q 310 547 317 546 q 287 583 303 549 q 258 715 258 646 q 272 889 258 781 q 276 930 276 920 q 242 979 276 964 q 174 994 208 994 q 140 990 157 994 q 56 919 76 982 q 20 702 20 812 q 23 637 20 670 q 147 446 35 510 q 292 412 218 412 q 499 486 410 412 q 498 443 499 467 q 479 222 494 332 q 401 59 469 127 q 359 37 381 37 q 321 54 340 37 l 278 90 q 186 140 236 122 q 161 144 174 144 q 104 87 104 144 q 117 46 104 67 q 259 -59 169 -33 q 374 -73 313 -73 m 369 1064 q 433 1079 402 1067 q 484 1127 465 1092 q 650 1529 634 1421 q 652 1542 652 1536 q 628 1591 652 1571 q 559 1613 595 1613 q 509 1604 544 1613 q 448 1546 474 1596 q 275 1128 275 1165 q 311 1077 275 1096 q 369 1064 334 1064 z "},"":{"ha":854,"x_min":0,"x_max":830,"o":"m 212 -111 q 242 -107 226 -111 q 290 -55 290 -100 l 290 27 q 287 210 290 117 q 291 224 287 220 q 307 227 294 227 q 419 243 366 227 q 699 418 591 279 q 798 602 761 503 q 830 764 830 680 q 680 991 830 942 q 565 1010 625 1010 l 543 1010 q 433 993 487 1010 q 168 803 279 943 q 42 417 42 645 q 64 173 42 281 q 112 -35 77 66 q 212 -111 140 -111 m 289 351 q 282 359 282 351 l 282 396 q 350 697 282 559 q 526 879 407 817 q 551 887 541 887 q 559 885 553 887 q 576 861 566 883 q 594 775 594 819 q 591 738 594 757 q 473 460 568 584 q 294 351 403 374 l 289 351 m 119 229 q 210 253 174 229 q 231 286 229 264 q 238 394 237 340 l 239 547 q 232 1099 239 947 q 227 1256 229 1177 q 220 1331 225 1293 q 178 1383 214 1369 q 120 1394 149 1394 q 16 1312 17 1394 q 5 1056 7 1155 q 0 651 0 807 q 5 296 0 473 q 28 252 6 267 q 119 229 65 229 z "},"":{"ha":816,"x_min":-88,"x_max":868,"o":"m 374 -73 q 547 -34 467 -73 q 686 116 628 6 q 728 292 724 200 q 743 571 743 413 q 742 661 743 616 l 742 774 q 728 947 742 907 q 696 981 721 968 q 611 1002 654 1002 q 528 983 569 1002 q 494 937 500 969 q 477 814 483 876 q 355 570 460 669 q 318 546 330 546 q 310 547 317 546 q 287 583 303 549 q 258 715 258 646 q 272 889 258 781 q 276 930 276 920 q 242 979 276 964 q 174 994 208 994 q 140 990 157 994 q 56 919 76 982 q 20 702 20 812 q 23 637 20 670 q 147 446 35 510 q 292 412 218 412 q 499 486 410 412 q 498 443 499 467 q 479 222 494 332 q 401 59 469 127 q 359 37 381 37 q 321 54 340 37 l 278 90 q 186 140 236 122 q 161 144 174 144 q 104 87 104 144 q 117 46 104 67 q 259 -59 169 -33 q 374 -73 313 -73 m 627 1071 q 781 1147 720 1071 q 867 1367 849 1247 l 868 1378 l 867 1389 q 852 1425 867 1412 q 795 1446 825 1446 q 751 1437 781 1446 q 709 1379 721 1428 q 705 1347 705 1352 q 641 1192 694 1263 q 624 1255 624 1224 l 616 1382 q 586 1436 616 1417 q 532 1451 559 1451 q 483 1440 514 1451 q 431 1383 451 1430 q 416 1292 416 1338 q 608 1072 416 1086 l 627 1071 m 109 1047 q 251 1101 184 1047 q 336 1223 309 1151 q 378 1382 364 1301 l 379 1390 q 359 1421 379 1411 q 307 1434 333 1434 q 260 1424 283 1434 q 229 1390 237 1415 l 218 1350 q 186 1259 205 1303 q 126 1166 165 1206 q 114 1158 119 1158 q 102 1171 107 1158 q 86 1233 89 1201 q 81 1294 83 1264 q 77 1360 80 1327 q 64 1398 75 1386 q 3 1418 46 1418 q -35 1412 -17 1418 q -87 1309 -87 1396 l -87 1297 q -56 1140 -87 1210 q 23 1063 -33 1084 q 109 1047 67 1047 z "},"":{"ha":390,"x_min":67,"x_max":313,"o":"m 202 -64 q 231 -62 216 -64 q 296 -33 279 -54 q 313 34 313 -12 l 313 82 q 304 393 313 238 l 300 502 q 289 751 296 627 l 287 787 q 237 1128 275 1093 q 168 1146 216 1146 q 75 1086 85 1146 l 74 1076 q 67 895 67 1027 q 69 753 67 865 q 91 119 71 480 l 97 7 q 134 -49 98 -31 q 202 -64 167 -64 z "},"":{"ha":450,"x_min":0,"x_max":450,"o":"m 372 600 q 431 620 410 600 q 450 663 450 637 l 449 675 q 378 953 420 823 q 328 1072 360 1015 q 216 1128 292 1128 q 156 1116 186 1128 q 106 1052 126 1103 q 66 929 85 991 l 43 859 l 40 849 q 1 706 14 779 l 0 693 q 2 677 0 686 q 15 659 3 667 q 79 640 45 640 q 119 646 98 640 q 170 705 155 656 q 213 844 189 774 l 218 844 q 257 726 234 784 l 277 671 q 370 600 301 606 l 372 600 z "},"":{"ha":449,"x_min":0,"x_max":449,"o":"m 77 1128 q 18 1107 40 1128 q 0 1064 0 1090 l 1 1053 q 72 774 28 905 q 122 656 90 712 q 233 600 157 600 q 293 612 262 600 q 343 675 323 624 q 384 798 364 736 l 407 868 l 410 878 q 448 1021 435 948 l 449 1035 q 448 1050 449 1041 q 435 1068 446 1060 q 370 1087 404 1087 q 331 1081 351 1087 q 280 1022 294 1071 q 237 884 260 954 l 231 883 q 193 1002 216 943 l 173 1057 q 79 1128 149 1122 l 77 1128 z "},"":{"ha":665,"x_min":-73,"x_max":678,"o":"m 370 809 l 526 810 q 631 836 582 810 q 678 894 677 857 q 633 951 677 929 q 510 983 575 981 q 344 987 427 987 q 188 984 266 987 l 144 984 q -52 935 8 984 q -73 895 -73 915 q -52 854 -73 874 q -16 831 -35 840 q 91 809 35 810 l 370 809 z "},"":{"ha":186,"x_min":1472,"x_max":1659,"o":"m 1566 794 q 1613 802 1590 794 q 1657 857 1654 815 q 1659 899 1659 878 q 1657 940 1659 919 q 1561 1025 1650 1025 l 1556 1025 q 1531 1022 1544 1025 q 1474 960 1479 1012 q 1472 922 1472 941 q 1476 855 1472 881 q 1566 794 1483 794 z "},"":{"ha":397,"x_min":0,"x_max":397,"o":"m 203 838 q 376 951 326 841 q 397 1048 397 998 q 393 1091 397 1069 q 260 1211 371 1202 q 233 1213 244 1211 q 191 1219 212 1219 q 110 1196 149 1219 q 4 1032 20 1137 q 0 1001 0 1016 q 24 930 0 963 q 203 838 94 843 m 202 941 q 191 948 196 941 q 166 1011 166 976 q 197 1126 166 1070 q 210 1138 203 1138 q 222 1130 214 1138 q 247 1057 247 1098 q 214 949 247 998 q 202 941 208 941 z "},"":{"ha":344,"x_min":0,"x_max":344,"o":"m 248 1019 q 313 1050 288 1019 q 342 1109 331 1078 q 344 1116 344 1113 q 340 1126 344 1122 q 310 1139 328 1139 q 264 1115 281 1139 l 255 1102 q 243 1090 247 1090 q 231 1102 239 1090 q 123 1156 189 1156 q 1 1052 26 1156 q 0 1046 0 1048 q 15 1028 0 1033 q 33 1025 24 1025 q 87 1069 66 1025 q 107 1099 95 1086 q 115 1105 111 1105 q 123 1101 119 1105 q 151 1067 139 1085 l 158 1059 q 237 1019 190 1019 l 248 1019 z "},"":{"ha":753,"x_min":0,"x_max":753,"o":"m 94 481 q 159 496 127 484 q 209 544 190 509 q 376 946 359 838 q 377 959 377 953 q 353 1008 377 987 q 285 1029 321 1029 q 234 1021 269 1029 q 174 963 199 1013 q 0 545 0 582 q 36 494 0 513 q 94 481 60 481 m 471 481 q 536 496 505 484 q 586 544 567 509 q 753 946 736 838 q 754 959 754 953 q 730 1008 754 987 q 662 1029 698 1029 q 611 1021 646 1029 q 551 963 576 1013 q 377 545 377 582 q 413 494 377 513 q 471 481 437 481 z "},"":{"ha":712,"x_min":0,"x_max":712,"o":"m 185 255 q 254 258 220 255 q 312 260 284 260 q 344 259 328 260 l 544 259 q 617 267 581 259 q 692 303 658 273 q 712 347 712 326 q 692 392 712 370 q 550 436 645 436 l 403 436 q 224 437 264 436 q 185 439 205 439 q 109 433 147 439 q 15 385 57 427 q 1 347 1 366 q 15 307 1 327 q 47 281 29 291 q 157 256 100 256 l 185 255 z "},"":{"ha":1424,"x_min":0,"x_max":1424,"o":"m 370 255 q 507 258 439 255 q 623 260 568 260 q 688 259 656 260 l 1087 259 q 1233 267 1161 259 q 1383 303 1316 273 q 1424 347 1424 326 q 1383 392 1424 370 q 1099 436 1289 436 l 806 436 q 447 437 528 436 q 370 439 409 439 q 218 433 294 439 q 30 385 112 427 q 1 347 1 366 q 30 307 1 327 q 94 281 58 291 q 313 256 199 256 l 370 255 z "},"":{"ha":402,"x_min":0,"x_max":402,"o":"m 301 505 l 308 505 q 380 522 349 505 q 400 540 398 532 q 402 551 402 548 q 395 576 402 562 q 252 898 316 752 q 185 1044 220 972 q 85 1111 149 1111 q 49 1106 68 1111 q 0 1061 0 1098 q 5 1031 0 1048 q 60 898 28 967 l 101 803 q 201 571 154 688 q 242 518 216 532 q 301 505 269 505 z "},"":{"ha":402,"x_min":0,"x_max":402,"o":"m 101 505 q 160 518 134 505 q 201 571 186 532 q 301 803 248 688 l 342 898 q 397 1031 375 967 q 402 1061 402 1048 q 353 1106 402 1098 q 317 1111 334 1111 q 217 1044 254 1111 q 151 898 182 972 q 7 576 86 752 q 0 551 0 562 q 2 540 0 548 q 22 522 4 532 q 95 505 53 505 l 101 505 z "},"":{"ha":402,"x_min":0,"x_max":402,"o":"m 101 -303 q 160 -290 134 -303 q 201 -237 186 -276 q 301 -5 248 -119 l 342 90 q 397 224 375 159 q 402 253 402 240 q 353 298 402 290 q 317 303 334 303 q 217 237 254 303 q 151 90 182 164 q 7 -232 86 -56 q 0 -256 0 -246 q 2 -268 0 -260 q 22 -286 4 -275 q 95 -303 53 -303 l 101 -303 z "},"":{"ha":966,"x_min":0,"x_max":966,"o":"m 301 505 l 308 505 q 380 522 349 505 q 400 540 398 532 q 402 551 402 548 q 395 576 402 562 q 252 898 316 752 q 185 1044 220 972 q 85 1111 149 1111 q 49 1106 68 1111 q 0 1061 0 1098 q 5 1031 0 1048 q 60 898 28 967 l 101 803 q 201 571 154 688 q 242 518 216 532 q 301 505 269 505 m 865 505 l 871 505 q 944 522 913 505 q 964 540 962 532 q 966 551 966 548 q 959 576 966 562 q 815 898 880 752 q 749 1044 784 972 q 649 1111 712 1111 q 612 1106 632 1111 q 564 1061 564 1098 q 569 1031 564 1048 q 623 898 591 967 l 665 803 q 764 571 718 688 q 806 518 780 532 q 865 505 832 505 z "},"":{"ha":966,"x_min":0,"x_max":966,"o":"m 101 505 q 160 518 134 505 q 201 571 186 532 q 301 803 248 688 l 342 898 q 397 1031 375 967 q 402 1061 402 1048 q 353 1106 402 1098 q 317 1111 334 1111 q 217 1044 254 1111 q 151 898 182 972 q 7 576 86 752 q 0 551 0 562 q 2 540 0 548 q 22 522 4 532 q 95 505 53 505 l 101 505 m 665 505 q 723 518 697 505 q 765 571 749 532 q 865 803 812 688 l 906 898 q 960 1031 939 967 q 966 1061 966 1048 q 917 1106 966 1098 q 880 1111 898 1111 q 781 1044 817 1111 q 714 898 745 972 q 570 576 650 752 q 564 551 564 562 q 566 540 564 548 q 585 522 568 532 q 659 505 616 505 l 665 505 z "},"":{"ha":966,"x_min":0,"x_max":966,"o":"m 101 -303 q 160 -290 134 -303 q 201 -237 186 -276 q 301 -5 248 -119 l 342 90 q 397 224 375 159 q 402 253 402 240 q 353 298 402 290 q 317 303 334 303 q 217 237 254 303 q 151 90 182 164 q 7 -232 86 -56 q 0 -256 0 -246 q 2 -268 0 -260 q 22 -286 4 -275 q 95 -303 53 -303 l 101 -303 m 665 -303 q 723 -290 697 -303 q 765 -237 749 -276 q 865 -5 812 -119 l 906 90 q 960 224 939 159 q 966 253 966 240 q 917 298 966 290 q 880 303 898 303 q 781 237 817 303 q 714 90 745 164 q 570 -232 650 -56 q 564 -256 564 -246 q 566 -268 564 -260 q 585 -286 568 -275 q 659 -303 616 -303 l 665 -303 z "},"":{"ha":436,"x_min":-138,"x_max":298,"o":"m 83 216 q 192 234 138 216 q 295 362 288 265 q 299 460 299 412 q 295 556 299 509 q 69 756 279 756 l 59 756 q 1 749 32 756 q -134 605 -121 726 q -138 514 -138 560 q -128 358 -138 420 q 83 216 -111 216 z "},"":{"ha":1145,"x_min":-69,"x_max":1076,"o":"m 42 -114 q 97 -105 70 -114 q 149 -41 145 -90 q 151 9 151 -16 q 149 57 151 33 q 35 157 140 157 l 30 157 q 1 154 16 157 q -67 81 -60 142 q -69 36 -69 59 q -64 -43 -69 -12 q 42 -114 -56 -114 m 505 -114 q 560 -105 533 -114 q 612 -41 608 -90 q 614 9 614 -16 q 612 57 614 33 q 498 157 604 157 l 493 157 q 464 154 479 157 q 396 81 403 142 q 394 36 394 59 q 399 -43 394 -12 q 505 -114 408 -114 m 968 -114 q 1023 -105 996 -114 q 1075 -41 1072 -90 q 1077 9 1077 -16 q 1075 57 1077 33 q 962 157 1067 157 l 956 157 q 927 154 943 157 q 859 81 866 142 q 857 36 857 59 q 863 -43 857 -12 q 968 -114 871 -114 z "},"":{"ha":625,"x_min":0,"x_max":625,"o":"m 526 34 l 534 34 q 581 43 559 34 q 625 100 625 62 q 617 134 625 115 q 566 197 599 171 q 298 416 451 304 q 236 469 264 439 q 224 488 224 481 q 238 507 224 495 l 307 574 q 494 764 406 663 q 552 859 552 830 q 522 896 552 882 q 452 911 486 911 q 358 882 404 911 q 336 864 346 873 l 252 784 q 33 566 138 680 q 0 494 0 530 q 29 424 0 459 q 163 290 90 351 q 344 117 258 208 q 526 34 420 40 z "},"":{"ha":625,"x_min":0,"x_max":625,"o":"m 98 34 q 281 117 205 40 q 461 290 367 208 q 595 424 534 351 q 625 494 625 459 q 591 566 625 530 q 372 784 486 680 l 289 864 q 267 882 279 873 q 173 911 220 911 q 102 896 138 911 q 73 859 73 882 q 131 764 73 830 q 317 574 219 663 l 387 507 q 400 488 400 495 q 389 469 400 481 q 326 416 360 439 q 59 197 174 304 q 7 134 26 171 q 0 100 0 115 q 44 43 0 62 q 91 34 65 34 l 98 34 z "},"":{"ha":667,"x_min":0,"x_max":667,"o":"m 109 -59 q 216 -1 182 -59 l 233 28 q 253 66 243 47 q 595 804 429 433 l 600 814 q 665 990 640 899 q 667 1005 667 998 q 650 1040 667 1025 q 571 1061 621 1061 q 533 1059 565 1061 q 469 1013 502 1058 l 460 998 q 195 454 389 890 q 140 334 168 394 q 7 33 69 185 q 0 1 0 15 q 45 -50 0 -35 q 92 -58 72 -58 l 109 -59 z "},"":{"ha":820,"x_min":0,"x_max":820,"o":"m 336 -55 q 443 18 427 -55 l 443 21 q 448 76 448 48 q 448 117 448 96 q 441 266 446 192 l 440 271 q 458 286 440 286 q 566 291 511 287 q 682 320 627 292 q 717 366 717 338 q 680 414 717 395 q 589 437 637 434 q 526 439 557 439 q 481 438 503 439 q 444 436 463 437 q 431 439 435 436 q 427 450 427 441 l 414 615 l 413 620 q 416 629 413 625 q 536 648 423 637 q 604 656 570 651 q 708 686 660 659 q 734 724 734 706 q 705 762 734 744 q 616 783 665 783 q 518 774 567 783 q 425 765 472 766 l 417 765 q 410 767 414 765 q 406 838 406 769 q 422 1029 406 934 q 444 1048 425 1048 l 492 1047 l 594 1046 l 637 1047 q 777 1071 709 1048 q 820 1116 820 1085 q 807 1139 820 1128 q 772 1155 793 1149 q 699 1163 736 1163 q 667 1162 683 1163 q 628 1161 648 1161 q 563 1163 595 1161 q 517 1165 541 1164 l 498 1166 q 448 1167 473 1167 q 336 1159 391 1167 q 193 1045 229 1146 q 172 930 176 989 q 170 789 170 859 q 185 422 170 606 l 185 418 q 175 410 185 410 q 108 406 142 408 q 35 388 71 404 q 0 345 0 372 q 10 320 0 330 q 34 302 20 310 q 64 290 48 295 q 162 275 112 275 l 181 275 q 192 273 187 275 q 196 260 196 271 q 208 130 203 152 q 226 18 212 73 q 336 -55 247 -55 z "},"":{"ha":1072,"x_min":0,"x_max":1072,"o":"m 678 -105 q 718 -104 698 -105 q 951 -9 851 -98 q 1069 175 1029 71 q 1072 189 1072 182 q 1055 213 1072 204 q 1017 222 1037 222 q 997 221 1013 222 q 963 202 982 219 q 893 144 929 172 q 838 99 865 122 q 735 34 793 57 q 713 30 724 30 q 641 76 684 30 q 613 102 627 90 q 581 164 581 127 q 584 189 581 176 q 592 290 592 239 q 580 418 592 349 l 579 431 q 582 441 579 437 q 602 445 585 445 q 715 480 663 448 q 742 522 742 501 q 711 563 742 543 q 616 587 667 585 q 595 586 606 587 l 582 585 q 559 591 566 585 q 550 628 552 600 q 547 650 549 639 q 546 657 546 654 q 559 668 546 668 l 573 668 q 684 701 644 668 q 698 727 698 713 q 684 753 698 740 q 562 786 644 786 q 539 790 543 786 q 536 801 536 793 q 547 892 536 838 q 642 1034 563 984 q 677 1045 658 1045 q 693 1043 685 1045 q 783 974 754 1029 q 869 930 803 930 q 933 947 901 930 q 965 995 965 963 q 962 1015 965 1004 q 888 1102 943 1074 q 659 1168 779 1168 q 566 1159 613 1168 q 309 962 387 1126 q 270 799 274 884 q 266 786 270 789 q 254 783 262 783 q 202 779 228 783 q 122 750 158 776 q 106 722 106 736 q 122 693 106 707 q 231 663 161 663 l 250 664 q 270 659 265 664 q 276 641 275 654 q 287 564 279 602 l 288 557 q 274 546 288 548 q 210 537 251 544 q 130 510 168 532 q 107 475 107 492 q 130 439 107 457 q 248 414 172 414 q 296 417 286 414 l 300 418 q 308 409 307 418 l 311 384 q 316 334 315 361 q 218 349 267 349 q 149 342 183 349 q 2 199 24 315 q 0 168 0 184 q 64 22 0 84 q 232 -64 132 -47 q 291 -69 262 -69 q 424 -40 359 -69 l 425 -39 q 439 -35 433 -35 q 448 -39 444 -35 q 678 -105 555 -105 m 264 46 q 233 67 252 46 q 228 72 231 70 q 194 149 194 107 q 208 203 194 175 q 277 130 245 168 l 300 106 q 303 98 303 102 q 302 92 303 96 q 290 63 296 75 q 264 46 280 46 z "},"":{"ha":1826,"x_min":52,"x_max":1882,"o":"m 159 -5 q 245 85 227 -5 q 256 231 256 158 q 258 273 256 252 q 265 288 258 288 q 273 286 268 288 q 344 274 308 274 q 399 281 371 274 q 599 404 515 311 q 762 743 737 539 q 764 777 764 760 q 715 968 764 873 q 575 1112 667 1063 q 400 1147 495 1147 q 259 1114 327 1147 q 245 1111 252 1111 q 234 1113 240 1111 q 181 1122 208 1122 q 115 1108 148 1122 q 75 1053 82 1095 q 56 804 57 929 q 54 722 56 762 q 51 562 51 639 q 52 467 51 513 q 54 376 54 420 q 59 172 56 271 q 73 62 60 116 q 159 -5 89 -5 m 314 390 q 284 414 305 390 l 273 425 q 262 454 262 437 q 265 600 262 522 l 280 978 q 285 1002 280 993 q 306 1013 291 1011 q 350 1029 312 1015 q 386 1036 369 1036 q 463 994 430 1036 q 530 795 530 902 q 516 695 530 747 q 355 420 475 528 q 314 390 323 390 m 888 -44 q 919 -41 903 -44 q 970 -18 955 -35 q 989 34 986 -2 q 1013 336 1009 184 l 1023 661 q 1038 675 1023 675 l 1059 675 q 1124 676 1092 675 q 1234 711 1184 676 q 1255 748 1255 729 q 1234 786 1255 767 q 1183 810 1211 803 q 1058 825 1122 825 l 1040 825 q 1026 830 1030 825 q 1023 852 1023 834 q 1017 991 1023 926 q 913 1088 1010 1088 l 896 1088 q 795 1000 806 1088 q 779 844 781 922 q 763 825 779 825 l 746 825 q 696 822 722 825 q 693 821 695 821 q 595 790 640 818 q 572 753 572 772 q 595 716 572 735 q 644 694 618 701 q 754 680 701 680 q 770 665 770 679 q 767 536 767 568 q 770 326 767 431 q 793 17 770 198 q 827 -31 798 -17 q 888 -44 857 -44 m 1537 -65 q 1604 -61 1552 -65 q 1830 30 1734 -52 q 1883 144 1883 77 l 1882 157 q 1723 372 1867 289 q 1563 465 1680 399 q 1485 593 1485 508 l 1486 606 l 1486 611 q 1552 816 1496 722 q 1567 828 1560 828 q 1581 819 1573 828 q 1628 753 1610 789 q 1721 701 1653 701 q 1758 705 1739 701 q 1837 800 1837 728 q 1834 829 1837 813 q 1767 926 1818 889 q 1581 987 1683 987 q 1556 987 1568 987 q 1474 977 1544 986 q 1318 868 1404 968 q 1218 666 1244 778 q 1208 593 1208 628 q 1315 399 1208 477 q 1391 351 1352 372 q 1525 279 1484 303 q 1620 169 1595 243 q 1624 140 1624 155 q 1571 70 1624 85 q 1556 68 1563 68 q 1490 98 1517 68 q 1375 143 1446 143 q 1263 109 1312 143 q 1242 73 1242 91 q 1260 41 1242 58 q 1385 -35 1317 -6 q 1537 -65 1464 -65 z "},"":{"ha":886,"x_min":-22,"x_max":878,"o":"m 506 -117 l 524 -116 q 783 50 686 -113 q 827 134 807 91 q 865 208 845 172 q 878 245 878 229 q 838 293 878 275 q 764 309 802 309 q 731 306 747 309 q 628 224 656 298 q 539 70 594 142 q 526 60 533 60 q 513 71 519 60 q 405 330 429 188 l 405 334 q 420 345 405 345 l 531 353 q 629 383 583 357 q 655 421 655 402 q 627 459 655 441 q 505 481 588 481 q 416 473 460 481 q 407 472 410 472 q 395 487 395 472 q 408 625 395 533 q 422 637 410 637 l 463 637 l 501 637 q 605 667 557 639 q 633 709 633 685 q 597 753 633 739 q 477 776 539 776 l 458 775 q 443 783 443 775 q 452 814 443 787 q 549 996 486 916 q 631 1039 585 1039 q 686 1027 661 1039 q 758 1010 722 1010 q 824 1026 791 1010 q 848 1060 848 1041 q 836 1090 848 1074 q 777 1133 812 1118 q 637 1164 709 1164 l 609 1164 q 306 1041 425 1164 q 165 801 210 935 q 142 783 159 784 q 39 763 87 783 q 9 728 9 747 q 34 693 9 711 q 111 665 70 671 q 123 652 123 661 l 123 646 q 98 447 102 548 q 81 432 97 432 q 9 412 43 427 q -12 399 -3 406 q -22 377 -21 392 q -12 354 -21 361 q 10 342 -2 347 q 11 341 10 341 q 81 326 45 326 q 99 321 94 326 q 105 304 104 315 q 175 86 121 189 q 375 -95 239 -43 q 506 -117 439 -117 z "},"":{"ha":1263,"x_min":60,"x_max":1249,"o":"m 182 -33 q 273 28 261 -33 q 283 171 283 99 l 283 180 q 288 479 287 471 l 288 487 q 295 482 293 485 q 297 476 296 479 q 299 472 298 473 l 345 370 q 494 112 404 233 q 666 26 561 26 l 688 26 q 852 155 816 33 q 863 199 859 177 q 905 562 897 379 q 926 943 926 857 q 922 1038 926 990 q 807 1123 916 1123 q 695 1039 697 1123 q 690 963 694 1001 q 686 857 686 910 l 686 827 q 682 709 686 768 l 677 627 q 642 293 671 458 q 636 297 638 294 q 634 302 635 300 q 633 305 633 304 q 562 470 598 388 q 463 700 510 584 q 339 985 406 844 q 293 1037 325 1019 q 205 1058 249 1058 q 121 1039 163 1058 q 82 987 87 1025 q 60 622 60 821 l 60 439 q 83 37 60 129 q 182 -33 100 -33 m 1055 -12 q 1228 101 1178 -9 q 1249 198 1249 148 q 1245 241 1249 219 q 1112 361 1223 352 q 1085 363 1096 361 q 1042 369 1063 369 q 962 346 1000 369 q 856 182 872 288 q 852 151 852 166 q 876 80 852 113 q 1055 -12 945 -7 m 1054 91 q 1042 98 1048 91 q 1018 161 1018 126 q 1049 277 1018 220 q 1061 288 1055 288 q 1074 280 1066 288 q 1099 208 1099 248 q 1066 99 1099 148 q 1054 91 1060 91 z "},"":{"ha":835,"x_min":-5,"x_max":850,"o":"m 156 511 q 197 544 195 514 q 201 730 201 637 l 203 823 q 204 853 204 844 q 199 897 204 875 l 199 898 q 202 900 199 900 l 204 900 l 226 900 l 254 900 q 312 914 284 900 q 326 926 321 918 q 329 935 329 931 q 313 956 329 946 q 263 970 290 968 q 182 973 223 973 l 122 972 q 74 971 98 972 q 9 956 39 971 q -5 937 -5 947 q 9 918 -5 928 q 89 902 38 902 l 108 901 q 114 899 114 901 q 113 895 114 897 q 105 863 107 880 l 104 855 q 93 682 93 780 q 103 542 93 612 q 123 516 105 524 q 152 511 137 511 l 156 511 m 409 511 q 442 530 438 511 q 447 579 446 554 l 447 593 q 457 722 447 658 q 500 859 468 793 q 506 866 502 864 q 508 860 507 865 q 528 737 524 799 l 528 735 q 534 667 532 680 q 551 647 536 652 q 585 640 568 640 q 619 647 602 640 q 637 666 634 652 q 640 695 640 680 q 638 725 640 707 q 636 742 636 733 q 638 759 636 751 q 676 859 649 812 q 706 896 688 879 l 708 892 q 719 798 719 846 l 720 766 q 718 693 720 729 q 718 651 718 672 q 721 557 718 604 q 747 522 722 532 q 784 515 766 515 q 822 522 803 515 q 846 551 843 530 q 851 653 851 582 q 837 849 851 751 q 815 925 833 888 q 721 970 790 970 q 690 967 705 970 q 615 923 644 957 l 602 910 q 589 929 596 920 q 515 957 562 957 q 449 939 476 957 q 405 890 421 918 q 350 683 351 792 q 349 659 349 671 q 372 531 349 591 q 409 511 378 511 z "},"":{"ha":954,"x_min":0,"x_max":954,"o":"m 448 -58 q 674 17 568 -58 q 954 538 935 203 q 879 850 948 712 q 580 1039 785 1039 l 572 1039 q 146 871 330 1031 q 6 660 43 787 q 0 625 0 641 q 66 563 0 574 q 90 560 77 560 q 174 600 153 560 q 212 677 193 639 q 517 918 311 865 q 544 921 531 921 q 622 872 591 921 q 678 739 661 810 l 679 732 q 673 722 679 726 q 656 709 664 716 q 627 690 642 699 q 528 616 571 662 q 337 406 429 514 q 212 205 256 316 q 198 128 198 167 q 201 94 198 111 q 448 -58 237 -58 m 450 64 q 433 79 439 64 q 421 133 421 106 q 427 173 421 153 q 680 534 465 304 q 690 545 690 544 q 696 549 693 549 l 698 549 l 698 532 q 686 422 698 477 q 541 127 654 255 q 463 68 507 91 q 450 64 455 64 z "},"":{"ha":804,"x_min":0,"x_max":804,"o":"m 706 126 q 766 138 738 126 q 804 191 804 154 q 803 205 804 197 q 760 336 789 268 q 593 694 682 524 l 538 804 q 395 1045 481 932 q 299 1086 363 1086 q 209 1021 236 1086 l 208 1016 q 132 772 181 954 q 82 597 108 684 q 5 310 39 455 q 0 270 0 288 q 128 146 0 177 q 272 130 200 130 q 444 147 328 130 q 594 165 588 165 q 610 159 604 165 q 702 126 651 126 l 706 126 m 256 279 q 244 294 244 279 q 262 381 245 325 q 343 719 271 410 q 347 733 346 728 l 517 322 l 470 314 q 264 281 339 294 l 256 279 z "},"":{"ha":804,"x_min":0,"x_max":804,"o":"m 131 -59 l 149 -58 q 233 26 233 -49 l 226 357 q 216 956 220 656 q 218 964 216 961 q 350 970 220 970 q 517 966 433 970 q 532 954 532 966 q 528 896 528 925 l 530 602 q 559 37 532 319 q 590 -15 561 2 q 681 -37 635 -37 q 771 -15 726 -37 q 801 31 799 -1 l 804 180 q 782 651 804 349 l 775 765 q 747 998 771 882 l 746 1003 q 751 1017 746 1010 q 764 1048 764 1033 q 748 1082 764 1065 q 709 1107 731 1098 q 590 1133 652 1130 q 412 1141 501 1141 q 250 1135 343 1141 q 27 1084 87 1128 q 8 1049 8 1068 q 16 1024 8 1037 q 20 1005 20 1017 l 20 998 q 0 568 0 805 q 24 23 0 296 q 88 -54 31 -37 q 131 -59 109 -59 z "},"":{"ha":785,"x_min":0,"x_max":785,"o":"m 190 -74 q 351 -69 247 -74 q 625 -54 513 -66 q 736 -25 684 -52 q 773 24 772 -5 q 736 75 772 55 q 640 100 691 98 q 561 101 601 101 q 273 87 474 101 l 277 97 q 550 536 392 330 q 576 591 576 568 q 558 631 576 612 q 290 968 402 813 q 278 987 285 977 l 346 987 q 477 985 429 987 q 557 983 517 983 q 662 987 609 983 q 762 1023 717 991 q 785 1063 785 1042 q 763 1102 785 1082 q 707 1130 738 1122 q 519 1156 614 1154 q 425 1158 471 1158 q 149 1140 287 1158 q 46 1107 94 1137 q 23 1074 23 1090 l 24 1067 q 28 1038 27 1053 q 71 928 31 994 q 338 602 180 758 q 345 589 345 595 q 340 579 345 585 q 104 248 212 420 q 9 77 51 166 q 0 36 0 58 q 9 12 0 23 q 17 -3 15 5 q 72 -57 26 -39 q 152 -74 110 -73 l 190 -74 z "},"":{"ha":712,"x_min":0,"x_max":712,"o":"m 184 256 q 254 258 220 256 q 311 260 284 260 q 344 259 328 260 l 543 259 q 616 267 581 259 q 692 303 658 273 q 712 347 712 326 q 692 392 712 370 q 549 436 644 436 l 403 436 q 223 437 264 436 q 185 439 204 439 q 109 433 146 439 q 15 385 56 427 q 0 347 0 366 q 15 307 0 327 q 47 281 29 291 q 157 256 100 256 l 184 256 z "},"":{"ha":958,"x_min":0,"x_max":958,"o":"m 397 -75 q 489 -58 437 -75 q 584 30 541 -41 q 650 159 619 94 l 662 184 q 828 612 758 393 q 872 739 848 671 q 947 922 904 838 q 958 953 958 939 q 928 993 958 977 q 861 1009 895 1009 q 818 1003 840 1009 q 753 956 766 991 q 717 862 736 907 q 631 632 666 735 q 572 473 603 552 q 480 263 533 366 q 488 410 488 399 q 486 460 488 435 q 433 533 479 511 q 355 553 396 553 q 112 545 292 553 q 25 525 66 545 q 0 493 1 514 q 24 461 1 475 q 167 437 69 437 q 237 441 202 437 l 252 441 q 265 438 262 441 q 269 425 269 435 q 254 286 269 411 q 243 144 243 220 q 250 33 243 88 q 397 -75 260 -75 z "},"":{"ha":1257,"x_min":0,"x_max":1257,"o":"m 296 216 q 431 240 363 216 q 625 408 556 291 q 638 424 634 423 q 652 410 642 424 q 953 240 780 240 q 1189 347 1102 240 q 1257 539 1257 435 q 1090 827 1257 740 q 924 863 1010 863 q 686 777 786 863 q 675 770 680 770 q 666 775 671 770 q 429 868 565 868 l 397 868 q 186 808 284 868 q 3 507 25 700 q 0 467 0 487 q 146 246 0 309 q 296 216 221 216 m 949 374 q 935 379 943 374 q 830 483 876 424 q 741 586 789 537 q 734 597 734 592 q 736 605 734 601 q 862 749 784 690 q 923 768 891 768 q 955 765 931 768 q 1008 728 979 762 q 1050 596 1050 672 l 1049 567 q 964 381 1049 461 q 949 374 958 374 m 313 330 q 302 332 310 330 q 281 350 294 334 q 246 463 246 397 l 246 468 q 365 716 254 612 q 368 719 366 716 q 416 743 400 743 q 456 724 432 743 l 461 722 q 508 659 493 697 q 532 593 532 610 q 501 526 532 574 q 338 338 424 387 q 313 330 324 330 z "},"":{"ha":568,"x_min":0,"x_max":568,"o":"m 208 -75 q 293 -61 249 -75 q 400 11 355 -42 q 441 132 441 60 l 441 145 q 438 193 439 170 q 436 239 438 217 q 409 686 421 442 q 408 724 408 703 q 410 789 408 752 q 412 845 411 817 q 436 971 414 909 q 453 985 439 985 l 475 984 q 555 1002 526 984 q 568 1025 568 1009 q 559 1045 568 1038 q 537 1058 549 1053 q 393 1089 469 1089 l 378 1089 q 191 944 231 1086 l 189 935 q 151 629 152 785 l 150 563 q 154 414 150 488 q 159 286 157 350 q 161 155 159 221 q 163 117 163 136 q 159 58 163 87 q 138 38 156 38 q 85 49 114 38 q 49 55 67 55 q 22 52 36 55 q 0 30 0 43 q 34 -7 0 14 l 52 -20 q 208 -75 125 -75 z "},"":{"ha":960,"x_min":0,"x_max":960,"o":"m 88 568 q 129 574 103 568 q 180 619 155 579 q 283 755 221 694 q 294 762 289 762 q 306 753 300 762 q 590 570 444 570 q 701 599 650 570 q 882 814 830 674 q 888 837 888 827 q 859 875 888 861 q 811 886 837 886 q 767 880 797 886 q 710 833 736 873 q 618 713 671 768 q 604 704 610 704 q 522 803 591 704 q 429 885 488 857 q 311 911 371 911 q 220 896 267 911 q 67 774 125 858 q 9 658 24 724 q 6 633 6 644 q 52 574 6 587 q 88 568 69 568 m 602 245 q 761 294 690 245 q 948 492 873 375 q 960 530 960 512 q 948 565 960 544 q 896 586 936 586 q 751 526 812 584 q 714 488 732 507 q 628 405 678 447 q 593 381 601 381 q 574 391 588 381 q 534 417 543 411 q 391 500 459 470 q 265 527 324 527 q 151 500 218 527 q 16 365 83 473 q 0 312 0 336 q 39 268 0 280 q 87 260 61 260 q 128 265 100 260 q 186 307 155 269 q 251 377 216 345 q 264 384 258 384 q 277 378 269 384 q 386 303 329 337 q 579 245 475 245 l 602 245 z "},"":{"ha":764,"x_min":0,"x_max":764,"o":"m 654 165 q 731 183 699 165 q 764 225 764 201 q 746 264 764 243 q 711 294 731 282 q 539 419 661 328 q 393 544 458 475 q 367 587 367 572 q 390 631 367 602 q 600 949 502 785 q 659 1063 635 1003 q 663 1088 663 1076 q 631 1138 663 1120 q 556 1156 595 1156 q 536 1154 546 1156 q 420 1074 458 1142 l 412 1063 q 214 794 313 911 q 119 672 165 734 q 87 588 87 631 q 115 511 87 549 q 202 412 151 454 q 517 198 349 290 q 629 168 565 170 q 654 165 640 165 m 526 -73 q 615 -71 570 -73 q 694 -47 657 -69 q 719 -11 719 -31 q 700 24 719 6 q 571 66 660 59 q 425 71 503 71 l 264 72 q 104 67 184 72 q 21 43 59 66 q 0 11 0 27 q 16 -20 0 -4 q 271 -73 75 -73 l 365 -73 l 427 -72 l 490 -73 l 526 -73 z "},"":{"ha":764,"x_min":0,"x_max":764,"o":"m 110 165 q 135 168 124 165 q 246 198 199 170 q 562 412 414 290 q 649 511 612 454 q 676 588 676 549 q 644 672 676 631 q 549 794 599 734 q 351 1063 451 911 l 344 1074 q 228 1154 305 1142 q 208 1156 218 1156 q 133 1138 168 1156 q 100 1088 100 1120 q 104 1063 100 1076 q 163 949 128 1003 q 374 631 262 785 q 397 587 397 602 q 370 544 397 572 q 225 419 306 475 q 52 294 102 328 q 18 264 33 282 q 0 225 0 243 q 33 183 0 201 q 110 165 66 165 m 238 -73 l 274 -73 l 337 -72 l 399 -73 l 493 -73 q 748 -20 689 -73 q 764 11 764 -4 q 743 43 764 27 q 659 67 705 66 q 500 72 579 72 l 338 71 q 193 66 260 71 q 64 24 104 59 q 45 -11 45 6 q 70 -47 45 -31 q 149 -71 106 -69 q 238 -73 194 -73 z "}}}
